STARTFONT 2.1
COMMENT
COMMENT Converted from OpenType font "Amiri.ttf" by "otf2bdf 3.0".
COMMENT
FONT -FreeType-Amiri-Medium-R-Normal--32-320-72-72-P-199-ISO10646-1
SIZE 32 72 72
FONTBOUNDINGBOX 379 85 -12 -27
STARTPROPERTIES 19
FOUNDRY "FreeType"
FAMILY_NAME "Amiri"
WEIGHT_NAME "Medium"
SLANT "R"
SETWIDTH_NAME "Normal"
ADD_STYLE_NAME ""
PIXEL_SIZE 32
POINT_SIZE 320
RESOLUTION_X 72
RESOLUTION_Y 72
SPACING "P"
AVERAGE_WIDTH 199
CHARSET_REGISTRY "ISO10646"
CHARSET_ENCODING "1"
FONT_ASCENT 35
FONT_DESCENT 20
COPYRIGHT "Copyright 2010-2022 The Amiri Project Authors (https://github.com/aliftype/amiri)."
_OTF_FONTFILE "Amiri.ttf"
_OTF_PSNAME "Amiri-Regular"
ENDPROPERTIES
CHARS 1556
STARTCHAR 0020
ENCODING 32
SWIDTH 281 0
DWIDTH 9 0
BBX 0 0 0 0
BITMAP
ENDCHAR
STARTCHAR 0021
ENCODING 33
SWIDTH 250 0
DWIDTH 8 0
BBX 3 21 2 0
BITMAP
60
E0
E0
E0
E0
E0
60
60
60
60
60
60
40
40
40
40
00
00
E0
E0
E0
ENDCHAR
STARTCHAR 0022
ENCODING 34
SWIDTH 281 0
DWIDTH 9 0
BBX 6 7 1 15
BITMAP
64
EC
EC
EC
4C
44
44
ENDCHAR
STARTCHAR 0023
ENCODING 35
SWIDTH 468 0
DWIDTH 15 0
BBX 11 15 2 2
BITMAP
0840
18C0
1080
1080
7FE0
9080
1080
3180
2100
2100
FFE0
2100
2100
2100
4200
ENDCHAR
STARTCHAR 0024
ENCODING 36
SWIDTH 500 0
DWIDTH 16 0
BBX 12 23 2 -2
BITMAP
0100
0F80
31E0
6360
E260
E220
E200
E200
7200
7E00
1F00
0F80
07C0
05E0
0470
0470
8870
8870
C860
E8C0
7F80
1800
0800
ENDCHAR
STARTCHAR 0025
ENCODING 37
SWIDTH 656 0
DWIDTH 21 0
BBX 19 20 1 0
BITMAP
1E00C0
630180
618100
C18200
C1C600
C18C00
E19800
619000
333000
1E6000
00CF00
009180
0130C0
0360C0
0660C0
0C60E0
0860C0
1830C0
303880
601F00
ENDCHAR
STARTCHAR 0026
ENCODING 38
SWIDTH 656 0
DWIDTH 21 0
BBX 19 21 2 0
BITMAP
010000
07E000
0C7000
183000
183000
183000
1C2000
0C6000
0EC000
070000
0F0000
3B0FE0
738300
E1C300
E0E600
C06400
C07C00
E03800
E03C40
78CFC0
3F8780
ENDCHAR
STARTCHAR 0027
ENCODING 39
SWIDTH 156 0
DWIDTH 5 0
BBX 3 7 1 15
BITMAP
60
E0
E0
E0
40
40
40
ENDCHAR
STARTCHAR 0028
ENCODING 40
SWIDTH 468 0
DWIDTH 15 0
BBX 8 35 5 -12
BITMAP
01
02
06
0C
08
18
30
30
60
60
60
E0
C0
C0
C0
C0
C0
C0
C0
C0
C0
C0
C0
E0
60
60
60
30
30
10
18
0C
04
02
01
ENDCHAR
STARTCHAR 0029
ENCODING 41
SWIDTH 468 0
DWIDTH 15 0
BBX 9 35 1 -12
BITMAP
8000
4000
2000
1000
1800
0C00
0C00
0600
0600
0700
0300
0300
0300
0380
0380
0180
0180
0180
0180
0180
0380
0380
0380
0300
0300
0300
0600
0600
0400
0C00
0800
1800
3000
2000
C000
ENDCHAR
STARTCHAR 002A
ENCODING 42
SWIDTH 437 0
DWIDTH 14 0
BBX 11 12 1 9
BITMAP
1000
1840
18C0
09C0
0500
6E00
F580
44E0
0460
0C00
0C00
0400
ENDCHAR
STARTCHAR 002B
ENCODING 43
SWIDTH 531 0
DWIDTH 17 0
BBX 15 15 1 0
BITMAP
0100
0100
0100
0100
0100
0100
FFFE
FFFE
0100
0100
0100
0100
0100
0100
0100
ENDCHAR
STARTCHAR 002C
ENCODING 44
SWIDTH 187 0
DWIDTH 6 0
BBX 4 8 1 -4
BITMAP
60
F0
70
70
60
60
40
80
ENDCHAR
STARTCHAR 002D
ENCODING 45
SWIDTH 375 0
DWIDTH 12 0
BBX 8 3 2 6
BITMAP
01
FF
FC
ENDCHAR
STARTCHAR 002E
ENCODING 46
SWIDTH 312 0
DWIDTH 10 0
BBX 6 7 2 0
BITMAP
20
78
7C
FC
78
38
10
ENDCHAR
STARTCHAR 002F
ENCODING 47
SWIDTH 343 0
DWIDTH 11 0
BBX 10 28 0 -6
BITMAP
00C0
00C0
0080
0180
0180
0100
0100
0300
0300
0200
0600
0600
0400
0400
0C00
0C00
0800
1800
1800
1000
1000
3000
3000
2000
6000
6000
4000
C000
ENDCHAR
STARTCHAR 0030
ENCODING 48
SWIDTH 531 0
DWIDTH 17 0
BBX 13 20 2 0
BITMAP
0F80
18C0
3060
7070
6030
E038
E038
E038
E018
C018
C018
E038
E038
E038
E038
6030
7070
3060
18C0
0F80
ENDCHAR
STARTCHAR 0031
ENCODING 49
SWIDTH 531 0
DWIDTH 17 0
BBX 7 20 5 0
BITMAP
08
38
F8
18
18
18
18
18
18
18
18
18
18
18
18
18
18
18
18
FE
ENDCHAR
STARTCHAR 0032
ENCODING 50
SWIDTH 531 0
DWIDTH 17 0
BBX 13 20 2 0
BITMAP
0F80
1FC0
31E0
40E0
4070
0070
0070
0060
0060
00C0
0080
0180
0300
0600
0C00
0808
1010
2030
7FF0
FFE0
ENDCHAR
STARTCHAR 0033
ENCODING 51
SWIDTH 531 0
DWIDTH 17 0
BBX 11 20 3 0
BITMAP
1F00
3F80
41C0
81C0
00C0
01C0
0180
0300
0700
1FC0
01E0
00E0
00E0
0060
0060
0060
00C0
C0C0
E380
FE00
ENDCHAR
STARTCHAR 0034
ENCODING 52
SWIDTH 531 0
DWIDTH 17 0
BBX 13 20 2 0
BITMAP
0020
0060
00E0
00E0
0160
0260
0460
0460
0860
1060
2060
6060
4060
FFF8
FFF8
0060
0060
0060
0060
0060
ENDCHAR
STARTCHAR 0035
ENCODING 53
SWIDTH 531 0
DWIDTH 17 0
BBX 11 20 3 0
BITMAP
1FE0
3FC0
3F80
2000
2000
2000
6000
4000
7F80
67C0
01E0
00E0
00E0
0060
0060
0060
00C0
C0C0
E380
FE00
ENDCHAR
STARTCHAR 0036
ENCODING 54
SWIDTH 531 0
DWIDTH 17 0
BBX 13 20 2 0
BITMAP
0030
00C0
0300
0600
0C00
1800
3000
7000
6FC0
70E0
E070
E030
E038
E038
E038
6030
7030
3070
38E0
0F80
ENDCHAR
STARTCHAR 0037
ENCODING 55
SWIDTH 531 0
DWIDTH 17 0
BBX 13 20 2 0
BITMAP
7FF8
7FF8
7FF0
8010
8020
0020
0040
0040
0080
0080
0100
0100
0300
0200
0600
0400
0C00
0800
1800
3000
ENDCHAR
STARTCHAR 0038
ENCODING 56
SWIDTH 531 0
DWIDTH 17 0
BBX 11 20 3 0
BITMAP
1F00
31C0
60C0
60E0
E060
60E0
60C0
70C0
3D00
1E00
1F80
33C0
61E0
C0E0
C060
C060
C060
E0E0
70C0
3F80
ENDCHAR
STARTCHAR 0039
ENCODING 57
SWIDTH 531 0
DWIDTH 17 0
BBX 13 20 2 0
BITMAP
0F80
38E0
7060
6070
6030
E038
E038
E038
6038
7038
3870
1FF0
0070
0060
00C0
0180
0300
0600
1800
6000
ENDCHAR
STARTCHAR 003A
ENCODING 58
SWIDTH 218 0
DWIDTH 7 0
BBX 3 13 2 0
BITMAP
E0
E0
E0
00
00
00
00
00
00
00
E0
E0
E0
ENDCHAR
STARTCHAR 003B
ENCODING 59
SWIDTH 218 0
DWIDTH 7 0
BBX 4 17 1 -4
BITMAP
70
70
70
00
00
00
00
00
00
30
70
70
30
30
20
60
C0
ENDCHAR
STARTCHAR 003C
ENCODING 60
SWIDTH 468 0
DWIDTH 15 0
BBX 13 13 1 0
BITMAP
0038
00F0
03C0
0F00
3C00
F000
C000
7000
3C00
0700
03C0
00F0
0038
ENDCHAR
STARTCHAR 003D
ENCODING 61
SWIDTH 562 0
DWIDTH 18 0
BBX 14 6 2 4
BITMAP
FFFC
FFF8
0000
0000
0004
FFF8
ENDCHAR
STARTCHAR 003E
ENCODING 62
SWIDTH 468 0
DWIDTH 15 0
BBX 13 13 1 0
BITMAP
6000
7800
1E00
0780
01E0
0078
0018
0078
01E0
0780
1E00
F800
6000
ENDCHAR
STARTCHAR 003F
ENCODING 63
SWIDTH 343 0
DWIDTH 11 0
BBX 8 20 2 0
BITMAP
F0
F8
C4
02
03
03
07
0E
1E
7C
78
60
40
40
40
00
00
E0
E0
E0
ENDCHAR
STARTCHAR 0040
ENCODING 64
SWIDTH 718 0
DWIDTH 23 0
BBX 20 22 2 -4
BITMAP
00FC00
078700
0C00C0
180040
300C20
207E20
40C630
418610
C30610
860C10
860C10
8E0C10
8C1C10
8C1C30
8C3820
8E7860
C7DCC0
478F00
600000
300000
180000
060000
ENDCHAR
STARTCHAR 0041
ENCODING 65
SWIDTH 625 0
DWIDTH 20 0
BBX 20 21 0 0
BITMAP
002000
006000
00E000
00F000
00F000
01B000
013800
013800
021800
021C00
061C00
040E00
07FE00
0C0600
080700
180700
100380
100380
300380
3001C0
FC07F0
ENDCHAR
STARTCHAR 0042
ENCODING 66
SWIDTH 593 0
DWIDTH 19 0
BBX 16 21 1 0
BITMAP
FF80
3CF8
181C
181E
180E
180E
180E
180C
1818
1FF0
1FFC
181E
180F
1807
1807
1807
1807
1807
180E
1C1C
FFF0
ENDCHAR
STARTCHAR 0043
ENCODING 67
SWIDTH 656 0
DWIDTH 21 0
BBX 19 21 1 0
BITMAP
00FF00
0383C0
0E00C0
1C00C0
180040
380040
700000
700000
700000
700000
F00000
700000
700000
700000
700000
380020
380060
1C0040
0E00C0
0781C0
01FF00
ENDCHAR
STARTCHAR 0044
ENCODING 68
SWIDTH 687 0
DWIDTH 22 0
BBX 20 21 1 0
BITMAP
FF8000
3EFC00
1C0F00
1C0380
1C01C0
1C01C0
1C00E0
1C00E0
1C00E0
1C00F0
1C00F0
1C00F0
1C00E0
1C00E0
1C00E0
1C00E0
1C01C0
1C0380
1C0780
1C0E00
FFF800
ENDCHAR
STARTCHAR 0045
ENCODING 69
SWIDTH 562 0
DWIDTH 18 0
BBX 16 21 1 0
BITMAP
FFFC
3FFC
1C06
1802
1802
1800
1800
1800
1808
1818
1FF8
1C18
1808
1808
1800
1800
1801
1801
1803
1C0E
FFFE
ENDCHAR
STARTCHAR 0046
ENCODING 70
SWIDTH 531 0
DWIDTH 17 0
BBX 15 21 1 0
BITMAP
FFFC
3FFC
1C06
1802
1802
1800
1800
1800
1808
1818
1FF8
1C18
1808
1808
1800
1800
1800
1800
1800
1C00
FF00
ENDCHAR
STARTCHAR 0047
ENCODING 71
SWIDTH 718 0
DWIDTH 23 0
BBX 21 21 1 0
BITMAP
00FF00
0383C0
0E00C0
1C00C0
180040
380040
700000
700000
700000
700000
F00000
700000
7007F8
7000C0
7000C0
3800C0
3800C0
1C00C0
0E00E0
0781C0
01FF00
ENDCHAR
STARTCHAR 0048
ENCODING 72
SWIDTH 718 0
DWIDTH 23 0
BBX 20 21 1 0
BITMAP
FF07F0
3C03E0
1C01C0
1801C0
1801C0
1801C0
1801C0
1801C0
1801C0
1801C0
1FFFC0
1801C0
1801C0
1801C0
1801C0
1801C0
1801C0
1801C0
1801C0
1C01C0
FF07F0
ENDCHAR
STARTCHAR 0049
ENCODING 73
SWIDTH 312 0
DWIDTH 10 0
BBX 8 21 1 0
BITMAP
FF
3C
1C
18
18
18
18
18
18
18
18
18
18
18
18
18
18
18
18
1C
FF
ENDCHAR
STARTCHAR 004A
ENCODING 74
SWIDTH 312 0
DWIDTH 10 0
BBX 12 28 -3 -7
BITMAP
0FF0
03C0
0380
0180
0180
0180
0180
0180
0180
0180
0180
0180
0180
0180
0180
0180
0180
0180
0180
0380
0380
0380
0380
0300
0300
C200
FC00
F800
ENDCHAR
STARTCHAR 004B
ENCODING 75
SWIDTH 656 0
DWIDTH 21 0
BBX 20 21 1 0
BITMAP
FF0FE0
3C0780
1C0600
180C00
180800
181800
182000
184000
188000
1B0000
1F8000
1BC000
19C000
18E000
187000
187800
183C00
181E00
180F00
1C0780
FF01F0
ENDCHAR
STARTCHAR 004C
ENCODING 76
SWIDTH 562 0
DWIDTH 18 0
BBX 16 21 1 0
BITMAP
FF00
3C00
1C00
1800
1800
1800
1800
1800
1800
1800
1800
1800
1800
1800
1800
1800
1801
1801
1803
1C0E
FFFE
ENDCHAR
STARTCHAR 004D
ENCODING 77
SWIDTH 875 0
DWIDTH 28 0
BBX 26 21 1 0
BITMAP
7E000FC0
3E001F00
1E001E00
1F003600
17003600
13802600
13806600
11C04600
11C04600
11C0C700
10E08700
10E18700
10710700
10710700
10730700
103A0700
103E0700
101C0700
101C0700
300C0700
FE081FC0
ENDCHAR
STARTCHAR 004E
ENCODING 78
SWIDTH 750 0
DWIDTH 24 0
BBX 22 21 1 0
BITMAP
FC01FC
3E0070
1E0030
170030
178030
13C030
11E030
10F030
107030
107830
103C30
101E30
100F30
100730
1007B0
1003F0
1001F0
1000F0
100070
180070
FE0030
ENDCHAR
STARTCHAR 004F
ENCODING 79
SWIDTH 718 0
DWIDTH 23 0
BBX 20 21 2 0
BITMAP
01F000
061E00
1C0700
380380
7001C0
6001E0
E000E0
E000E0
E000F0
E00070
E00070
E00070
E00070
E00060
E000E0
7000E0
7000C0
380180
1C0380
0E0600
03FC00
ENDCHAR
STARTCHAR 0050
ENCODING 80
SWIDTH 531 0
DWIDTH 17 0
BBX 15 21 1 0
BITMAP
FFC0
3CF8
181C
180E
180E
180E
180E
180E
180E
180C
1818
19F0
1800
1800
1800
1800
1800
1800
1800
1C00
FF00
ENDCHAR
STARTCHAR 0051
ENCODING 81
SWIDTH 718 0
DWIDTH 23 0
BBX 22 25 2 -4
BITMAP
01F000
061E00
1C0700
380380
7001C0
6001E0
E000E0
E000E0
E000F0
E00070
E00070
E00070
E00070
E00070
E000E0
7000E0
7000C0
380180
1C0380
0E0600
03FC00
007C00
001E00
000FEC
0003F0
ENDCHAR
STARTCHAR 0052
ENCODING 82
SWIDTH 593 0
DWIDTH 19 0
BBX 19 21 1 0
BITMAP
FF8000
3CF000
181C00
181C00
180E00
180E00
180E00
180E00
181C00
183800
18F000
1FE000
18F000
187000
183800
183C00
181C00
180E00
180F00
1C0780
FF01E0
ENDCHAR
STARTCHAR 0053
ENCODING 83
SWIDTH 500 0
DWIDTH 16 0
BBX 12 21 2 0
BITMAP
0F80
39E0
6060
E060
E020
E020
E000
F000
7800
3E00
1F00
07C0
03E0
00F0
0070
8030
8030
8070
C060
E0E0
7F80
ENDCHAR
STARTCHAR 0054
ENCODING 84
SWIDTH 625 0
DWIDTH 20 0
BBX 19 21 0 0
BITMAP
7FFFC0
70E1E0
60E060
40E020
C0E020
00E000
00E000
00E000
00E000
00E000
00E000
00E000
00E000
00E000
00E000
00E000
00E000
00E000
00E000
00E000
03FC00
ENDCHAR
STARTCHAR 0055
ENCODING 85
SWIDTH 718 0
DWIDTH 23 0
BBX 21 21 1 0
BITMAP
FE03F8
3800E0
380040
380040
380040
380040
380040
380040
380040
380040
380040
380040
380040
380040
380040
3800C0
1C00C0
1C0180
0F0380
07FF00
01FC00
ENDCHAR
STARTCHAR 0056
ENCODING 86
SWIDTH 625 0
DWIDTH 20 0
BBX 20 21 0 0
BITMAP
FE03F0
7C01E0
3800C0
1C0080
1C0080
1C0180
0E0100
0E0300
060200
070200
070600
038400
038C00
038800
01C800
01D800
00D000
00F000
00E000
006000
004000
ENDCHAR
STARTCHAR 0057
ENCODING 87
SWIDTH 875 0
DWIDTH 28 0
BBX 28 21 0 0
BITMAP
FE0203F0
7C0301E0
380300C0
18070080
1C078080
1C078180
1C0F8100
0E09C100
0E09C100
0E19C300
0610E200
0710E200
0730E600
03207400
03A07400
03E07400
01C03C00
01C03800
01C03800
01801800
00801000
ENDCHAR
STARTCHAR 0058
ENCODING 88
SWIDTH 656 0
DWIDTH 21 0
BBX 21 21 0 0
BITMAP
7F87F0
3F01E0
0E0080
070180
070300
038600
01C400
01C800
00F800
007000
007000
007800
009C00
019C00
030E00
020700
040700
0C0380
1803C0
3801C0
FE07F8
ENDCHAR
STARTCHAR 0059
ENCODING 89
SWIDTH 593 0
DWIDTH 19 0
BBX 19 21 0 0
BITMAP
FF0FE0
7C0380
3C0300
1C0200
0E0200
0E0400
070400
038800
038800
01D000
01F000
00E000
00E000
00E000
00E000
00E000
00E000
00E000
00E000
00E000
03F800
ENDCHAR
STARTCHAR 005A
ENCODING 90
SWIDTH 625 0
DWIDTH 20 0
BBX 18 21 1 0
BITMAP
7FFF80
7C0780
600700
400E00
401E00
C01C00
003800
007800
00F000
00E000
01C000
03C000
038000
070000
0F0000
0E0000
1C00C0
3C0080
380180
700380
FFFF00
ENDCHAR
STARTCHAR 005B
ENCODING 91
SWIDTH 375 0
DWIDTH 12 0
BBX 5 35 5 -12
BITMAP
F8
C0
80
80
80
80
80
80
80
80
80
80
80
80
80
80
80
80
80
80
80
80
80
80
80
80
80
80
80
80
80
80
80
80
F8
ENDCHAR
STARTCHAR 005C
ENCODING 92
SWIDTH 343 0
DWIDTH 11 0
BBX 10 28 1 -6
BITMAP
C000
C000
4000
6000
6000
2000
2000
3000
3000
1000
1800
1800
0800
0800
0C00
0C00
0400
0600
0600
0200
0200
0300
0300
0100
0180
0180
0080
00C0
ENDCHAR
STARTCHAR 005D
ENCODING 93
SWIDTH 375 0
DWIDTH 12 0
BBX 6 35 1 -12
BITMAP
FC
0C
0C
0C
0C
0C
0C
0C
0C
0C
0C
0C
0C
0C
0C
0C
0C
0C
0C
0C
0C
0C
0C
0C
0C
0C
0C
0C
0C
0C
0C
0C
0C
0C
FC
ENDCHAR
STARTCHAR 005E
ENCODING 94
SWIDTH 375 0
DWIDTH 12 0
BBX 8 7 2 13
BITMAP
10
18
3C
2C
46
C2
81
ENDCHAR
STARTCHAR 005F
ENCODING 95
SWIDTH 500 0
DWIDTH 16 0
BBX 15 1 0 -1
BITMAP
FFFE
ENDCHAR
STARTCHAR 0060
ENCODING 96
SWIDTH 343 0
DWIDTH 11 0
BBX 5 5 4 17
BITMAP
80
C0
E0
30
18
ENDCHAR
STARTCHAR 0061
ENCODING 97
SWIDTH 406 0
DWIDTH 13 0
BBX 12 14 1 0
BITMAP
0200
1F80
6180
61C0
60C0
00C0
03C0
0CC0
70C0
E0C0
E0C0
E1C0
7EF0
3CE0
ENDCHAR
STARTCHAR 0062
ENCODING 98
SWIDTH 500 0
DWIDTH 16 0
BBX 14 22 0 0
BITMAP
0800
F800
7800
3800
3800
3800
3800
3800
38C0
3BF0
3C78
383C
381C
381C
380C
380C
380C
381C
3818
3838
3C70
3FC0
ENDCHAR
STARTCHAR 0063
ENCODING 99
SWIDTH 406 0
DWIDTH 13 0
BBX 11 14 1 0
BITMAP
0380
0FE0
10E0
2000
6000
6000
E000
E000
E000
E000
7000
7820
3FC0
1F80
ENDCHAR
STARTCHAR 0064
ENCODING 100
SWIDTH 500 0
DWIDTH 16 0
BBX 15 22 1 0
BITMAP
0008
00F8
0070
0030
0030
0030
0030
0030
03B0
0FF0
1030
3030
6030
6030
E030
E030
E030
E030
7030
7830
3FFE
1F38
ENDCHAR
STARTCHAR 0065
ENCODING 101
SWIDTH 406 0
DWIDTH 13 0
BBX 11 14 1 0
BITMAP
0600
1BC0
30C0
60E0
60E0
7FE0
C000
E000
E000
E000
7000
7820
3FC0
1F80
ENDCHAR
STARTCHAR 0066
ENCODING 102
SWIDTH 312 0
DWIDTH 10 0
BBX 9 22 1 0
BITMAP
0380
0780
0980
1800
1000
3000
3000
3000
3000
FF00
3000
3000
3000
3000
3000
3000
3000
3000
3000
3000
3800
FE00
ENDCHAR
STARTCHAR 0067
ENCODING 103
SWIDTH 468 0
DWIDTH 15 0
BBX 13 21 1 -7
BITMAP
0E00
39F8
70C0
60E0
6060
6060
60E0
70C0
3980
3E00
6000
E000
7FE0
3FF8
3078
6018
C018
C010
E020
70C0
3F00
ENDCHAR
STARTCHAR 0068
ENCODING 104
SWIDTH 500 0
DWIDTH 16 0
BBX 15 22 1 0
BITMAP
0800
F000
7000
3000
3000
3000
3000
3000
30C0
33F0
3C70
3030
3038
3038
3038
3038
3038
3038
3038
3038
3038
FCFE
ENDCHAR
STARTCHAR 0069
ENCODING 105
SWIDTH 250 0
DWIDTH 8 0
BBX 7 20 1 0
BITMAP
30
38
38
00
00
00
08
F8
78
38
38
38
38
38
38
38
38
38
38
FE
ENDCHAR
STARTCHAR 006A
ENCODING 106
SWIDTH 218 0
DWIDTH 7 0
BBX 7 27 -1 -7
BITMAP
08
1C
1C
00
00
00
06
3C
1C
0C
0C
0C
0C
0C
0C
0C
0C
0C
0C
0C
0C
0C
18
18
10
20
C0
ENDCHAR
STARTCHAR 006B
ENCODING 107
SWIDTH 500 0
DWIDTH 16 0
BBX 15 22 1 0
BITMAP
0800
F000
7000
3000
3000
3000
3000
3000
3000
30FC
3060
30C0
3180
3200
3E00
3F00
3780
3380
31C0
30E0
3070
FC3E
ENDCHAR
STARTCHAR 006C
ENCODING 108
SWIDTH 250 0
DWIDTH 8 0
BBX 6 22 1 0
BITMAP
08
F0
70
30
30
30
30
30
30
30
30
30
30
30
30
30
30
30
30
30
30
FC
ENDCHAR
STARTCHAR 006D
ENCODING 109
SWIDTH 781 0
DWIDTH 25 0
BBX 23 14 1 0
BITMAP
08C0E0
FBF3F0
7C7478
383838
383818
383818
383818
381818
381818
381818
383818
383818
383818
FEFEFE
ENDCHAR
STARTCHAR 006E
ENCODING 110
SWIDTH 531 0
DWIDTH 17 0
BBX 15 14 1 0
BITMAP
08E0
FBF0
7C78
3838
3838
3818
3818
3818
3818
3818
3818
3818
3818
FEFE
ENDCHAR
STARTCHAR 006F
ENCODING 111
SWIDTH 500 0
DWIDTH 16 0
BBX 14 14 1 0
BITMAP
0780
1DE0
3070
7038
6038
E018
E01C
E01C
E01C
6018
7018
7030
3860
0FC0
ENDCHAR
STARTCHAR 0070
ENCODING 112
SWIDTH 500 0
DWIDTH 16 0
BBX 15 21 0 -7
BITMAP
08E0
FBF0
3C78
181C
181C
180E
180E
180E
180C
180C
180C
1818
1C30
1FC0
1800
1800
1800
1800
1800
1800
FE00
ENDCHAR
STARTCHAR 0071
ENCODING 113
SWIDTH 500 0
DWIDTH 16 0
BBX 15 21 1 -7
BITMAP
0380
0DF8
1070
3030
6030
6030
E030
E030
E030
E030
7030
7830
3FF0
1F30
0030
0030
0030
0030
0030
0030
00FE
ENDCHAR
STARTCHAR 0072
ENCODING 114
SWIDTH 375 0
DWIDTH 12 0
BBX 11 14 1 0
BITMAP
0880
FBC0
7BE0
3C40
3800
3800
3800
3800
3800
3800
3800
3800
3800
FF00
ENDCHAR
STARTCHAR 0073
ENCODING 115
SWIDTH 375 0
DWIDTH 12 0
BBX 9 14 1 0
BITMAP
0E00
3300
6180
6080
6000
7000
3C00
1F00
0780
0380
8180
C180
4300
7E00
ENDCHAR
STARTCHAR 0074
ENCODING 116
SWIDTH 312 0
DWIDTH 10 0
BBX 8 18 1 0
BITMAP
10
10
30
30
FF
FF
30
30
30
30
30
30
30
30
30
30
3F
1E
ENDCHAR
STARTCHAR 0075
ENCODING 117
SWIDTH 500 0
DWIDTH 16 0
BBX 15 14 0 0
BITMAP
0808
F87C
3818
1818
1818
1818
1818
1818
1818
1818
1818
1C38
1FDE
0F9C
ENDCHAR
STARTCHAR 0076
ENCODING 118
SWIDTH 468 0
DWIDTH 15 0
BBX 15 13 0 0
BITMAP
FC7E
3818
3810
1C30
1C20
0C20
0E60
0640
07C0
0780
0380
0300
0100
ENDCHAR
STARTCHAR 0077
ENCODING 119
SWIDTH 718 0
DWIDTH 23 0
BBX 23 13 0 0
BITMAP
FCFE7E
383810
383810
1C3C30
1C3C20
0C2C60
0E4E40
0E4640
07C7C0
078780
038380
030300
010300
ENDCHAR
STARTCHAR 0078
ENCODING 120
SWIDTH 468 0
DWIDTH 15 0
BBX 15 13 0 0
BITMAP
7EFC
1C20
0E60
0E40
0780
0380
0380
03C0
04C0
0CE0
0870
1878
FCFE
ENDCHAR
STARTCHAR 0079
ENCODING 121
SWIDTH 468 0
DWIDTH 15 0
BBX 15 20 0 -7
BITMAP
FC7E
3818
3810
1C30
1C20
0C20
0E40
0E40
07C0
0780
0380
0300
0300
0300
0200
0200
0400
0C00
7800
7000
ENDCHAR
STARTCHAR 007A
ENCODING 122
SWIDTH 437 0
DWIDTH 14 0
BBX 12 14 1 0
BITMAP
6070
7FE0
41E0
C1C0
0380
0700
0700
0E00
1C00
1C00
3810
7030
7060
FFE0
ENDCHAR
STARTCHAR 007B
ENCODING 123
SWIDTH 406 0
DWIDTH 13 0
BBX 3 36 5 -12
BITMAP
20
40
C0
80
80
80
80
C0
C0
E0
60
60
60
20
20
60
C0
80
C0
40
20
20
20
60
60
E0
E0
C0
C0
80
80
80
C0
40
60
20
ENDCHAR
STARTCHAR 007C
ENCODING 124
SWIDTH 187 0
DWIDTH 6 0
BBX 2 35 2 -12
BITMAP
C0
C0
C0
C0
C0
C0
C0
C0
C0
C0
C0
C0
C0
C0
C0
C0
C0
C0
C0
C0
C0
C0
C0
C0
C0
C0
C0
C0
C0
C0
C0
C0
C0
C0
C0
ENDCHAR
STARTCHAR 007D
ENCODING 125
SWIDTH 406 0
DWIDTH 13 0
BBX 4 36 4 -12
BITMAP
C0
60
20
30
10
10
30
30
70
60
60
E0
C0
40
40
40
20
10
30
60
40
40
C0
C0
60
60
70
30
30
10
10
10
20
20
40
C0
ENDCHAR
STARTCHAR 007E
ENCODING 126
SWIDTH 562 0
DWIDTH 18 0
BBX 14 3 2 8
BITMAP
3E04
FFCC
81F8
ENDCHAR
STARTCHAR 00A0
ENCODING 160
SWIDTH 281 0
DWIDTH 9 0
BBX 0 0 0 0
BITMAP
ENDCHAR
STARTCHAR 00A1
ENCODING 161
SWIDTH 218 0
DWIDTH 7 0
BBX 3 20 2 -7
BITMAP
E0
E0
E0
00
00
40
40
40
40
40
C0
C0
C0
E0
E0
E0
E0
E0
E0
C0
ENDCHAR
STARTCHAR 00A2
ENCODING 162
SWIDTH 437 0
DWIDTH 14 0
BBX 11 16 1 -1
BITMAP
0100
0180
0FE0
11E0
3100
6100
6200
6200
E200
E200
6200
7200
7C20
3FE0
0F80
0400
ENDCHAR
STARTCHAR 00A3
ENCODING 163
SWIDTH 468 0
DWIDTH 15 0
BBX 13 20 1 0
BITMAP
01C0
07E0
0C60
0C00
1800
1800
1800
1800
1C00
7FE0
1C00
1C00
0C00
0C00
1800
1000
3008
3C10
7FE0
87C0
ENDCHAR
STARTCHAR 00A4
ENCODING 164
SWIDTH 562 0
DWIDTH 18 0
BBX 14 13 2 3
BITMAP
6008
7FDC
3870
3070
7030
6038
6038
7038
3030
3030
7870
EFD8
4008
ENDCHAR
STARTCHAR 00A5
ENCODING 165
SWIDTH 656 0
DWIDTH 21 0
BBX 19 20 1 0
BITMAP
FF0FE0
3C0180
1C0100
0E0300
0E0200
070400
070400
038800
01C800
01D000
00F000
00E000
07FC00
00E000
00E000
07FC00
00E000
00E000
00E000
03FC00
ENDCHAR
STARTCHAR 00A6
ENCODING 166
SWIDTH 187 0
DWIDTH 6 0
BBX 2 35 2 -12
BITMAP
C0
C0
C0
C0
C0
C0
C0
C0
C0
C0
C0
C0
C0
C0
C0
80
00
00
00
40
C0
C0
C0
C0
C0
C0
C0
C0
C0
C0
C0
C0
C0
C0
C0
ENDCHAR
STARTCHAR 00A7
ENCODING 167
SWIDTH 437 0
DWIDTH 14 0
BBX 12 22 1 -2
BITMAP
07C0
0880
1000
3000
5800
5C00
CC00
CE00
C700
E380
71C0
30E0
3860
1C70
0E30
0720
03A0
01A0
01C0
0080
3100
3E00
ENDCHAR
STARTCHAR 00A8
ENCODING 168
SWIDTH 375 0
DWIDTH 12 0
BBX 8 2 2 15
BITMAP
C7
E7
ENDCHAR
STARTCHAR 00A9
ENCODING 169
SWIDTH 656 0
DWIDTH 21 0
BBX 17 17 2 2
BITMAP
07F000
180800
300600
600200
43F100
861100
8C1080
8C0080
8C0080
8C0080
8C1080
861100
43E100
600200
300400
0C1800
03E000
ENDCHAR
STARTCHAR 00AA
ENCODING 170
SWIDTH 343 0
DWIDTH 11 0
BBX 9 9 1 8
BITMAP
3E00
6600
4200
0600
1A00
6200
C200
6600
7B80
ENDCHAR
STARTCHAR 00AB
ENCODING 171
SWIDTH 406 0
DWIDTH 13 0
BBX 10 13 2 -1
BITMAP
1040
2180
4100
C200
8600
8600
8600
8600
8600
C200
4300
6180
10C0
ENDCHAR
STARTCHAR 00AC
ENCODING 172
SWIDTH 562 0
DWIDTH 18 0
BBX 15 8 1 5
BITMAP
7FFE
FFFE
0006
0006
0006
0006
0006
0006
ENDCHAR
STARTCHAR 00AD
ENCODING 173
SWIDTH 0 0
DWIDTH 0 0
BBX 0 0 0 0
BITMAP
ENDCHAR
STARTCHAR 00AE
ENCODING 174
SWIDTH 656 0
DWIDTH 21 0
BBX 17 17 2 4
BITMAP
07F000
180800
300600
480200
47C100
866100
866080
864080
878080
86C080
866080
863100
490900
600200
300400
0C1800
03E000
ENDCHAR
STARTCHAR 00AF
ENCODING 175
SWIDTH 343 0
DWIDTH 11 0
BBX 7 1 2 18
BITMAP
FE
ENDCHAR
STARTCHAR 00B0
ENCODING 176
SWIDTH 281 0
DWIDTH 9 0
BBX 6 6 1 14
BITMAP
38
6C
C4
84
C4
78
ENDCHAR
STARTCHAR 00B1
ENCODING 177
SWIDTH 531 0
DWIDTH 17 0
BBX 15 18 1 0
BITMAP
0100
0100
0100
0100
0100
0100
0100
FFFE
0100
0100
0100
0100
0100
0100
0100
0000
FFFE
FFFE
ENDCHAR
STARTCHAR 00B2
ENCODING 178
SWIDTH 343 0
DWIDTH 11 0
BBX 9 12 1 8
BITMAP
3E00
6700
4300
0300
0300
0600
0600
0C00
1800
3080
7F00
FF00
ENDCHAR
STARTCHAR 00B3
ENCODING 179
SWIDTH 312 0
DWIDTH 10 0
BBX 8 12 1 8
BITMAP
3C
4E
06
04
08
3E
06
03
03
02
C6
FC
ENDCHAR
STARTCHAR 00B4
ENCODING 180
SWIDTH 250 0
DWIDTH 8 0
BBX 5 5 2 17
BITMAP
10
38
70
E0
80
ENDCHAR
STARTCHAR 00B5
ENCODING 181
SWIDTH 531 0
DWIDTH 17 0
BBX 14 21 2 -7
BITMAP
4040
6060
6060
6060
6060
6040
6040
60C0
60C0
61C0
61C0
6364
5E3C
5C38
4000
4000
4000
C000
E000
E000
6000
ENDCHAR
STARTCHAR 00B6
ENCODING 182
SWIDTH 468 0
DWIDTH 15 0
BBX 13 20 1 0
BITMAP
1FF0
7E40
7E40
FE40
FE40
FE40
FE40
7E40
7E40
3E70
0FE0
0240
0240
0240
0240
0240
0240
0240
0240
0FF8
ENDCHAR
STARTCHAR 00B7
ENCODING 183
SWIDTH 281 0
DWIDTH 9 0
BBX 4 4 3 6
BITMAP
E0
F0
E0
40
ENDCHAR
STARTCHAR 00B8
ENCODING 184
SWIDTH 218 0
DWIDTH 7 0
BBX 4 5 2 -5
BITMAP
40
E0
30
20
C0
ENDCHAR
STARTCHAR 00B9
ENCODING 185
SWIDTH 281 0
DWIDTH 9 0
BBX 7 12 1 8
BITMAP
18
78
98
18
18
18
18
18
18
18
18
7E
ENDCHAR
STARTCHAR 00BA
ENCODING 186
SWIDTH 375 0
DWIDTH 12 0
BBX 10 9 1 8
BITMAP
3F00
6180
61C0
C0C0
C0C0
C0C0
6080
6180
3F00
ENDCHAR
STARTCHAR 00BB
ENCODING 187
SWIDTH 406 0
DWIDTH 13 0
BBX 10 13 2 -1
BITMAP
8400
C200
6100
2180
3080
30C0
10C0
10C0
3080
3080
6180
4300
8600
ENDCHAR
STARTCHAR 00BC
ENCODING 188
SWIDTH 687 0
DWIDTH 22 0
BBX 20 20 1 0
BITMAP
080180
380100
F00200
300200
300400
300C00
300800
301840
301040
3030C0
3821C0
7C43C0
0042C0
0084C0
0088C0
011FE0
031FF0
0200C0
0600C0
0C00C0
ENDCHAR
STARTCHAR 00BD
ENCODING 189
SWIDTH 718 0
DWIDTH 23 0
BBX 21 20 1 0
BITMAP
080180
380100
F80200
180200
180400
180C00
180800
181800
1811E0
183230
382430
7C4038
004030
008030
008060
010040
030080
020108
0603F8
0C07F0
ENDCHAR
STARTCHAR 00BE
ENCODING 190
SWIDTH 687 0
DWIDTH 22 0
BBX 20 20 1 0
BITMAP
3C0180
4E0100
060300
040200
080400
3C0400
060800
070840
031040
0230C0
C621C0
FC63C0
0042C0
00C4C0
0088C0
011FE0
011FF0
0200C0
0200C0
0400C0
ENDCHAR
STARTCHAR 00BF
ENCODING 191
SWIDTH 343 0
DWIDTH 11 0
BBX 8 20 1 -7
BITMAP
07
07
07
00
00
02
02
02
06
1E
3C
78
70
C0
C0
C0
40
27
1F
0F
ENDCHAR
STARTCHAR 00C0
ENCODING 192
SWIDTH 625 0
DWIDTH 20 0
BBX 20 27 0 0
BITMAP
030000
078000
01C000
006000
000000
000000
002000
006000
00E000
00F000
00F000
01B000
013800
013800
021800
021C00
061C00
040E00
07FE00
0C0600
080700
180700
100380
100380
300380
3001C0
FC07F0
ENDCHAR
STARTCHAR 00C1
ENCODING 193
SWIDTH 625 0
DWIDTH 20 0
BBX 20 27 0 0
BITMAP
000C00
001C00
003800
006000
008000
000000
002000
006000
00E000
00F000
00F000
01B000
013800
013800
021800
021C00
061C00
040E00
07FE00
0C0600
080700
180700
100380
100380
300380
3001C0
FC07F0
ENDCHAR
STARTCHAR 00C2
ENCODING 194
SWIDTH 625 0
DWIDTH 20 0
BBX 20 27 0 0
BITMAP
002000
007000
00F800
010C00
000000
000000
002000
006000
00E000
00F000
00F000
01B000
013800
013800
021800
021C00
061C00
040E00
07FE00
0C0600
080700
180700
100380
100380
300380
3001C0
FC07F0
ENDCHAR
STARTCHAR 00C3
ENCODING 195
SWIDTH 625 0
DWIDTH 20 0
BBX 20 26 0 0
BITMAP
008000
03E200
023C00
000000
000000
002000
006000
00E000
00F000
00F000
01B000
013800
013800
021800
021C00
061C00
040E00
07FE00
0C0600
080700
180700
100380
100380
300380
3001C0
FC07F0
ENDCHAR
STARTCHAR 00C4
ENCODING 196
SWIDTH 625 0
DWIDTH 20 0
BBX 20 26 0 0
BITMAP
038C00
039E00
010C00
000000
000000
002000
006000
00E000
00F000
00F000
01B000
013800
013800
021800
021C00
061C00
040E00
07FE00
0C0600
080700
180700
100380
100380
300380
3001C0
FC07F0
ENDCHAR
STARTCHAR 00C5
ENCODING 197
SWIDTH 625 0
DWIDTH 20 0
BBX 20 26 0 0
BITMAP
00F000
019800
010800
019800
00F000
002000
006000
00E000
00F000
00F000
01B000
013800
013800
021800
021C00
061C00
040E00
07FE00
0C0600
080700
180700
100380
100380
300380
3001C0
FC07F0
ENDCHAR
STARTCHAR 00C6
ENCODING 198
SWIDTH 875 0
DWIDTH 28 0
BBX 27 21 0 0
BITMAP
001FFF80
000FFF80
000F0080
000F0080
001F0040
00170000
00270000
00670000
00470300
00C70300
0087FF00
01070300
03FF0300
02070100
06070000
0C070000
08070020
18070060
30070040
700701C0
FC1FFFC0
ENDCHAR
STARTCHAR 00C7
ENCODING 199
SWIDTH 656 0
DWIDTH 21 0
BBX 18 26 2 -5
BITMAP
01FE00
070780
1C0180
380180
300080
700080
E00000
E00000
E00000
E00000
E00000
E00000
E00000
E00000
E00000
700040
7000C0
380080
1C0180
0F0380
03FE00
004000
007000
001000
001000
00F000
ENDCHAR
STARTCHAR 00C8
ENCODING 200
SWIDTH 562 0
DWIDTH 18 0
BBX 16 27 1 0
BITMAP
0C00
0E00
0700
01C0
0000
0000
FFFC
3FFC
1C06
1802
1802
1800
1800
1800
1808
1818
1FF8
1C18
1808
1808
1800
1800
1801
1801
1803
1C0E
FFFE
ENDCHAR
STARTCHAR 00C9
ENCODING 201
SWIDTH 562 0
DWIDTH 18 0
BBX 16 27 1 0
BITMAP
0038
0078
00E0
0180
0000
0000
FFFC
3FFC
1C06
1802
1802
1800
1800
1800
1808
1818
1FF8
1C18
1808
1808
1800
1800
1801
1801
1803
1C0E
FFFE
ENDCHAR
STARTCHAR 00CA
ENCODING 202
SWIDTH 562 0
DWIDTH 18 0
BBX 16 27 1 0
BITMAP
0080
01C0
0360
0610
0000
0000
FFFC
3FFC
1C06
1802
1802
1800
1800
1800
1808
1818
1FF8
1C18
1808
1808
1800
1800
1801
1801
1803
1C0E
FFFE
ENDCHAR
STARTCHAR 00CB
ENCODING 203
SWIDTH 562 0
DWIDTH 18 0
BBX 16 26 1 0
BITMAP
0E30
0E38
0430
0000
0000
FFFC
3FFC
1C06
1802
1802
1800
1800
1800
1808
1818
1FF8
1C18
1808
1808
1800
1800
1801
1801
1803
1C0E
FFFE
ENDCHAR
STARTCHAR 00CC
ENCODING 204
SWIDTH 312 0
DWIDTH 10 0
BBX 8 27 1 0
BITMAP
E0
F0
38
0C
00
00
FF
3C
1C
18
18
18
18
18
18
18
18
18
18
18
18
18
18
18
18
1C
FF
ENDCHAR
STARTCHAR 00CD
ENCODING 205
SWIDTH 312 0
DWIDTH 10 0
BBX 8 27 1 0
BITMAP
03
07
0E
18
00
00
FF
3C
1C
18
18
18
18
18
18
18
18
18
18
18
18
18
18
18
18
1C
FF
ENDCHAR
STARTCHAR 00CE
ENCODING 206
SWIDTH 312 0
DWIDTH 10 0
BBX 8 26 1 0
BITMAP
08
1C
36
43
00
FF
3C
1C
18
18
18
18
18
18
18
18
18
18
18
18
18
18
18
18
1C
FF
ENDCHAR
STARTCHAR 00CF
ENCODING 207
SWIDTH 312 0
DWIDTH 10 0
BBX 9 26 1 0
BITMAP
E300
E380
4300
0000
0000
FF00
3C00
1C00
1800
1800
1800
1800
1800
1800
1800
1800
1800
1800
1800
1800
1800
1800
1800
1800
1C00
FF00
ENDCHAR
STARTCHAR 00D0
ENCODING 208
SWIDTH 687 0
DWIDTH 22 0
BBX 20 21 1 0
BITMAP
FF8000
3EFC00
1C0F00
1C0380
1C01C0
1C01C0
1C00E0
1C00E0
1C00E0
1C00F0
FFC0F0
1C00F0
1C00E0
1C00E0
1C00E0
1C00E0
1C01C0
1C0380
1C0780
1C0E00
FFF800
ENDCHAR
STARTCHAR 00D1
ENCODING 209
SWIDTH 750 0
DWIDTH 24 0
BBX 22 26 1 0
BITMAP
008000
01F200
023C00
000000
000000
FC01FC
3E0070
1E0030
170030
178030
13C030
11E030
10F030
107030
107830
103C30
101E30
100F30
100730
1007B0
1003F0
1001F0
1000F0
100070
180070
FE0030
ENDCHAR
STARTCHAR 00D2
ENCODING 210
SWIDTH 718 0
DWIDTH 23 0
BBX 20 27 2 0
BITMAP
070000
078000
01C000
006000
000000
000000
01F000
061E00
1C0700
380380
7001C0
6001E0
E000E0
E000E0
E000F0
E00070
E00070
E00070
E00070
E00060
E000E0
7000E0
7000C0
380180
1C0380
0E0600
03FC00
ENDCHAR
STARTCHAR 00D3
ENCODING 211
SWIDTH 718 0
DWIDTH 23 0
BBX 20 27 2 0
BITMAP
001800
003C00
007000
00C000
000000
000000
01F000
061E00
1C0700
380380
7001C0
6001E0
E000E0
E000E0
E000F0
E00070
E00070
E00070
E00070
E00060
E000E0
7000E0
7000C0
380180
1C0380
0E0600
03FC00
ENDCHAR
STARTCHAR 00D4
ENCODING 212
SWIDTH 718 0
DWIDTH 23 0
BBX 20 27 2 0
BITMAP
004000
00E000
01B000
030800
000000
000000
01F000
061E00
1C0700
380380
7001C0
6001E0
E000E0
E000E0
E000F0
E00070
E00070
E00070
E00070
E00060
E000E0
7000E0
7000C0
380180
1C0380
0E0600
03FC00
ENDCHAR
STARTCHAR 00D5
ENCODING 213
SWIDTH 718 0
DWIDTH 23 0
BBX 20 26 2 0
BITMAP
008000
03E400
047800
000000
000000
01F000
061E00
1C0700
380380
7001C0
6001E0
E000E0
E000E0
E000F0
E00070
E00070
E00070
E00070
E00060
E000E0
7000E0
7000C0
380180
1C0380
0E0600
03FC00
ENDCHAR
STARTCHAR 00D6
ENCODING 214
SWIDTH 718 0
DWIDTH 23 0
BBX 20 26 2 0
BITMAP
071C00
071C00
030800
000000
000000
01F000
061E00
1C0700
380380
7001C0
6001E0
E000E0
E000E0
E000F0
E00070
E00070
E00070
E00070
E00060
E000E0
7000E0
7000C0
380180
1C0380
0E0600
03FC00
ENDCHAR
STARTCHAR 00D7
ENCODING 215
SWIDTH 468 0
DWIDTH 15 0
BBX 11 11 2 2
BITMAP
C060
E0C0
7180
3B00
1E00
0E00
1F00
3380
61C0
C0E0
8060
ENDCHAR
STARTCHAR 00D8
ENCODING 216
SWIDTH 718 0
DWIDTH 23 0
BBX 20 21 2 0
BITMAP
01F180
061F00
1C0700
380380
7005C0
600DE0
E008E0
E010E0
E030F0
E02070
E04070
E0C070
E08070
E18060
E100E0
7200E0
7600C0
3C0180
1C0380
1E0600
13FC00
ENDCHAR
STARTCHAR 00D9
ENCODING 217
SWIDTH 718 0
DWIDTH 23 0
BBX 21 27 1 0
BITMAP
018000
03C000
00E000
003000
000000
000000
FE03F8
3800E0
380040
380040
380040
380040
380040
380040
380040
380040
380040
380040
380040
380040
380040
3800C0
1C00C0
1C0180
0F0380
07FF00
01FC00
ENDCHAR
STARTCHAR 00DA
ENCODING 218
SWIDTH 718 0
DWIDTH 23 0
BBX 21 27 1 0
BITMAP
000600
000E00
001C00
003000
004000
000000
FE03F8
3800E0
380040
380040
380040
380040
380040
380040
380040
380040
380040
380040
380040
380040
380040
3800C0
1C00C0
1C0180
0F0380
07FF00
01FC00
ENDCHAR
STARTCHAR 00DB
ENCODING 219
SWIDTH 718 0
DWIDTH 23 0
BBX 21 27 1 0
BITMAP
002000
007000
00D800
010C00
000000
000000
FE03F8
3800E0
380040
380040
380040
380040
380040
380040
380040
380040
380040
380040
380040
380040
380040
3800C0
1C00C0
1C0180
0F0380
07FF00
01FC00
ENDCHAR
STARTCHAR 00DC
ENCODING 220
SWIDTH 718 0
DWIDTH 23 0
BBX 21 26 1 0
BITMAP
038E00
038E00
010400
000000
000000
FE03F8
3800E0
380040
380040
380040
380040
380040
380040
380040
380040
380040
380040
380040
380040
380040
3800C0
1C00C0
1C0180
0F0380
07FF00
01FC00
ENDCHAR
STARTCHAR 00DD
ENCODING 221
SWIDTH 593 0
DWIDTH 19 0
BBX 19 27 0 0
BITMAP
000E00
001E00
003800
006000
000000
000000
FF0FE0
7C0380
3C0300
1C0200
0E0200
0E0400
070400
038800
038800
01D000
01F000
00E000
00E000
00E000
00E000
00E000
00E000
00E000
00E000
00E000
03F800
ENDCHAR
STARTCHAR 00DE
ENCODING 222
SWIDTH 531 0
DWIDTH 17 0
BBX 15 21 1 0
BITMAP
FF00
3C00
1C00
1800
1800
1BE0
1E78
1C1C
1C0E
180E
180E
180E
180E
180E
181C
1838
19E0
1800
1800
1C00
FF00
ENDCHAR
STARTCHAR 00DF
ENCODING 223
SWIDTH 531 0
DWIDTH 17 0
BBX 15 22 1 0
BITMAP
0100
06E0
0830
1838
1818
3038
3030
3030
7040
F080
3180
3180
31C0
31E0
30F8
307C
301E
300E
3006
3086
39CC
FEF8
ENDCHAR
STARTCHAR 00E0
ENCODING 224
SWIDTH 406 0
DWIDTH 13 0
BBX 12 21 1 0
BITMAP
3000
3800
1800
0C00
0600
0000
0000
0200
1F80
6180
61C0
60C0
00C0
03C0
0CC0
70C0
E0C0
E0C0
E1C0
7EF0
3CE0
ENDCHAR
STARTCHAR 00E1
ENCODING 225
SWIDTH 406 0
DWIDTH 13 0
BBX 12 21 1 0
BITMAP
0100
0380
0700
0600
0800
0000
0000
0200
1F80
6180
61C0
60C0
00C0
03C0
0CC0
70C0
E0C0
E0C0
E1C0
7EF0
3CE0
ENDCHAR
STARTCHAR 00E2
ENCODING 226
SWIDTH 406 0
DWIDTH 13 0
BBX 12 20 1 0
BITMAP
0600
0600
0B00
1080
0000
0000
0200
1F80
6180
61C0
60C0
00C0
03C0
0CC0
70C0
E0C0
E0C0
E1C0
7EF0
3CE0
ENDCHAR
STARTCHAR 00E3
ENCODING 227
SWIDTH 406 0
DWIDTH 13 0
BBX 12 18 1 0
BITMAP
3C40
2780
0000
0000
0200
1F80
6180
61C0
60C0
00C0
03C0
0CC0
70C0
E0C0
E0C0
E1C0
7EF0
3CE0
ENDCHAR
STARTCHAR 00E4
ENCODING 228
SWIDTH 406 0
DWIDTH 13 0
BBX 12 18 1 0
BITMAP
71C0
71C0
0000
0000
0200
1F80
6180
61C0
60C0
00C0
03C0
0CC0
70C0
E0C0
E0C0
E1C0
7EF0
3CE0
ENDCHAR
STARTCHAR 00E5
ENCODING 229
SWIDTH 406 0
DWIDTH 13 0
BBX 12 21 1 0
BITMAP
0F00
1900
1080
1980
0F00
0000
0000
0200
1F80
6180
61C0
60C0
00C0
03C0
0CC0
70C0
E0C0
E0C0
E1C0
7EF0
3CE0
ENDCHAR
STARTCHAR 00E6
ENCODING 230
SWIDTH 625 0
DWIDTH 20 0
BBX 18 14 1 0
BITMAP
060C00
1FB780
61E180
61C1C0
61C1C0
01FFC0
038000
1D8000
71C000
E1C000
E0E000
E1F040
7E7F80
3C3F00
ENDCHAR
STARTCHAR 00E7
ENCODING 231
SWIDTH 406 0
DWIDTH 13 0
BBX 11 19 1 -5
BITMAP
0380
0FE0
10E0
2000
6000
6000
E000
E000
E000
E000
7000
7820
3FC0
1F80
0200
0700
0180
0100
0600
ENDCHAR
STARTCHAR 00E8
ENCODING 232
SWIDTH 406 0
DWIDTH 13 0
BBX 11 21 1 0
BITMAP
1000
3800
1C00
0C00
0200
0000
0000
0600
1BC0
30C0
60E0
60E0
7FE0
C000
E000
E000
E000
7000
7820
3FC0
1F80
ENDCHAR
STARTCHAR 00E9
ENCODING 233
SWIDTH 406 0
DWIDTH 13 0
BBX 11 21 1 0
BITMAP
0080
01C0
0380
0700
0400
0800
0000
0600
1BC0
30C0
60E0
60E0
7FE0
C000
E000
E000
E000
7000
7820
3FC0
1F80
ENDCHAR
STARTCHAR 00EA
ENCODING 234
SWIDTH 406 0
DWIDTH 13 0
BBX 11 20 1 0
BITMAP
0600
0600
0B00
1080
0000
0000
0600
1BC0
30C0
60E0
60E0
7FE0
C000
E000
E000
E000
7000
7820
3FC0
1F80
ENDCHAR
STARTCHAR 00EB
ENCODING 235
SWIDTH 406 0
DWIDTH 13 0
BBX 11 18 1 0
BITMAP
38C0
38E0
0000
0000
0600
1BC0
30C0
60E0
60E0
7FE0
C000
E000
E000
E000
7000
7820
3FC0
1F80
ENDCHAR
STARTCHAR 00EC
ENCODING 236
SWIDTH 250 0
DWIDTH 8 0
BBX 7 21 1 0
BITMAP
80
C0
E0
30
10
08
00
08
F8
78
38
38
38
38
38
38
38
38
38
38
FE
ENDCHAR
STARTCHAR 00ED
ENCODING 237
SWIDTH 250 0
DWIDTH 8 0
BBX 7 21 1 0
BITMAP
04
0E
1C
18
20
00
00
08
F8
78
38
38
38
38
38
38
38
38
38
38
FE
ENDCHAR
STARTCHAR 00EE
ENCODING 238
SWIDTH 250 0
DWIDTH 8 0
BBX 7 20 1 0
BITMAP
18
38
2C
42
00
00
08
F8
78
38
38
38
38
38
38
38
38
38
38
FE
ENDCHAR
STARTCHAR 00EF
ENCODING 239
SWIDTH 250 0
DWIDTH 8 0
BBX 8 19 0 0
BITMAP
42
E7
E7
00
00
04
7C
3C
1C
1C
1C
1C
1C
1C
1C
1C
1C
1C
7F
ENDCHAR
STARTCHAR 00F0
ENCODING 240
SWIDTH 500 0
DWIDTH 16 0
BBX 13 22 1 0
BITMAP
4040
38C0
0F00
0700
1980
30C0
00E0
0060
0770
18F0
3078
6038
6038
E018
E018
E018
E018
6018
7038
7030
3860
0FC0
ENDCHAR
STARTCHAR 00F1
ENCODING 241
SWIDTH 531 0
DWIDTH 17 0
BBX 15 18 1 0
BITMAP
0F20
11E0
0000
0000
08E0
FBF0
7C78
3838
3838
3818
3818
3818
3818
3818
3818
3818
3818
FEFE
ENDCHAR
STARTCHAR 00F2
ENCODING 242
SWIDTH 500 0
DWIDTH 16 0
BBX 14 21 1 0
BITMAP
0400
0E00
0600
0300
0180
0000
0000
0780
1DE0
3070
7038
6038
E018
E01C
E01C
E01C
6018
7018
7030
3860
0FC0
ENDCHAR
STARTCHAR 00F3
ENCODING 243
SWIDTH 500 0
DWIDTH 16 0
BBX 14 21 1 0
BITMAP
0040
00E0
01C0
0180
0200
0000
0000
0780
1DE0
3070
7038
6038
E018
E01C
E01C
E01C
6018
7018
7030
3860
0FC0
ENDCHAR
STARTCHAR 00F4
ENCODING 244
SWIDTH 500 0
DWIDTH 16 0
BBX 14 20 1 0
BITMAP
0300
0300
0680
0840
0000
0000
0780
1DE0
3070
7038
6038
E018
E01C
E01C
E01C
6018
7018
7030
3860
0FC0
ENDCHAR
STARTCHAR 00F5
ENCODING 245
SWIDTH 500 0
DWIDTH 16 0
BBX 14 18 1 0
BITMAP
0F20
13C0
0000
0000
0780
1DE0
3070
7038
6038
E018
E01C
E01C
E01C
6018
7018
7030
3860
0FC0
ENDCHAR
STARTCHAR 00F6
ENCODING 246
SWIDTH 500 0
DWIDTH 16 0
BBX 14 18 1 0
BITMAP
18E0
1CE0
0000
0000
0780
1DE0
3070
7038
6038
E018
E01C
E01C
E01C
6018
7018
7030
3860
0FC0
ENDCHAR
STARTCHAR 00F7
ENCODING 247
SWIDTH 593 0
DWIDTH 19 0
BBX 15 15 2 0
BITMAP
0380
0380
0100
0000
0000
0000
FFFE
FFFE
0000
0000
0000
0000
0380
0380
0100
ENDCHAR
STARTCHAR 00F8
ENCODING 248
SWIDTH 500 0
DWIDTH 16 0
BBX 14 14 1 0
BITMAP
07A0
1DE0
3070
7078
60B8
6198
E11C
E21C
E61C
6418
7818
7830
3860
3FC0
ENDCHAR
STARTCHAR 00F9
ENCODING 249
SWIDTH 500 0
DWIDTH 16 0
BBX 15 21 0 0
BITMAP
0400
0E00
0600
0300
0180
0000
0000
0808
F87C
3818
1818
1818
1818
1818
1818
1818
1818
1818
1C38
1FDE
0F9C
ENDCHAR
STARTCHAR 00FA
ENCODING 250
SWIDTH 500 0
DWIDTH 16 0
BBX 15 21 0 0
BITMAP
0020
0070
0060
00C0
0180
0000
0000
0808
F87C
3818
1818
1818
1818
1818
1818
1818
1818
1818
1C38
1FDE
0F9C
ENDCHAR
STARTCHAR 00FB
ENCODING 251
SWIDTH 500 0
DWIDTH 16 0
BBX 15 20 0 0
BITMAP
0180
0180
02C0
0420
0000
0000
0808
F87C
3818
1818
1818
1818
1818
1818
1818
1818
1818
1C38
1FDE
0F9C
ENDCHAR
STARTCHAR 00FC
ENCODING 252
SWIDTH 500 0
DWIDTH 16 0
BBX 15 18 0 0
BITMAP
1C70
1C70
0000
0000
0808
F87C
3818
1818
1818
1818
1818
1818
1818
1818
1818
1C38
1FDE
0F9C
ENDCHAR
STARTCHAR 00FD
ENCODING 253
SWIDTH 468 0
DWIDTH 15 0
BBX 15 28 0 -7
BITMAP
0010
0030
0060
00C0
0080
0100
0000
0000
FC7E
3818
3810
1C30
1C20
0C20
0E40
0E40
07C0
0780
0380
0300
0300
0300
0200
0200
0400
0C00
7800
7000
ENDCHAR
STARTCHAR 00FE
ENCODING 254
SWIDTH 468 0
DWIDTH 15 0
BBX 14 29 0 -7
BITMAP
0800
F800
7800
3800
3800
3800
3800
3800
38C0
3BF0
3C78
3838
381C
381C
380C
380C
380C
381C
3818
3810
3C20
3FC0
3800
3800
3800
3800
3800
3800
FE00
ENDCHAR
STARTCHAR 00FF
ENCODING 255
SWIDTH 468 0
DWIDTH 15 0
BBX 15 25 0 -7
BITMAP
0C70
0C70
0000
0000
0000
FC7E
3818
3810
1C30
1C20
0C20
0E40
0E40
07C0
0780
0380
0300
0300
0300
0200
0200
0400
0C00
7800
7000
ENDCHAR
STARTCHAR 0100
ENCODING 256
SWIDTH 625 0
DWIDTH 20 0
BBX 20 25 0 0
BITMAP
03FC00
000000
000000
000000
002000
006000
00E000
00F000
00F000
01B000
013800
013800
021800
021C00
061C00
040E00
07FE00
0C0600
080700
180700
100380
100380
300380
3001C0
FC07F0
ENDCHAR
STARTCHAR 0101
ENCODING 257
SWIDTH 406 0
DWIDTH 13 0
BBX 12 18 1 0
BITMAP
3F80
0000
0000
0000
0200
1F80
6180
61C0
60C0
00C0
03C0
0CC0
70C0
E0C0
E0C0
E1C0
7EF0
3CE0
ENDCHAR
STARTCHAR 0102
ENCODING 258
SWIDTH 625 0
DWIDTH 20 0
BBX 20 26 0 0
BITMAP
010400
019800
00F000
000000
000000
002000
006000
00E000
00F000
00F000
01B000
013800
013800
021800
021C00
061C00
040E00
07FE00
0C0600
080700
180700
100380
100380
300380
3001C0
FC07F0
ENDCHAR
STARTCHAR 0103
ENCODING 259
SWIDTH 406 0
DWIDTH 13 0
BBX 12 19 1 0
BITMAP
2080
1180
1F00
0000
0000
0200
1F80
6180
61C0
60C0
00C0
03C0
0CC0
70C0
E0C0
E0C0
E1C0
7EF0
3CE0
ENDCHAR
STARTCHAR 0104
ENCODING 260
SWIDTH 625 0
DWIDTH 20 0
BBX 20 28 0 -7
BITMAP
002000
006000
00E000
00F000
00F000
01B000
013800
013800
021800
021C00
061C00
040E00
07FE00
0C0600
080700
180700
100380
100380
300380
3001C0
FC07F0
000180
000300
000600
000400
000440
0007C0
000700
ENDCHAR
STARTCHAR 0105
ENCODING 261
SWIDTH 406 0
DWIDTH 13 0
BBX 12 21 1 -7
BITMAP
0200
1F80
6180
61C0
60C0
00C0
03C0
0CC0
70C0
E0C0
E0C0
E1C0
7EF0
3CE0
00C0
0180
0300
0200
0220
03E0
0380
ENDCHAR
STARTCHAR 0106
ENCODING 262
SWIDTH 656 0
DWIDTH 21 0
BBX 19 27 1 0
BITMAP
000700
000F00
001C00
003000
000000
000000
00FF00
0383C0
0E00C0
1C00C0
180040
380040
700000
700000
700000
700000
F00000
700000
700000
700000
700000
380020
380060
1C0040
0E00C0
0781C0
01FF00
ENDCHAR
STARTCHAR 0107
ENCODING 263
SWIDTH 406 0
DWIDTH 13 0
BBX 11 21 1 0
BITMAP
00C0
01C0
0180
0300
0600
0000
0000
0380
0FE0
10E0
2000
6000
6000
E000
E000
E000
E000
7000
7820
3FC0
1F80
ENDCHAR
STARTCHAR 0108
ENCODING 264
SWIDTH 656 0
DWIDTH 21 0
BBX 19 27 1 0
BITMAP
001000
003800
006C00
008600
000000
000000
00FF00
0383C0
0E00C0
1C00C0
180040
380040
700000
700000
700000
700000
F00000
700000
700000
700000
700000
380020
380060
1C0040
0E00C0
0781C0
01FF00
ENDCHAR
STARTCHAR 0109
ENCODING 265
SWIDTH 406 0
DWIDTH 13 0
BBX 11 20 1 0
BITMAP
0200
0700
0D80
0880
1040
0000
0380
0FE0
10E0
2000
6000
6000
E000
E000
E000
E000
7000
7820
3FC0
1F80
ENDCHAR
STARTCHAR 010A
ENCODING 266
SWIDTH 656 0
DWIDTH 21 0
BBX 19 26 1 0
BITMAP
002000
007800
003000
000000
000000
00FF00
0383C0
0E00C0
1C00C0
180040
380040
700000
700000
700000
700000
F00000
700000
700000
700000
700000
380020
380060
1C0040
0E00C0
0781C0
01FF00
ENDCHAR
STARTCHAR 010B
ENCODING 267
SWIDTH 406 0
DWIDTH 13 0
BBX 11 20 1 0
BITMAP
0200
0700
0700
0000
0000
0000
0380
0FE0
10E0
2000
6000
6000
E000
E000
E000
E000
7000
7820
3FC0
1F80
ENDCHAR
STARTCHAR 010C
ENCODING 268
SWIDTH 656 0
DWIDTH 21 0
BBX 19 27 1 0
BITMAP
010200
00CC00
007800
003000
000000
000000
00FF00
0383C0
0E00C0
1C00C0
180040
380040
700000
700000
700000
700000
F00000
700000
700000
700000
700000
380020
380060
1C0040
0E00C0
0781C0
01FF00
ENDCHAR
STARTCHAR 010D
ENCODING 269
SWIDTH 406 0
DWIDTH 13 0
BBX 11 20 1 0
BITMAP
1840
0480
0700
0300
0000
0000
0380
0FE0
10E0
2000
6000
6000
E000
E000
E000
E000
7000
7820
3FC0
1F80
ENDCHAR
STARTCHAR 010E
ENCODING 270
SWIDTH 687 0
DWIDTH 22 0
BBX 20 27 1 0
BITMAP
020800
013000
00E000
004000
000000
000000
FF8000
3EFC00
1C0F00
1C0380
1C01C0
1C01C0
1C00E0
1C00E0
1C00E0
1C00F0
1C00F0
1C00F0
1C00E0
1C00E0
1C00E0
1C00E0
1C01C0
1C0380
1C0780
1C0E00
FFF800
ENDCHAR
STARTCHAR 010F
ENCODING 271
SWIDTH 531 0
DWIDTH 17 0
BBX 18 22 1 0
BITMAP
000980
00F9C0
007180
003080
003080
003100
003100
003000
03B000
0FF000
103000
303000
603000
603000
E03000
E03000
E03000
E03000
703000
783000
3FFE00
1F3800
ENDCHAR
STARTCHAR 0110
ENCODING 272
SWIDTH 687 0
DWIDTH 22 0
BBX 20 21 1 0
BITMAP
FF8000
3EFC00
1C0F00
1C0380
1C01C0
1C01C0
1C00E0
1C00E0
1C00E0
1C00F0
FFC0F0
1C00F0
1C00E0
1C00E0
1C00E0
1C00E0
1C01C0
1C0380
1C0780
1C0E00
FFF800
ENDCHAR
STARTCHAR 0111
ENCODING 273
SWIDTH 500 0
DWIDTH 16 0
BBX 15 22 1 0
BITMAP
0008
00F8
0070
0030
03FC
03FC
0030
0030
03B0
0FF0
1030
3030
6030
6030
E030
E030
E030
E030
7030
7830
3FFE
1F38
ENDCHAR
STARTCHAR 0112
ENCODING 274
SWIDTH 562 0
DWIDTH 18 0
BBX 16 25 1 0
BITMAP
1FE0
0000
0000
0000
FFFC
3FFC
1C06
1802
1802
1800
1800
1800
1808
1818
1FF8
1C18
1808
1808
1800
1800
1801
1801
1803
1C0E
FFFE
ENDCHAR
STARTCHAR 0113
ENCODING 275
SWIDTH 406 0
DWIDTH 13 0
BBX 11 18 1 0
BITMAP
3F80
0000
0000
0000
0600
1BC0
30C0
60E0
60E0
7FE0
C000
E000
E000
E000
7000
7820
3FC0
1F80
ENDCHAR
STARTCHAR 0114
ENCODING 276
SWIDTH 562 0
DWIDTH 18 0
BBX 16 26 1 0
BITMAP
0410
0660
03C0
0000
0000
FFFC
3FFC
1C06
1802
1802
1800
1800
1800
1808
1818
1FF8
1C18
1808
1808
1800
1800
1801
1801
1803
1C0E
FFFE
ENDCHAR
STARTCHAR 0115
ENCODING 277
SWIDTH 406 0
DWIDTH 13 0
BBX 11 19 1 0
BITMAP
1040
08C0
0F80
0000
0000
0600
1BC0
30C0
60E0
60E0
7FE0
C000
E000
E000
E000
7000
7820
3FC0
1F80
ENDCHAR
STARTCHAR 0116
ENCODING 278
SWIDTH 562 0
DWIDTH 18 0
BBX 16 26 1 0
BITMAP
0180
01C0
01C0
0000
0000
FFFC
3FFC
1C06
1802
1802
1800
1800
1800
1808
1818
1FF8
1C18
1808
1808
1800
1800
1801
1801
1803
1C0E
FFFE
ENDCHAR
STARTCHAR 0117
ENCODING 279
SWIDTH 406 0
DWIDTH 13 0
BBX 11 20 1 0
BITMAP
0200
0700
0700
0000
0000
0000
0600
1BC0
30C0
60E0
60E0
7FE0
C000
E000
E000
E000
7000
7820
3FC0
1F80
ENDCHAR
STARTCHAR 0118
ENCODING 280
SWIDTH 562 0
DWIDTH 18 0
BBX 16 28 1 -7
BITMAP
FFFC
3FFC
1C06
1802
1802
1800
1800
1800
1808
1818
1FF8
1C18
1808
1808
1800
1800
1801
1801
1803
1C0E
FFFE
0008
0010
0020
0060
0062
007C
0038
ENDCHAR
STARTCHAR 0119
ENCODING 281
SWIDTH 406 0
DWIDTH 13 0
BBX 11 21 1 -7
BITMAP
0600
1BC0
30C0
60E0
60E0
7FE0
C000
E000
E000
E000
7000
7820
3FC0
1F80
0100
0200
0200
0400
0620
07C0
0380
ENDCHAR
STARTCHAR 011A
ENCODING 282
SWIDTH 562 0
DWIDTH 18 0
BBX 16 27 1 0
BITMAP
0410
0320
01C0
0080
0000
0000
FFFC
3FFC
1C06
1802
1802
1800
1800
1800
1808
1818
1FF8
1C18
1808
1808
1800
1800
1801
1801
1803
1C0E
FFFE
ENDCHAR
STARTCHAR 011B
ENCODING 283
SWIDTH 406 0
DWIDTH 13 0
BBX 11 20 1 0
BITMAP
18C0
0D80
0700
0200
0000
0000
0600
1BC0
30C0
60E0
60E0
7FE0
C000
E000
E000
E000
7000
7820
3FC0
1F80
ENDCHAR
STARTCHAR 011C
ENCODING 284
SWIDTH 718 0
DWIDTH 23 0
BBX 21 27 1 0
BITMAP
001000
003000
007800
018600
000000
000000
00FF00
0383C0
0E00C0
1C00C0
180040
380040
700000
700000
700000
700000
F00000
700000
7007F8
7000C0
7000C0
3800C0
3800C0
1C00C0
0E00E0
0781C0
01FF00
ENDCHAR
STARTCHAR 011D
ENCODING 285
SWIDTH 468 0
DWIDTH 15 0
BBX 13 28 1 -7
BITMAP
0600
0600
0D00
1080
0000
0000
0000
0E00
39F8
70C0
60E0
6060
6060
60E0
70C0
3980
3E00
6000
E000
7FE0
3FF8
3078
6018
C018
C010
E020
70C0
3F00
ENDCHAR
STARTCHAR 011E
ENCODING 286
SWIDTH 718 0
DWIDTH 23 0
BBX 21 26 1 0
BITMAP
010400
00CC00
007800
000000
000000
00FF00
0383C0
0E00C0
1C00C0
180040
380040
700000
700000
700000
700000
F00000
700000
7007F8
7000C0
7000C0
3800C0
3800C0
1C00C0
0E00E0
0781C0
01FF00
ENDCHAR
STARTCHAR 011F
ENCODING 287
SWIDTH 468 0
DWIDTH 15 0
BBX 13 26 1 -7
BITMAP
1040
1880
0F80
0000
0000
0E00
39F8
70C0
60E0
6060
6060
60E0
70C0
3980
3E00
6000
E000
7FE0
3FF8
3078
6018
C018
C010
E020
70C0
3F00
ENDCHAR
STARTCHAR 0120
ENCODING 288
SWIDTH 718 0
DWIDTH 23 0
BBX 21 26 1 0
BITMAP
002000
007800
003000
000000
000000
00FF00
0383C0
0E00C0
1C00C0
180040
380040
700000
700000
700000
700000
F00000
700000
7007F8
7000C0
7000C0
3800C0
3800C0
1C00C0
0E00E0
0781C0
01FF00
ENDCHAR
STARTCHAR 0121
ENCODING 289
SWIDTH 468 0
DWIDTH 15 0
BBX 13 27 1 -7
BITMAP
0200
0700
0700
0000
0000
0000
0E00
39F8
70C0
60E0
6060
6060
60E0
70C0
3980
3E00
6000
E000
7FE0
3FF8
3078
6018
C018
C010
E020
70C0
3F00
ENDCHAR
STARTCHAR 0122
ENCODING 290
SWIDTH 718 0
DWIDTH 23 0
BBX 21 28 1 -7
BITMAP
00FF00
0383C0
0E00C0
1C00C0
180040
380040
700000
700000
700000
700000
F00000
700000
7007F8
7000C0
7000C0
3800C0
3800C0
1C00C0
0E00E0
0781C0
01FF00
000000
001000
007000
007000
003000
002000
004000
ENDCHAR
STARTCHAR 0123
ENCODING 291
SWIDTH 468 0
DWIDTH 15 0
BBX 13 28 1 -7
BITMAP
0300
0600
0600
0700
0600
0000
0000
0E00
39F8
70C0
60E0
6060
6060
60E0
70C0
3980
3E00
6000
E000
7FE0
3FF8
3078
6018
C018
C010
E020
70C0
3F00
ENDCHAR
STARTCHAR 0124
ENCODING 292
SWIDTH 718 0
DWIDTH 23 0
BBX 20 27 1 0
BITMAP
002000
007000
00D800
010C00
000000
000000
FF07F0
3C03E0
1C01C0
1801C0
1801C0
1801C0
1801C0
1801C0
1801C0
1801C0
1FFFC0
1801C0
1801C0
1801C0
1801C0
1801C0
1801C0
1801C0
1801C0
1C01C0
FF07F0
ENDCHAR
STARTCHAR 0125
ENCODING 293
SWIDTH 500 0
DWIDTH 16 0
BBX 16 27 0 0
BITMAP
1000
3800
7C00
C200
0000
0400
7800
3800
1800
1800
1800
1800
1800
1860
19F8
1A38
1C18
181C
181C
181C
181C
181C
181C
181C
181C
181C
7E7F
ENDCHAR
STARTCHAR 0126
ENCODING 294
SWIDTH 718 0
DWIDTH 23 0
BBX 20 21 1 0
BITMAP
FF07F0
3C03E0
1C01C0
1801C0
1801C0
3FFFE0
1801C0
1801C0
1801C0
1801C0
1FFFC0
1801C0
1801C0
1801C0
1801C0
1801C0
1801C0
1801C0
1801C0
1C01C0
FF07F0
ENDCHAR
STARTCHAR 0127
ENCODING 295
SWIDTH 500 0
DWIDTH 16 0
BBX 15 22 1 0
BITMAP
0800
F000
7000
3000
FF00
FF00
3000
3000
30C0
33F0
3C70
3030
3038
3038
3038
3038
3038
3038
3038
3038
3038
FCFE
ENDCHAR
STARTCHAR 0128
ENCODING 296
SWIDTH 312 0
DWIDTH 10 0
BBX 9 26 1 0
BITMAP
2000
7880
8F00
0000
0000
FF00
3C00
1C00
1800
1800
1800
1800
1800
1800
1800
1800
1800
1800
1800
1800
1800
1800
1800
1800
1C00
FF00
ENDCHAR
STARTCHAR 0129
ENCODING 297
SWIDTH 250 0
DWIDTH 8 0
BBX 8 18 1 0
BITMAP
F1
9E
00
00
08
F8
38
38
18
18
18
18
18
18
38
38
38
FE
ENDCHAR
STARTCHAR 012A
ENCODING 298
SWIDTH 312 0
DWIDTH 10 0
BBX 8 25 1 0
BITMAP
FF
00
00
00
FF
3C
1C
18
18
18
18
18
18
18
18
18
18
18
18
18
18
18
18
1C
FF
ENDCHAR
STARTCHAR 012B
ENCODING 299
SWIDTH 250 0
DWIDTH 8 0
BBX 7 18 1 0
BITMAP
FE
00
00
00
08
F8
38
38
18
18
18
18
18
18
38
38
38
FE
ENDCHAR
STARTCHAR 012C
ENCODING 300
SWIDTH 312 0
DWIDTH 10 0
BBX 8 26 1 0
BITMAP
41
66
3C
00
00
FF
3C
1C
18
18
18
18
18
18
18
18
18
18
18
18
18
18
18
18
1C
FF
ENDCHAR
STARTCHAR 012D
ENCODING 301
SWIDTH 250 0
DWIDTH 8 0
BBX 7 19 1 0
BITMAP
82
46
3C
00
00
08
F8
38
38
38
38
38
38
38
38
38
38
38
FE
ENDCHAR
STARTCHAR 012E
ENCODING 302
SWIDTH 312 0
DWIDTH 10 0
BBX 8 28 1 -7
BITMAP
FF
3C
1C
1C
18
18
18
18
18
18
18
18
18
18
18
18
18
18
1C
1C
FF
08
10
20
60
62
7C
38
ENDCHAR
STARTCHAR 012F
ENCODING 303
SWIDTH 250 0
DWIDTH 8 0
BBX 7 27 1 -7
BITMAP
10
38
38
00
00
00
08
F8
78
38
38
38
38
38
38
38
38
38
38
FE
18
30
60
40
64
7C
70
ENDCHAR
STARTCHAR 0130
ENCODING 304
SWIDTH 312 0
DWIDTH 10 0
BBX 8 26 1 0
BITMAP
08
1C
1C
00
00
FF
3C
1C
18
18
18
18
18
18
18
18
18
18
18
18
18
18
18
18
1C
FF
ENDCHAR
STARTCHAR 0131
ENCODING 305
SWIDTH 250 0
DWIDTH 8 0
BBX 7 14 1 0
BITMAP
08
F8
78
38
38
38
38
38
38
38
38
38
38
FE
ENDCHAR
STARTCHAR 0132
ENCODING 306
SWIDTH 562 0
DWIDTH 18 0
BBX 16 28 1 -7
BITMAP
FFFF
3C3C
1818
1818
1818
1818
1818
1818
1818
1818
1818
1818
1818
1818
1818
1818
1818
1818
1818
1C18
FF18
0038
0038
0030
0030
0C20
0FC0
0F80
ENDCHAR
STARTCHAR 0133
ENCODING 307
SWIDTH 468 0
DWIDTH 15 0
BBX 12 27 1 -7
BITMAP
3040
38F0
38E0
0000
0000
0000
0810
F9F0
78F0
3870
3870
3870
3870
3870
3870
3870
3870
3870
3870
FE70
0060
0060
0060
00C0
00C0
0180
0300
ENDCHAR
STARTCHAR 0134
ENCODING 308
SWIDTH 312 0
DWIDTH 10 0
BBX 12 34 -3 -7
BITMAP
0080
01C0
03C0
0430
0000
0000
0FF0
03C0
0380
0180
0180
0180
0180
0180
0180
0180
0180
0180
0180
0180
0180
0180
0180
0180
0180
0380
0380
0380
0380
0300
0300
C200
FC00
F800
ENDCHAR
STARTCHAR 0135
ENCODING 309
SWIDTH 218 0
DWIDTH 7 0
BBX 7 27 0 -7
BITMAP
18
1C
34
42
00
00
04
7C
38
18
18
18
18
18
18
18
18
18
18
18
18
18
18
30
20
60
80
ENDCHAR
STARTCHAR 0136
ENCODING 310
SWIDTH 656 0
DWIDTH 21 0
BBX 20 28 1 -7
BITMAP
FF0FE0
3C0780
1C0600
180C00
180800
181800
182000
184000
188000
1B0000
1F8000
1BC000
19C000
18E000
187000
187800
183C00
181E00
180F00
1C0780
FF01F0
000000
002000
00E000
007000
002000
006000
00C000
ENDCHAR
STARTCHAR 0137
ENCODING 311
SWIDTH 500 0
DWIDTH 16 0
BBX 15 29 1 -7
BITMAP
0800
F000
7000
3000
3000
3000
3000
3000
3000
30FC
3060
30C0
3180
3200
3E00
3F00
3780
3380
31C0
30E0
3070
FC3E
0000
0100
0700
0380
0300
0300
0600
ENDCHAR
STARTCHAR 0138
ENCODING 312
SWIDTH 531 0
DWIDTH 17 0
BBX 16 14 1 0
BITMAP
0800
F8FE
7830
3840
3880
3B00
3E00
3F00
3B80
39C0
38E0
38F0
3878
FE1F
ENDCHAR
STARTCHAR 0139
ENCODING 313
SWIDTH 562 0
DWIDTH 18 0
BBX 16 27 1 0
BITMAP
0180
0780
0E00
1800
0000
0000
FF00
3C00
1C00
1800
1800
1800
1800
1800
1800
1800
1800
1800
1800
1800
1800
1800
1801
1801
1803
1C0E
FFFE
ENDCHAR
STARTCHAR 013A
ENCODING 314
SWIDTH 250 0
DWIDTH 8 0
BBX 7 27 1 0
BITMAP
06
0E
1C
70
00
08
F0
70
30
30
30
30
30
30
30
30
30
30
30
30
30
30
30
30
30
30
FC
ENDCHAR
STARTCHAR 013B
ENCODING 315
SWIDTH 562 0
DWIDTH 18 0
BBX 16 28 1 -7
BITMAP
FF00
3C00
1C00
1800
1800
1800
1800
1800
1800
1800
1800
1800
1800
1800
1800
1800
1801
1801
1803
1C0E
FFFE
0000
0040
01C0
01C0
00C0
0080
0100
ENDCHAR
STARTCHAR 013C
ENCODING 316
SWIDTH 250 0
DWIDTH 8 0
BBX 6 29 1 -7
BITMAP
08
F0
70
30
30
30
30
30
30
30
30
30
30
30
30
30
30
30
30
30
30
FC
00
10
70
38
10
30
60
ENDCHAR
STARTCHAR 013D
ENCODING 317
SWIDTH 562 0
DWIDTH 18 0
BBX 16 21 1 0
BITMAP
FF03
3C07
1C03
1803
1802
1802
1804
1800
1800
1800
1800
1800
1800
1800
1800
1800
1801
1801
1803
1C0E
FFFE
ENDCHAR
STARTCHAR 013E
ENCODING 318
SWIDTH 281 0
DWIDTH 9 0
BBX 9 22 1 0
BITMAP
0980
F180
7180
3080
3080
3100
3100
3000
3000
3000
3000
3000
3000
3000
3000
3000
3000
3000
3000
3000
3000
FC00
ENDCHAR
STARTCHAR 013F
ENCODING 319
SWIDTH 562 0
DWIDTH 18 0
BBX 16 21 1 0
BITMAP
FF00
3C00
1C00
1800
1800
1800
1800
1800
1800
1808
181E
180C
1800
1800
1800
1800
1801
1801
1803
1C0E
FFFE
ENDCHAR
STARTCHAR 0140
ENCODING 320
SWIDTH 375 0
DWIDTH 12 0
BBX 11 22 1 0
BITMAP
0800
F000
7000
3000
3000
3000
3000
3000
3000
3000
3000
3080
31E0
30C0
3000
3000
3000
3000
3000
3000
3000
FC00
ENDCHAR
STARTCHAR 0141
ENCODING 321
SWIDTH 562 0
DWIDTH 18 0
BBX 16 21 1 0
BITMAP
FF00
3C00
1C00
1800
1800
1800
1800
1830
1860
1980
1B00
1C00
1800
3800
D800
1800
1801
1801
1803
1C0E
FFFE
ENDCHAR
STARTCHAR 0142
ENCODING 322
SWIDTH 250 0
DWIDTH 8 0
BBX 6 22 1 0
BITMAP
08
F0
70
30
30
30
30
30
30
34
38
30
F0
B0
30
30
30
30
30
30
30
FC
ENDCHAR
STARTCHAR 0143
ENCODING 323
SWIDTH 750 0
DWIDTH 24 0
BBX 22 27 1 0
BITMAP
000C00
001C00
003800
006000
000000
000000
FC01FC
3E0070
1E0030
170030
178030
13C030
11E030
10F030
107030
107830
103C30
101E30
100F30
100730
1007B0
1003F0
1001F0
1000F0
100070
180070
FE0030
ENDCHAR
STARTCHAR 0144
ENCODING 324
SWIDTH 531 0
DWIDTH 17 0
BBX 15 21 1 0
BITMAP
0020
0070
00E0
01C0
0100
0000
0000
08E0
FBF0
7C78
3838
3838
3818
3818
3818
3818
3818
3818
3818
3818
FEFE
ENDCHAR
STARTCHAR 0145
ENCODING 325
SWIDTH 750 0
DWIDTH 24 0
BBX 22 28 1 -7
BITMAP
FC01FC
3E0070
1E0030
170030
178030
13C030
11E030
10F030
107030
107830
103C30
101E30
100F30
100730
1007B0
1003F0
1001F0
1000F0
100070
180070
FE0030
000000
001000
007000
003800
001000
003000
006000
ENDCHAR
STARTCHAR 0146
ENCODING 326
SWIDTH 531 0
DWIDTH 17 0
BBX 15 21 1 -7
BITMAP
08E0
FBF0
7C78
3838
3838
3818
3818
3818
3818
3818
3818
3818
3818
FEFE
0000
0100
0380
0380
0180
0100
0600
ENDCHAR
STARTCHAR 0147
ENCODING 327
SWIDTH 750 0
DWIDTH 24 0
BBX 22 27 1 0
BITMAP
010400
00CC00
007800
003000
000000
000000
FC01FC
3E0070
1E0030
170030
178030
13C030
11E030
10F030
107030
107830
103C30
101E30
100F30
100730
1007B0
1003F0
1001F0
1000F0
100070
180070
FE0030
ENDCHAR
STARTCHAR 0148
ENCODING 328
SWIDTH 531 0
DWIDTH 17 0
BBX 15 20 1 0
BITMAP
0420
0240
0380
0180
0000
0000
08E0
FBF0
7C78
3838
3838
3818
3818
3818
3818
3818
3818
3818
3818
FEFE
ENDCHAR
STARTCHAR 0149
ENCODING 329
SWIDTH 531 0
DWIDTH 17 0
BBX 18 21 -2 0
BITMAP
600000
600000
600000
600000
600000
400000
800000
011C00
1F7E00
0F8F00
070700
070300
070300
070300
070300
070300
070300
070300
070300
070300
1FDFC0
ENDCHAR
STARTCHAR 014A
ENCODING 330
SWIDTH 750 0
DWIDTH 24 0
BBX 22 28 1 -7
BITMAP
FC01FC
3E0070
1E0030
170030
178030
13C030
11E030
10F030
107030
107830
103C30
101E30
100F30
100730
1007B0
1003F0
1001F0
1000F0
100070
180060
FE0020
000060
000060
000060
000040
0030C0
003D80
003E00
ENDCHAR
STARTCHAR 014B
ENCODING 331
SWIDTH 500 0
DWIDTH 16 0
BBX 13 21 1 -7
BITMAP
08E0
FBF0
7C78
3838
3838
3818
3818
3818
3818
3818
3818
3818
3818
FE18
0018
0038
0030
0030
0060
00C0
0180
ENDCHAR
STARTCHAR 014C
ENCODING 332
SWIDTH 718 0
DWIDTH 23 0
BBX 20 25 2 0
BITMAP
03FC00
000000
000000
000000
01F000
061E00
1C0700
380380
7001C0
6001E0
E000E0
E000E0
E000F0
E00070
E00070
E00070
E00070
E00060
E000E0
7000E0
7000C0
380180
1C0380
0E0600
03FC00
ENDCHAR
STARTCHAR 014D
ENCODING 333
SWIDTH 500 0
DWIDTH 16 0
BBX 14 18 1 0
BITMAP
1FE0
0000
0000
0000
0780
1DE0
3070
7038
6038
E018
E01C
E01C
E01C
6018
7018
7030
3860
0FC0
ENDCHAR
STARTCHAR 014E
ENCODING 334
SWIDTH 718 0
DWIDTH 23 0
BBX 20 26 2 0
BITMAP
020800
019800
00F000
000000
000000
01F000
061E00
1C0700
380380
7001C0
6001E0
E000E0
E000E0
E000F0
E00070
E00070
E00070
E00070
E00060
E000E0
7000E0
7000C0
380180
1C0380
0E0600
03FC00
ENDCHAR
STARTCHAR 014F
ENCODING 335
SWIDTH 500 0
DWIDTH 16 0
BBX 14 19 1 0
BITMAP
1040
08C0
0780
0000
0000
0780
1DE0
3070
7038
6038
E018
E01C
E01C
E01C
6018
7018
7030
3860
0FC0
ENDCHAR
STARTCHAR 0150
ENCODING 336
SWIDTH 718 0
DWIDTH 23 0
BBX 20 27 2 0
BITMAP
003180
007780
00EE00
019800
020000
000000
01F000
061E00
1C0700
380380
7001C0
6001E0
E000E0
E000E0
E000F0
E00070
E00070
E00070
E00070
E00060
E000E0
7000E0
7000C0
380180
1C0380
0E0600
03FC00
ENDCHAR
STARTCHAR 0151
ENCODING 337
SWIDTH 500 0
DWIDTH 16 0
BBX 14 21 1 0
BITMAP
0090
0198
03B0
0660
04C0
0800
0000
0780
1DE0
3070
7038
6038
E018
E01C
E01C
E01C
6018
7018
7030
3860
0FC0
ENDCHAR
STARTCHAR 0152
ENCODING 338
SWIDTH 1000 0
DWIDTH 32 0
BBX 29 21 2 0
BITMAP
01FFFFE0
060FFFE0
1C03C020
3801C020
7001C010
6001C000
E001C000
E001C000
E001C080
E001C080
E001FF80
E001C180
E001C080
E001C080
E001C000
7001C000
7001C018
3801C010
1C01C030
0E03C070
03FFFFE0
ENDCHAR
STARTCHAR 0153
ENCODING 339
SWIDTH 750 0
DWIDTH 24 0
BBX 22 14 1 0
BITMAP
0780C0
1DE378
307618
703C1C
603C1C
E01FFC
E01800
E01800
E01C00
601C00
701E00
703F04
3867F8
0FC3F0
ENDCHAR
STARTCHAR 0154
ENCODING 340
SWIDTH 593 0
DWIDTH 19 0
BBX 19 27 1 0
BITMAP
003000
007000
00E000
038000
000000
000000
FF8000
3CF000
181C00
181C00
180E00
180E00
180E00
180E00
181C00
183800
18F000
1FE000
18F000
187000
183800
183C00
181C00
180E00
180F00
1C0780
FF01E0
ENDCHAR
STARTCHAR 0155
ENCODING 341
SWIDTH 375 0
DWIDTH 12 0
BBX 11 21 1 0
BITMAP
0080
01C0
0180
0300
0600
0000
0000
0880
FBC0
7BE0
3C40
3800
3800
3800
3800
3800
3800
3800
3800
3800
FF00
ENDCHAR
STARTCHAR 0156
ENCODING 342
SWIDTH 593 0
DWIDTH 19 0
BBX 19 28 1 -7
BITMAP
FF8000
3CF000
181C00
181C00
180E00
180E00
180E00
180E00
181C00
183800
18F000
1FE000
18F000
187000
183800
183C00
181C00
180E00
180F00
1C0780
FF01E0
000000
002000
007000
007000
003000
002000
00C000
ENDCHAR
STARTCHAR 0157
ENCODING 343
SWIDTH 375 0
DWIDTH 12 0
BBX 10 21 1 -7
BITMAP
0880
FBC0
7FC0
3C40
3800
3800
3800
3800
3800
3800
3800
3800
3800
FF00
0000
1000
3800
3800
1800
1000
6000
ENDCHAR
STARTCHAR 0158
ENCODING 344
SWIDTH 593 0
DWIDTH 19 0
BBX 19 27 1 0
BITMAP
041000
032000
01E000
00C000
000000
000000
FF8000
3CF000
181C00
181C00
180E00
180E00
180E00
180E00
181C00
183800
18F000
1FE000
18F000
187000
183800
183C00
181C00
180E00
180F00
1C0780
FF01E0
ENDCHAR
STARTCHAR 0159
ENCODING 345
SWIDTH 375 0
DWIDTH 12 0
BBX 11 20 1 0
BITMAP
3080
1B00
0E00
0400
0000
0000
0880
FBC0
7BE0
3C40
3800
3800
3800
3800
3800
3800
3800
3800
3800
FF00
ENDCHAR
STARTCHAR 015A
ENCODING 346
SWIDTH 500 0
DWIDTH 16 0
BBX 12 27 2 0
BITMAP
00C0
01C0
0380
0600
0800
0000
0F80
39E0
6060
E060
E020
E020
E000
F000
7800
3E00
1F00
07C0
03E0
00F0
0070
8030
8030
8070
C060
E0E0
7F80
ENDCHAR
STARTCHAR 015B
ENCODING 347
SWIDTH 375 0
DWIDTH 12 0
BBX 10 21 1 0
BITMAP
0080
01C0
0380
0300
0400
0000
0000
0E00
3300
6180
6080
6000
7000
3C00
1F00
0780
0380
8180
C180
4300
7E00
ENDCHAR
STARTCHAR 015C
ENCODING 348
SWIDTH 500 0
DWIDTH 16 0
BBX 12 27 2 0
BITMAP
0600
0600
0F00
30C0
0000
0000
0F80
39E0
6060
E060
E020
E020
E000
F000
7800
3E00
1F00
07C0
03E0
00F0
0070
8030
8030
8070
C060
E0E0
7F80
ENDCHAR
STARTCHAR 015D
ENCODING 349
SWIDTH 375 0
DWIDTH 12 0
BBX 9 20 1 0
BITMAP
0C00
0C00
1600
2100
0000
0000
0E00
3300
6180
6080
6000
7000
3C00
1F00
0780
0380
8180
C180
4300
7E00
ENDCHAR
STARTCHAR 015E
ENCODING 350
SWIDTH 500 0
DWIDTH 16 0
BBX 12 26 2 -5
BITMAP
0F80
39E0
6060
E060
E020
E020
E000
F000
7800
3E00
1F00
07C0
03E0
00F0
0070
8030
8030
8070
C060
E0E0
7F80
0400
0F00
0100
0100
1F00
ENDCHAR
STARTCHAR 015F
ENCODING 351
SWIDTH 375 0
DWIDTH 12 0
BBX 9 19 1 -5
BITMAP
0E00
3300
6180
6080
6000
7000
3C00
1F00
0780
0380
8180
C180
6300
7E00
0800
0E00
0200
0200
1C00
ENDCHAR
STARTCHAR 0160
ENCODING 352
SWIDTH 500 0
DWIDTH 16 0
BBX 12 27 2 0
BITMAP
1040
0980
0F00
0600
0000
0000
0F80
39E0
6060
E060
E020
E020
E000
F000
7800
3E00
1F00
07C0
03E0
00F0
0070
8030
8030
8070
C060
E0E0
7F80
ENDCHAR
STARTCHAR 0161
ENCODING 353
SWIDTH 375 0
DWIDTH 12 0
BBX 9 20 1 0
BITMAP
2100
1200
0E00
0C00
0000
0000
0E00
3300
6180
6080
6000
7000
3C00
1F00
0780
0380
8180
C180
4300
7E00
ENDCHAR
STARTCHAR 0162
ENCODING 354
SWIDTH 625 0
DWIDTH 20 0
BBX 19 26 0 -5
BITMAP
7FFFC0
70E1E0
60E060
40E020
40E020
80E000
00E000
00E000
00E000
00E000
00E000
00E000
00E000
00E000
00E000
00E000
00E000
00E000
00E000
00E000
03FC00
004000
00F000
003000
001000
01E000
ENDCHAR
STARTCHAR 0163
ENCODING 355
SWIDTH 312 0
DWIDTH 10 0
BBX 8 23 1 -5
BITMAP
10
10
30
30
FF
FF
30
30
30
30
30
30
30
30
30
30
3F
1E
08
1C
06
04
18
ENDCHAR
STARTCHAR 0164
ENCODING 356
SWIDTH 625 0
DWIDTH 20 0
BBX 19 27 0 0
BITMAP
020800
019800
00F000
006000
000000
000000
7FFFC0
70E1E0
60E060
40E020
C0E020
00E000
00E000
00E000
00E000
00E000
00E000
00E000
00E000
00E000
00E000
00E000
00E000
00E000
00E000
00E000
03FC00
ENDCHAR
STARTCHAR 0165
ENCODING 357
SWIDTH 312 0
DWIDTH 10 0
BBX 11 21 1 0
BITMAP
00C0
00E0
00E0
1040
1040
3080
3080
FF00
FF00
3000
3000
3000
3000
3000
3000
3000
3000
3000
3000
3F00
1E00
ENDCHAR
STARTCHAR 0166
ENCODING 358
SWIDTH 625 0
DWIDTH 20 0
BBX 19 21 0 0
BITMAP
7FFFC0
70E1E0
60E060
40E020
C0E020
00E000
00E000
00E000
00E000
00E000
07FE00
00E000
00E000
00E000
00E000
00E000
00E000
00E000
00E000
00E000
03FC00
ENDCHAR
STARTCHAR 0167
ENCODING 359
SWIDTH 312 0
DWIDTH 10 0
BBX 8 18 1 0
BITMAP
10
10
30
30
FF
FF
30
30
FF
FF
30
30
30
30
30
30
3F
1E
ENDCHAR
STARTCHAR 0168
ENCODING 360
SWIDTH 718 0
DWIDTH 23 0
BBX 21 26 1 0
BITMAP
00C000
01F200
023C00
000000
000000
FE03F8
3800E0
380040
380040
380040
380040
380040
380040
380040
380040
380040
380040
380040
380040
380040
3800C0
1C00C0
1C0180
0F0380
07FF00
01FC00
ENDCHAR
STARTCHAR 0169
ENCODING 361
SWIDTH 500 0
DWIDTH 16 0
BBX 15 18 0 0
BITMAP
0790
08F0
0000
0000
0808
F87C
3818
1818
1818
1818
1818
1818
1818
1818
1818
1C38
1FDE
0F9C
ENDCHAR
STARTCHAR 016A
ENCODING 362
SWIDTH 718 0
DWIDTH 23 0
BBX 21 25 1 0
BITMAP
03FC00
000000
000000
000000
FE03F8
3800E0
380040
380040
380040
380040
380040
380040
380040
380040
380040
380040
380040
380040
380040
3800C0
1C00C0
1C0180
0F0380
07FF00
01FC00
ENDCHAR
STARTCHAR 016B
ENCODING 363
SWIDTH 500 0
DWIDTH 16 0
BBX 15 18 0 0
BITMAP
0FF0
0000
0000
0000
0808
F87C
3818
1818
1818
1818
1818
1818
1818
1818
1818
1C38
1FDE
0F9C
ENDCHAR
STARTCHAR 016C
ENCODING 364
SWIDTH 718 0
DWIDTH 23 0
BBX 21 26 1 0
BITMAP
010400
019800
00F000
000000
000000
FE03F8
3800E0
380040
380040
380040
380040
380040
380040
380040
380040
380040
380040
380040
380040
380040
3800C0
1C00C0
1C0180
0F0380
07FF00
01FC00
ENDCHAR
STARTCHAR 016D
ENCODING 365
SWIDTH 500 0
DWIDTH 16 0
BBX 15 19 0 0
BITMAP
0410
0620
03C0
0000
0000
0808
F87C
3818
1818
1818
1818
1818
1818
1818
1818
1818
1C38
1FDE
0F9C
ENDCHAR
STARTCHAR 016E
ENCODING 366
SWIDTH 718 0
DWIDTH 23 0
BBX 21 28 1 0
BITMAP
00F000
008800
008800
008800
007000
000000
000000
FE03F8
3800E0
380040
380040
380040
380040
380040
380040
380040
380040
380040
380040
380040
380040
380040
3800C0
1C00C0
1C0180
0F0380
07FF00
01FC00
ENDCHAR
STARTCHAR 016F
ENCODING 367
SWIDTH 500 0
DWIDTH 16 0
BBX 15 21 0 0
BITMAP
03C0
0260
0420
0660
03C0
0000
0000
0808
F87C
3818
1818
1818
1818
1818
1818
1818
1818
1818
1C38
1FDE
0F9C
ENDCHAR
STARTCHAR 0170
ENCODING 368
SWIDTH 718 0
DWIDTH 23 0
BBX 21 27 1 0
BITMAP
003180
007380
00E700
018C00
001000
000000
FE03F8
3800E0
380040
380040
380040
380040
380040
380040
380040
380040
380040
380040
380040
380040
380040
3800C0
1C00C0
1C0180
0F0380
07FF00
01FC00
ENDCHAR
STARTCHAR 0171
ENCODING 369
SWIDTH 500 0
DWIDTH 16 0
BBX 15 21 0 0
BITMAP
0088
01DC
03B8
0330
0440
0000
0000
0808
F87C
3818
1818
1818
1818
1818
1818
1818
1818
1818
1C38
1FDE
0F9C
ENDCHAR
STARTCHAR 0172
ENCODING 370
SWIDTH 718 0
DWIDTH 23 0
BBX 21 28 1 -7
BITMAP
FE03F8
3800E0
380040
380040
380040
380040
380040
380040
380040
380040
380040
380040
380040
380040
380040
3800C0
1C00C0
1C0180
0F0300
07FE00
01FC00
001800
003000
006000
004000
006400
007C00
007800
ENDCHAR
STARTCHAR 0173
ENCODING 371
SWIDTH 500 0
DWIDTH 16 0
BBX 15 21 0 -7
BITMAP
0808
F8F8
3838
3818
1818
1818
1818
1818
1818
1818
1818
1C38
1FDE
0F9C
0018
0030
0020
0060
0062
007C
0038
ENDCHAR
STARTCHAR 0174
ENCODING 372
SWIDTH 875 0
DWIDTH 28 0
BBX 28 26 0 0
BITMAP
00020000
00030000
00078000
00186000
00000000
FE0203F0
7C0301E0
380300C0
18070080
1C078080
1C078180
1C0F8100
0E09C100
0E09C100
0E19C300
0610E200
0710E200
0730E600
03207400
03A07400
03E07400
01C03C00
01C03800
01C03800
01801800
00801000
ENDCHAR
STARTCHAR 0175
ENCODING 373
SWIDTH 718 0
DWIDTH 23 0
BBX 23 20 0 0
BITMAP
000800
001C00
003600
002200
004100
000000
000002
FCFE7C
383810
383810
1C3C30
1C3C20
0C2C60
0E4E40
0E4640
07C7C0
078780
038380
030300
010300
ENDCHAR
STARTCHAR 0176
ENCODING 374
SWIDTH 593 0
DWIDTH 19 0
BBX 19 26 0 0
BITMAP
004000
00E000
01F000
030800
000000
FF0FE0
7C0380
3C0300
1C0200
0E0200
0E0400
070400
038800
038800
01D000
01F000
00E000
00E000
00E000
00E000
00E000
00E000
00E000
00E000
00E000
03F800
ENDCHAR
STARTCHAR 0177
ENCODING 375
SWIDTH 468 0
DWIDTH 15 0
BBX 15 27 0 -7
BITMAP
0080
01C0
0340
0420
0010
0000
0000
FC7E
3818
3810
1C30
1C20
0C20
0E40
0E40
07C0
0780
0380
0300
0300
0300
0200
0200
0400
0C00
7800
7000
ENDCHAR
STARTCHAR 0178
ENCODING 376
SWIDTH 593 0
DWIDTH 19 0
BBX 19 26 0 0
BITMAP
039C00
039C00
010800
000000
000000
FF0FE0
7C0380
3C0300
1C0200
0E0200
0E0400
070400
038800
038800
01D000
01F000
00E000
00E000
00E000
00E000
00E000
00E000
00E000
00E000
00E000
03F800
ENDCHAR
STARTCHAR 0179
ENCODING 377
SWIDTH 625 0
DWIDTH 20 0
BBX 18 27 1 0
BITMAP
001800
003800
007000
00C000
010000
000000
7FFF80
7C0780
600700
400E00
401E00
C01C00
003800
007800
00F000
00E000
01C000
03C000
038000
070000
0F0000
0E0000
1C00C0
3C0080
380180
700380
FFFF00
ENDCHAR
STARTCHAR 017A
ENCODING 378
SWIDTH 437 0
DWIDTH 14 0
BBX 12 21 1 0
BITMAP
0080
01C0
0380
0300
0600
0000
0000
6070
7FE0
41E0
C1C0
0380
0700
0700
0E00
1C00
1C00
3810
7030
7060
FFE0
ENDCHAR
STARTCHAR 017B
ENCODING 379
SWIDTH 625 0
DWIDTH 20 0
BBX 18 26 1 0
BITMAP
004000
00E000
00E000
000000
000000
7FFF80
7C0780
600700
400E00
401E00
C01C00
003800
007800
00F000
00E000
01C000
03C000
038000
070000
0F0000
0E0000
1C00C0
3C0080
380180
700380
FFFF00
ENDCHAR
STARTCHAR 017C
ENCODING 380
SWIDTH 437 0
DWIDTH 14 0
BBX 12 20 1 0
BITMAP
0200
0700
0700
0000
0000
0000
6070
7FE0
41E0
C1C0
0380
0700
0700
0E00
1C00
1C00
3810
7030
7060
FFE0
ENDCHAR
STARTCHAR 017D
ENCODING 381
SWIDTH 625 0
DWIDTH 20 0
BBX 18 27 1 0
BITMAP
020800
019800
00F000
006000
000000
000000
7FFF80
7C0780
600700
400E00
401E00
C01C00
003800
007800
00F000
00E000
01C000
03C000
038000
070000
0F0000
0E0000
1C00C0
3C0080
380180
700380
FFFF00
ENDCHAR
STARTCHAR 017E
ENCODING 382
SWIDTH 437 0
DWIDTH 14 0
BBX 12 20 1 0
BITMAP
10C0
0D80
0700
0200
0000
0000
6070
7FE0
41E0
C1C0
0380
0700
0700
0E00
1C00
1C00
3810
7030
7060
FFE0
ENDCHAR
STARTCHAR 017F
ENCODING 383
SWIDTH 281 0
DWIDTH 9 0
BBX 9 22 1 0
BITMAP
0380
0780
0980
1800
1000
3000
3000
3000
7000
F000
3000
3000
3000
3000
3000
3000
3000
3000
3000
3000
3800
FE00
ENDCHAR
STARTCHAR 01E6
ENCODING 486
SWIDTH 718 0
DWIDTH 23 0
BBX 21 27 1 0
BITMAP
010200
00CC00
007800
003000
000000
000000
00FF00
0383C0
0E00C0
1C00C0
180040
380040
700000
700000
700000
700000
F00000
700000
7007F8
7000C0
7000C0
3800C0
3800C0
1C00C0
0E00E0
0781C0
01FF00
ENDCHAR
STARTCHAR 01E7
ENCODING 487
SWIDTH 468 0
DWIDTH 15 0
BBX 13 28 1 -7
BITMAP
1080
0900
0700
0600
0000
0000
0000
0E00
39F8
70C0
60E0
6060
6060
60E0
70C0
3980
3E00
6000
E000
7FE0
3FF8
3078
6018
C018
C010
E020
70C0
3F00
ENDCHAR
STARTCHAR 0237
ENCODING 567
SWIDTH 218 0
DWIDTH 7 0
BBX 7 21 -1 -7
BITMAP
06
3C
1C
0C
0C
0C
0C
0C
0C
0C
0C
0C
0C
0C
0C
0C
18
18
10
20
C0
ENDCHAR
STARTCHAR 02BB
ENCODING 699
SWIDTH 156 0
DWIDTH 5 0
BBX 3 5 1 15
BITMAP
20
40
C0
E0
E0
ENDCHAR
STARTCHAR 02BC
ENCODING 700
SWIDTH 156 0
DWIDTH 5 0
BBX 3 7 1 14
BITMAP
C0
E0
60
40
40
80
80
ENDCHAR
STARTCHAR 02BE
ENCODING 702
SWIDTH 187 0
DWIDTH 6 0
BBX 4 8 1 14
BITMAP
C0
60
30
30
10
30
20
C0
ENDCHAR
STARTCHAR 02BF
ENCODING 703
SWIDTH 187 0
DWIDTH 6 0
BBX 4 8 1 14
BITMAP
10
60
C0
C0
C0
C0
40
30
ENDCHAR
STARTCHAR 02C6
ENCODING 710
SWIDTH 312 0
DWIDTH 10 0
BBX 6 4 2 17
BITMAP
30
70
58
84
ENDCHAR
STARTCHAR 02C7
ENCODING 711
SWIDTH 312 0
DWIDTH 10 0
BBX 6 4 2 16
BITMAP
84
48
70
30
ENDCHAR
STARTCHAR 02D8
ENCODING 728
SWIDTH 312 0
DWIDTH 10 0
BBX 6 3 2 17
BITMAP
84
84
78
ENDCHAR
STARTCHAR 02D9
ENCODING 729
SWIDTH 187 0
DWIDTH 6 0
BBX 3 3 2 16
BITMAP
40
E0
E0
ENDCHAR
STARTCHAR 02DA
ENCODING 730
SWIDTH 281 0
DWIDTH 9 0
BBX 5 5 2 16
BITMAP
70
88
88
88
F0
ENDCHAR
STARTCHAR 02DB
ENCODING 731
SWIDTH 281 0
DWIDTH 9 0
BBX 5 8 2 -7
BITMAP
18
30
40
C0
80
C8
F0
60
ENDCHAR
STARTCHAR 02DC
ENCODING 732
SWIDTH 343 0
DWIDTH 11 0
BBX 8 2 2 16
BITMAP
F1
9E
ENDCHAR
STARTCHAR 02DD
ENCODING 733
SWIDTH 375 0
DWIDTH 12 0
BBX 8 5 2 17
BITMAP
11
3B
77
EE
98
ENDCHAR
STARTCHAR 0300
ENCODING 768
SWIDTH 0 0
DWIDTH 0 0
BBX 5 5 -11 16
BITMAP
40
E0
60
30
18
ENDCHAR
STARTCHAR 0301
ENCODING 769
SWIDTH 0 0
DWIDTH 0 0
BBX 5 5 -10 16
BITMAP
10
38
30
60
C0
ENDCHAR
STARTCHAR 0302
ENCODING 770
SWIDTH 0 0
DWIDTH 0 0
BBX 6 4 -11 16
BITMAP
30
30
58
84
ENDCHAR
STARTCHAR 0303
ENCODING 771
SWIDTH 0 0
DWIDTH 0 0
BBX 8 2 -12 16
BITMAP
79
8F
ENDCHAR
STARTCHAR 0304
ENCODING 772
SWIDTH 0 0
DWIDTH 0 0
BBX 8 1 -12 16
BITMAP
FF
ENDCHAR
STARTCHAR 0305
ENCODING 773
SWIDTH 0 0
DWIDTH 0 0
BBX 20 2 -2 48
BITMAP
FFFFF0
FFFFF0
ENDCHAR
STARTCHAR 0306
ENCODING 774
SWIDTH 0 0
DWIDTH 0 0
BBX 6 3 -11 16
BITMAP
84
8C
78
ENDCHAR
STARTCHAR 0307
ENCODING 775
SWIDTH 0 0
DWIDTH 0 0
BBX 4 3 -10 16
BITMAP
20
F0
60
ENDCHAR
STARTCHAR 0308
ENCODING 776
SWIDTH 0 0
DWIDTH 0 0
BBX 9 2 -12 16
BITMAP
E300
E380
ENDCHAR
STARTCHAR 030A
ENCODING 778
SWIDTH 0 0
DWIDTH 0 0
BBX 6 5 -11 16
BITMAP
78
4C
84
CC
78
ENDCHAR
STARTCHAR 030C
ENCODING 780
SWIDTH 0 0
DWIDTH 0 0
BBX 6 4 -11 16
BITMAP
84
48
38
30
ENDCHAR
STARTCHAR 0312
ENCODING 786
SWIDTH 0 0
DWIDTH 0 0
BBX 4 5 -10 16
BITMAP
30
60
60
F0
60
ENDCHAR
STARTCHAR 0315
ENCODING 789
SWIDTH 0 0
DWIDTH 0 0
BBX 3 7 -9 14
BITMAP
60
E0
60
60
40
40
80
ENDCHAR
STARTCHAR 0325
ENCODING 805
SWIDTH 0 0
DWIDTH 0 0
BBX 6 5 -11 -6
BITMAP
78
4C
84
CC
78
ENDCHAR
STARTCHAR 0326
ENCODING 806
SWIDTH 0 0
DWIDTH 0 0
BBX 3 6 -10 -7
BITMAP
20
E0
60
60
60
C0
ENDCHAR
STARTCHAR 0327
ENCODING 807
SWIDTH 0 0
DWIDTH 0 0
BBX 4 5 -10 -5
BITMAP
20
70
10
10
E0
ENDCHAR
STARTCHAR 0328
ENCODING 808
SWIDTH 0 0
DWIDTH 0 0
BBX 5 8 -10 -7
BITMAP
18
30
40
C0
80
C8
F0
60
ENDCHAR
STARTCHAR 0600
ENCODING 1536
SWIDTH 1125 0
DWIDTH 36 0
BBX 34 10 1 -5
BITMAP
00000001C0
00000003C0
0000000440
0000000400
0000000400
0000000400
0000000600
C000000F80
7FFFFFFF80
3FFFFFE080
ENDCHAR
STARTCHAR 0601
ENCODING 1537
SWIDTH 1781 0
DWIDTH 57 0
BBX 55 10 1 -11
BITMAP
0000000000000E
0000000000007E
030100000001F6
87838000000F84
87C7E00000FE08
88FCFC000FF010
88783FFFFF8020
90000FFFF80020
F0000000000040
70000000000000
ENDCHAR
STARTCHAR 0602
ENCODING 1538
SWIDTH 812 0
DWIDTH 26 0
BBX 24 7 1 -5
BITMAP
300000
780000
480000
880000
E80003
7FFFFC
3FFFE0
ENDCHAR
STARTCHAR 0603
ENCODING 1539
SWIDTH 1093 0
DWIDTH 35 0
BBX 34 8 1 -7
BITMAP
0000000780
0000000FC0
0000001080
F000072080
7FFFFFFF00
0FFFF07E00
0000008000
0000008000
ENDCHAR
STARTCHAR 0604
ENCODING 1540
SWIDTH 2187 0
DWIDTH 70 0
BBX 68 12 1 -5
BITMAP
000000000000000010
000000000000000090
00000000000000E190
00000000000001F3F0
000000000000013FE0
000000000000021C00
000000000000030000
000000000000018000
00000000000001E000
C000000000001FF000
7FFFFFFFFFFFFFF000
3FFFFFFFFFFFF81000
ENDCHAR
STARTCHAR 0606
ENCODING 1542
SWIDTH 500 0
DWIDTH 16 0
BBX 15 30 1 -5
BITMAP
8004
8214
8734
C7FC
43F8
4100
4180
4180
4080
6080
2080
2080
2080
2000
2000
1000
1030
1078
1076
10E2
18E0
08C0
09C0
0980
0B80
0B80
0F00
0700
0600
0600
ENDCHAR
STARTCHAR 0607
ENCODING 1543
SWIDTH 500 0
DWIDTH 16 0
BBX 15 30 1 -5
BITMAP
8020
8040
80C0
C080
4180
41E0
4060
4040
4080
6080
21E0
20F0
2030
2000
2000
1000
1030
1078
1076
10E2
18E0
08C0
09C0
0980
0B80
0B80
0F00
0700
0600
0600
ENDCHAR
STARTCHAR 0608
ENCODING 1544
SWIDTH 875 0
DWIDTH 28 0
BBX 25 17 1 -8
BITMAP
00000100
00000180
00006380
0000F180
00017180
0201B180
0601FF00
1C01FF00
F400FE00
E8001000
08001000
0C003000
0C006000
0E01C000
07FFC000
07FF0000
01FC0000
ENDCHAR
STARTCHAR 0609
ENCODING 1545
SWIDTH 875 0
DWIDTH 28 0
BBX 25 28 1 -6
BITMAP
000C0000
000C0000
00080000
00180000
70180000
78100000
F8100000
30300000
00300000
00200000
00600000
00600000
00400000
00400000
00C00000
00C00000
00800000
01800000
01800000
01000000
0101C300
0303E780
0303C780
0200C300
06000000
06000000
04000000
0C000000
ENDCHAR
STARTCHAR 060A
ENCODING 1546
SWIDTH 1062 0
DWIDTH 34 0
BBX 32 28 1 -6
BITMAP
000C0000
000C0000
00080000
00180000
70180000
78100000
F8100000
30300000
00300000
00200000
00600000
00600000
00400000
00400000
00C00000
00C00000
00800000
01800000
01800000
01000000
0101C30E
0303E78F
0303C79E
0200C306
06000000
06000000
04000000
0C000000
ENDCHAR
STARTCHAR 060B
ENCODING 1547
SWIDTH 500 0
DWIDTH 16 0
BBX 14 31 1 -11
BITMAP
0080
01E0
01C0
00C0
0000
0000
0000
0060
00F0
01F8
01F8
0138
03FC
03EC
01EC
0018
0078
FFF0
7FE0
7F80
0000
0000
0200
0300
0380
0180
0180
0080
0080
0080
0080
ENDCHAR
STARTCHAR 060C
ENCODING 1548
SWIDTH 375 0
DWIDTH 12 0
BBX 6 13 3 0
BITMAP
18
30
20
40
40
C0
80
80
F8
FC
7C
7C
38
ENDCHAR
STARTCHAR 060D
ENCODING 1549
SWIDTH 312 0
DWIDTH 10 0
BBX 8 9 1 8
BITMAP
02
0F
1E
1E
30
60
40
80
80
ENDCHAR
STARTCHAR 060E
ENCODING 1550
SWIDTH 656 0
DWIDTH 21 0
BBX 19 7 1 2
BITMAP
300000
780000
480000
880000
E80060
7FFFC0
3FFC00
ENDCHAR
STARTCHAR 060F
ENCODING 1551
SWIDTH 812 0
DWIDTH 26 0
BBX 24 30 1 -15
BITMAP
006000
00F800
01C400
030000
020040
040180
060780
07FE00
03FC00
00F000
00E000
018000
030000
0200E0
0607F8
041FFC
04780E
04E006
098002
0F0003
0C0002
180002
3C0002
6C0004
46000C
470008
878030
03FFE0
01FFC0
007F00
ENDCHAR
STARTCHAR 0610
ENCODING 1552
SWIDTH 0 0
DWIDTH 0 0
BBX 10 8 0 26
BITMAP
03C0
06C0
88C0
FF80
7C00
4000
4000
8000
ENDCHAR
STARTCHAR 0611
ENCODING 1553
SWIDTH 0 0
DWIDTH 0 0
BBX 9 10 0 26
BITMAP
0700
0D80
1000
1800
8980
FF00
7C00
4000
4000
8000
ENDCHAR
STARTCHAR 0612
ENCODING 1554
SWIDTH 0 0
DWIDTH 0 0
BBX 13 8 0 26
BITMAP
7F90
8E10
3010
4008
4008
8010
8020
83E0
ENDCHAR
STARTCHAR 0613
ENCODING 1555
SWIDTH 0 0
DWIDTH 0 0
BBX 14 13 0 25
BITMAP
0300
0200
0000
0000
03C8
06C8
88C8
FF84
7C04
4008
4018
8130
00C0
ENDCHAR
STARTCHAR 0614
ENCODING 1556
SWIDTH 0 0
DWIDTH 0 0
BBX 15 4 -1 26
BITMAP
0002
0026
01FC
FE1C
ENDCHAR
STARTCHAR 0615
ENCODING 1557
SWIDTH 0 0
DWIDTH 0 0
BBX 13 15 0 42
BITMAP
0400
0C00
0C00
0400
0400
0400
0400
0400
0470
04F8
0518
0610
09F0
FFC0
7E00
ENDCHAR
STARTCHAR 0616
ENCODING 1558
SWIDTH 0 0
DWIDTH 0 0
BBX 12 11 2 27
BITMAP
0200
2200
2200
2200
2200
2200
2200
4200
C200
81F0
FFE0
ENDCHAR
STARTCHAR 0617
ENCODING 1559
SWIDTH 0 0
DWIDTH 0 0
BBX 8 15 3 42
BITMAP
08
18
08
00
00
04
02
06
03
01
01
02
06
0C
F8
ENDCHAR
STARTCHAR 0618
ENCODING 1560
SWIDTH 0 0
DWIDTH 0 0
BBX 6 3 4 28
BITMAP
0C
38
C0
ENDCHAR
STARTCHAR 0619
ENCODING 1561
SWIDTH 0 0
DWIDTH 0 0
BBX 5 7 5 27
BITMAP
10
38
30
38
28
40
80
ENDCHAR
STARTCHAR 061A
ENCODING 1562
SWIDTH 0 0
DWIDTH 0 0
BBX 7 4 5 -14
BITMAP
02
0C
38
C0
ENDCHAR
STARTCHAR 061B
ENCODING 1563
SWIDTH 375 0
DWIDTH 12 0
BBX 6 18 3 -5
BITMAP
18
30
20
40
40
C0
80
80
F8
FC
7C
7C
38
00
00
18
1C
18
ENDCHAR
STARTCHAR 061C
ENCODING 1564
SWIDTH 0 0
DWIDTH 0 0
BBX 0 0 0 0
BITMAP
ENDCHAR
STARTCHAR 061D
ENCODING 1565
SWIDTH 687 0
DWIDTH 22 0
BBX 17 25 2 -1
BITMAP
07C000
0FE000
1FE000
3C6000
702000
602000
E02000
C02000
C04000
600000
700000
380000
1C0000
0E0000
070000
038000
018000
01C000
00C000
004780
006780
002780
003F80
001F80
001F00
ENDCHAR
STARTCHAR 061E
ENCODING 1566
SWIDTH 375 0
DWIDTH 12 0
BBX 8 8 2 -1
BITMAP
30
38
78
14
3F
7E
F4
20
ENDCHAR
STARTCHAR 061F
ENCODING 1567
SWIDTH 406 0
DWIDTH 13 0
BBX 10 21 1 0
BITMAP
3F80
70C0
6040
E040
E1C0
F3C0
F3C0
F980
7800
3800
1C00
0C00
0400
0400
0400
0400
0000
0000
0E00
0E00
0E00
ENDCHAR
STARTCHAR 0620
ENCODING 1568
SWIDTH 750 0
DWIDTH 24 0
BBX 20 26 2 -14
BITMAP
000070
0001F0
0003F0
000790
000C00
100800
201000
201000
401000
403800
801FC0
801FF0
C00070
C00030
E000E0
F003C0
7FFF80
7FFE00
1FF800
000000
000000
00E000
00A000
011000
011000
01E000
ENDCHAR
STARTCHAR 0621
ENCODING 1569
SWIDTH 375 0
DWIDTH 12 0
BBX 8 10 2 0
BITMAP
10
38
78
48
C1
FF
FF
3C
30
40
ENDCHAR
STARTCHAR 0622
ENCODING 1570
SWIDTH 218 0
DWIDTH 7 0
BBX 14 29 -4 0
BITMAP
607C
FFF0
FF80
4000
0000
0000
0000
0100
0300
0300
0300
0300
0300
0300
0300
0100
0180
0180
0180
0180
0180
0180
0180
0180
0080
0080
0080
0080
0100
ENDCHAR
STARTCHAR 0623
ENCODING 1571
SWIDTH 218 0
DWIDTH 7 0
BBX 7 33 0 0
BITMAP
10
38
78
48
E0
FE
7C
E0
00
00
00
10
10
30
30
30
18
18
18
18
18
18
18
18
18
08
08
08
08
08
08
08
08
ENDCHAR
STARTCHAR 0624
ENCODING 1572
SWIDTH 406 0
DWIDTH 13 0
BBX 14 28 -3 -7
BITMAP
0040
01E0
01C0
0240
0300
03F8
01F0
0380
0000
0000
0000
0000
0030
0078
0078
00DC
00FC
00FC
00FC
0068
0008
0008
0010
0030
0060
01C0
CFC0
3F00
ENDCHAR
STARTCHAR 0625
ENCODING 1573
SWIDTH 218 0
DWIDTH 7 0
BBX 7 31 2 -9
BITMAP
40
C0
C0
C0
C0
C0
C0
C0
40
60
60
60
60
60
60
60
60
20
20
20
20
40
00
10
70
F0
90
C0
FE
7C
C0
ENDCHAR
STARTCHAR 0626
ENCODING 1574
SWIDTH 750 0
DWIDTH 24 0
BBX 20 26 2 -7
BITMAP
080000
380000
780000
480000
E00000
7F0000
3E0000
600070
0001F0
0003F0
000790
000C00
100800
201000
201000
401000
403800
801FC0
801FF0
C00070
C00030
E000E0
F003C0
7FFF80
7FFE00
1FF800
ENDCHAR
STARTCHAR 0627
ENCODING 1575
SWIDTH 218 0
DWIDTH 7 0
BBX 3 22 2 1
BITMAP
40
C0
C0
C0
C0
C0
C0
C0
40
60
60
60
60
60
60
60
60
20
20
20
20
40
ENDCHAR
STARTCHAR 0628
ENCODING 1576
SWIDTH 937 0
DWIDTH 30 0
BBX 26 20 2 -8
BITMAP
00000180
00000180
20000180
400001C0
C00000C0
C00000C0
C0000180
E0000780
FC007F80
7FFFFE00
3FFFF000
0FFF8000
00000000
00000000
00000000
00000000
00060000
000F0000
001E0000
00040000
ENDCHAR
STARTCHAR 0629
ENCODING 1577
SWIDTH 375 0
DWIDTH 12 0
BBX 8 21 2 -1
BITMAP
04
6E
FE
E4
20
00
00
00
00
10
1C
3E
7E
7F
47
C3
C3
FE
FE
7C
38
ENDCHAR
STARTCHAR 062A
ENCODING 1578
SWIDTH 937 0
DWIDTH 30 0
BBX 26 16 2 -1
BITMAP
00020000
00370000
007F0000
00720000
00100180
00000180
20000180
400001C0
C00000C0
C00000C0
C0000180
E0000780
FC007F80
7FFFFE00
3FFFF000
0FFF8000
ENDCHAR
STARTCHAR 062B
ENCODING 1579
SWIDTH 937 0
DWIDTH 30 0
BBX 26 19 2 -1
BITMAP
00180000
003C0000
00380000
000A0000
00370000
003F0000
007E0000
00100180
00000180
20000180
400001C0
C00000C0
C00000C0
C0000180
E0000780
FC007F80
7FFFFE00
3FFFF000
0FFF8000
ENDCHAR
STARTCHAR 062C
ENCODING 1580
SWIDTH 656 0
DWIDTH 21 0
BBX 22 24 2 -17
BITMAP
3FC1C0
7FFFC0
7FFF80
01F800
038000
0E0000
180000
100000
200000
600000
400000
403000
C07800
80F000
C02000
C00000
C00000
E00000
F00000
780000
7E0000
3FFFFC
0FFFF0
03FFC0
ENDCHAR
STARTCHAR 062D
ENCODING 1581
SWIDTH 656 0
DWIDTH 21 0
BBX 22 24 2 -17
BITMAP
3FC1C0
7FFFC0
7FFF80
01F800
038000
0E0000
180000
100000
200000
600000
400000
400000
C00000
800000
C00000
C00000
C00000
E00000
F00000
780000
7E0000
3FFFFC
0FFFF0
03FFC0
ENDCHAR
STARTCHAR 062E
ENCODING 1582
SWIDTH 656 0
DWIDTH 21 0
BBX 22 32 2 -17
BITMAP
00C000
01E000
01C000
004000
000000
000000
000000
000000
3FC1C0
7FFFC0
7FFF80
01F800
038000
0E0000
180000
100000
200000
600000
400000
400000
C00000
800000
C00000
C00000
C00000
E00000
F00000
780000
7E0000
3FFFFC
0FFFF0
03FFC0
ENDCHAR
STARTCHAR 062F
ENCODING 1583
SWIDTH 437 0
DWIDTH 14 0
BBX 9 12 3 1
BITMAP
1C00
3E00
1F00
0700
0380
0180
0080
0080
0380
FF80
FF00
FC00
ENDCHAR
STARTCHAR 0630
ENCODING 1584
SWIDTH 437 0
DWIDTH 14 0
BBX 9 21 3 0
BITMAP
1800
3C00
7800
1000
0000
0000
0000
0000
0000
1C00
3E00
1F00
0700
0380
0180
0080
0080
0380
FF80
FF00
FC00
ENDCHAR
STARTCHAR 0631
ENCODING 1585
SWIDTH 406 0
DWIDTH 13 0
BBX 14 16 -3 -7
BITMAP
0010
0010
0038
0038
001C
000C
000C
0004
000C
0008
0018
0038
0070
01E0
FFC0
1F80
ENDCHAR
STARTCHAR 0632
ENCODING 1586
SWIDTH 406 0
DWIDTH 13 0
BBX 14 26 -3 -7
BITMAP
0180
01C0
03C0
0080
0000
0000
0000
0000
0000
0000
0010
0010
0038
0038
001C
000C
000C
0004
000C
0008
0018
0038
0070
01E0
FFC0
1F80
ENDCHAR
STARTCHAR 0633
ENCODING 1587
SWIDTH 1000 0
DWIDTH 32 0
BBX 28 19 2 -7
BITMAP
00000020
00000130
00000330
00008330
0000C7E0
0001FFE0
2000FDE0
4000FC00
4000F000
40004000
80004000
80004000
C000C000
C0018000
E0038000
F80F0000
7FFE0000
3FFC0000
1FF00000
ENDCHAR
STARTCHAR 0634
ENCODING 1588
SWIDTH 1000 0
DWIDTH 32 0
BBX 28 30 2 -7
BITMAP
00000C00
00000E00
00001E00
00000500
00000B80
00001F80
00003D00
00000800
00000000
00000000
00000000
00000020
00000130
00000330
00008330
0000C7E0
0001FFE0
2000FDE0
4000FC00
4000F000
40004000
80004000
80004000
C000C000
C0018000
E0038000
F80F0000
7FFE0000
3FFC0000
1FF00000
ENDCHAR
STARTCHAR 0635
ENCODING 1589
SWIDTH 1218 0
DWIDTH 39 0
BBX 35 20 2 -8
BITMAP
0000000100
0000000FC0
0000001FC0
0000007FE0
000080E0E0
00008180C0
1001C303C0
2001FFFF80
2001FFFF00
4000FFF800
4000C60000
C000400000
C000400000
C000800000
C000800000
E003800000
F81F000000
7FFE000000
3FFC000000
1FF0000000
ENDCHAR
STARTCHAR 0636
ENCODING 1590
SWIDTH 1218 0
DWIDTH 39 0
BBX 35 26 2 -8
BITMAP
0000018000
000001C000
000003C000
0000008000
0000000000
0000000000
0000000100
0000000FC0
0000001FC0
0000007FE0
000080E0E0
00008180C0
1001C303C0
2001FFFF80
2001FFFF00
4000FFF800
4000C60000
C000400000
C000400000
C000800000
C000800000
E003800000
F81F000000
7FFE000000
3FFC000000
1FF0000000
ENDCHAR
STARTCHAR 0637
ENCODING 1591
SWIDTH 781 0
DWIDTH 25 0
BBX 21 24 2 -1
BITMAP
008000
018000
01C000
01C000
008000
008000
008000
008000
00C000
00C000
00C000
00C000
00C000
0040F0
0043F8
004FF8
005C38
007018
00C0F0
0187F0
83FFE0
FFFF00
7FF800
1F8000
ENDCHAR
STARTCHAR 0638
ENCODING 1592
SWIDTH 781 0
DWIDTH 25 0
BBX 21 24 2 -1
BITMAP
008000
018000
01C000
01C000
008000
008000
008180
0081C0
00C3C0
00C080
00C000
00C000
00C000
0040F0
0043F8
004FF8
005C38
007018
00C0F0
0187F0
83FFE0
FFFF00
7FF800
1F8000
ENDCHAR
STARTCHAR 0639
ENCODING 1593
SWIDTH 531 0
DWIDTH 17 0
BBX 21 30 2 -15
BITMAP
060000
1F0000
3C8000
300000
600800
401800
607000
7FE000
3F8000
1F0000
0C0000
180000
300000
200000
400000
400000
400000
800000
800000
800000
800000
800000
800000
C00000
E00000
700000
3E0018
3FFFF0
0FFFC0
03FF00
ENDCHAR
STARTCHAR 063A
ENCODING 1594
SWIDTH 531 0
DWIDTH 17 0
BBX 21 36 2 -15
BITMAP
180000
3C0000
380000
180000
000000
000000
060000
1F0000
3C8000
300000
600800
401800
607000
7FE000
3F8000
1F0000
0C0000
180000
300000
200000
400000
400000
400000
800000
800000
800000
800000
800000
800000
C00000
E00000
700000
3E0018
3FFFF0
0FFFC0
03FF00
ENDCHAR
STARTCHAR 063B
ENCODING 1595
SWIDTH 1187 0
DWIDTH 38 0
BBX 35 27 2 -2
BITMAP
0000800000
0006E000E0
000FE007C0
001EC01FC0
000400FF00
000003FC00
000007E000
00001F8000
00003C0000
0000700000
0000C00000
0000C00000
0000E00000
0000780000
00003C0000
00001E0000
4000060000
4000030000
8000010000
8000010000
8000010000
8000070000
E0001F0000
F801FE0000
7FFFF80000
3FFFE00000
0FFE000000
ENDCHAR
STARTCHAR 063C
ENCODING 1596
SWIDTH 1187 0
DWIDTH 38 0
BBX 35 35 2 -11
BITMAP
00000000E0
00000007C0
0000001FC0
000000FF00
000003FC00
000007E000
00001F8000
00003C0000
0000700000
0000C00000
0000C00000
0000E00000
0000780000
00003C0000
00001E0000
4000060000
4000030000
8000010000
8000010000
8000010000
8000070000
E0001F0000
F801FE0000
7FFFF80000
3FFFE00000
0FFE000000
0000000000
0006000000
0037000000
007F000000
0076000000
001C000000
000E000000
001E000000
000C000000
ENDCHAR
STARTCHAR 063D
ENCODING 1597
SWIDTH 750 0
DWIDTH 24 0
BBX 20 25 2 -7
BITMAP
040000
040000
0E0000
0F0000
130000
118000
010070
0001F0
0003F0
000790
000C00
100800
201000
201000
401000
403800
801FC0
801FF0
C00070
C00030
E000E0
F003C0
7FFF80
7FFE00
1FF800
ENDCHAR
STARTCHAR 063E
ENCODING 1598
SWIDTH 750 0
DWIDTH 24 0
BBX 20 22 2 -7
BITMAP
008000
07E000
0FC000
1EC070
0401F0
0003F0
000790
000C00
100800
201000
201000
401000
403800
801FC0
801FF0
C00070
C00030
E000E0
F003C0
7FFF80
7FFE00
1FF800
ENDCHAR
STARTCHAR 063F
ENCODING 1599
SWIDTH 750 0
DWIDTH 24 0
BBX 20 25 2 -7
BITMAP
070000
078000
0F0000
028000
07E000
0FC000
1EC070
0401F0
0003F0
000790
000C00
100800
201000
201000
401000
403800
801FC0
801FF0
C00070
C00030
E000E0
F003C0
7FFF80
7FFE00
1FF800
ENDCHAR
STARTCHAR 0640
ENCODING 1600
SWIDTH 187 0
DWIDTH 6 0
BBX 8 3 -1 0
BITMAP
FF
FF
7E
ENDCHAR
STARTCHAR 0641
ENCODING 1601
SWIDTH 968 0
DWIDTH 31 0
BBX 27 23 2 0
BITMAP
00006000
00007000
0000F000
00002000
00000000
00000000
00000000
00000380
000003C0
000007E0
000007E0
00000CE0
40000FE0
400007A0
40000720
80000020
800000E0
800003C0
C0001F80
F001FF00
7FFFFC00
3FFFE000
1FFE0000
ENDCHAR
STARTCHAR 0642
ENCODING 1602
SWIDTH 687 0
DWIDTH 22 0
BBX 18 25 2 -5
BITMAP
000200
001F80
003F00
007B00
001000
000000
000000
000200
000F00
000F00
001F80
101380
201FC0
203FC0
401FC0
401E40
400040
C00040
C000C0
C00180
E00780
F83F00
7FFE00
3FF800
1FE000
ENDCHAR
STARTCHAR 0643
ENCODING 1603
SWIDTH 656 0
DWIDTH 21 0
BBX 17 25 2 0
BITMAP
000400
000600
000700
000600
000600
000600
010200
060200
060300
080300
0F0300
0F0300
070100
070180
7E0180
000180
000180
000180
000080
000080
000080
800380
FFFF00
FFFF00
FFFC00
ENDCHAR
STARTCHAR 0644
ENCODING 1604
SWIDTH 593 0
DWIDTH 19 0
BBX 15 26 2 -2
BITMAP
0004
000C
000E
000E
000C
000C
0004
0004
0004
0006
0006
0006
0006
0006
2006
4002
4002
4002
8002
C002
C006
E00E
F87C
7FF8
7FF0
1FC0
ENDCHAR
STARTCHAR 0645
ENCODING 1605
SWIDTH 437 0
DWIDTH 14 0
BBX 10 27 2 -16
BITMAP
1E00
1F80
3FC0
37C0
2FC0
7FC0
7FC0
F000
C000
8000
8000
C000
C000
C000
4000
6000
6000
6000
2000
2000
3000
3000
1000
1000
1000
1000
1000
ENDCHAR
STARTCHAR 0646
ENCODING 1606
SWIDTH 562 0
DWIDTH 18 0
BBX 14 21 2 -2
BITMAP
0300
0780
0F00
0200
0010
0018
0018
0018
001C
200C
400C
4004
4004
8004
8004
C004
C01C
F078
7FF8
7FE0
1F80
ENDCHAR
STARTCHAR 0647
ENCODING 1607
SWIDTH 375 0
DWIDTH 12 0
BBX 8 12 2 -1
BITMAP
10
1C
3E
7E
7F
47
C3
C3
FE
FE
7C
38
ENDCHAR
STARTCHAR 0648
ENCODING 1608
SWIDTH 406 0
DWIDTH 13 0
BBX 14 16 -3 -7
BITMAP
0030
0078
0078
00DC
00FC
00FC
00FC
0068
0008
0008
0010
0030
0060
01C0
CFC0
3F00
ENDCHAR
STARTCHAR 0649
ENCODING 1609
SWIDTH 750 0
DWIDTH 24 0
BBX 20 19 2 -7
BITMAP
000070
0001F0
0003F0
000790
000C00
100800
201000
201000
401000
403800
801FC0
801FF0
C00070
C00030
E000E0
F003C0
7FFF80
7FFE00
1FF800
ENDCHAR
STARTCHAR 064A
ENCODING 1610
SWIDTH 750 0
DWIDTH 24 0
BBX 20 27 2 -14
BITMAP
000070
0001F0
0003F0
000790
000C00
100800
201000
201000
401000
403800
801FC0
801FF0
C00070
C00030
E000E0
F003C0
7FFF80
7FFE00
1FF800
000000
000000
000000
003000
01B800
03F800
03B000
010000
ENDCHAR
STARTCHAR 064B
ENCODING 1611
SWIDTH 0 0
DWIDTH 0 0
BBX 8 9 4 27
BITMAP
02
06
1C
31
E6
8E
38
70
C0
ENDCHAR
STARTCHAR 064C
ENCODING 1612
SWIDTH 0 0
DWIDTH 0 0
BBX 7 12 4 27
BITMAP
06
0E
12
20
4C
54
5C
6E
0E
08
30
C0
ENDCHAR
STARTCHAR 064D
ENCODING 1613
SWIDTH 0 0
DWIDTH 0 0
BBX 8 9 4 -20
BITMAP
02
06
1C
31
E6
8E
38
70
C0
ENDCHAR
STARTCHAR 064E
ENCODING 1614
SWIDTH 0 0
DWIDTH 0 0
BBX 8 6 4 27
BITMAP
01
07
0E
38
60
C0
ENDCHAR
STARTCHAR 064F
ENCODING 1615
SWIDTH 0 0
DWIDTH 0 0
BBX 8 10 4 27
BITMAP
06
0E
0A
1A
0E
07
08
18
20
C0
ENDCHAR
STARTCHAR 0650
ENCODING 1616
SWIDTH 0 0
DWIDTH 0 0
BBX 8 6 4 -16
BITMAP
01
07
0E
38
60
C0
ENDCHAR
STARTCHAR 0651
ENCODING 1617
SWIDTH 0 0
DWIDTH 0 0
BBX 8 6 3 26
BITMAP
89
92
9E
FE
EC
40
ENDCHAR
STARTCHAR 0652
ENCODING 1618
SWIDTH 0 0
DWIDTH 0 0
BBX 6 6 3 28
BITMAP
30
78
88
84
F8
78
ENDCHAR
STARTCHAR 0653
ENCODING 1619
SWIDTH 0 0
DWIDTH 0 0
BBX 14 4 -7 25
BITMAP
707C
FFF8
FFC0
4000
ENDCHAR
STARTCHAR 0654
ENCODING 1620
SWIDTH 0 0
DWIDTH 0 0
BBX 8 8 -4 13
BITMAP
08
38
78
48
E0
7F
3E
60
ENDCHAR
STARTCHAR 0655
ENCODING 1621
SWIDTH 0 0
DWIDTH 0 0
BBX 8 8 -4 -16
BITMAP
08
38
78
48
E0
7F
3E
60
ENDCHAR
STARTCHAR 0656
ENCODING 1622
SWIDTH 0 0
DWIDTH 0 0
BBX 4 9 3 -20
BITMAP
40
E0
E0
60
30
30
30
10
10
ENDCHAR
STARTCHAR 0657
ENCODING 1623
SWIDTH 0 0
DWIDTH 0 0
BBX 8 10 4 27
BITMAP
03
04
18
10
E0
70
58
50
70
20
ENDCHAR
STARTCHAR 0658
ENCODING 1624
SWIDTH 0 0
DWIDTH 0 0
BBX 5 6 4 27
BITMAP
40
80
88
D0
F0
E0
ENDCHAR
STARTCHAR 0659
ENCODING 1625
SWIDTH 0 0
DWIDTH 0 0
BBX 10 2 4 27
BITMAP
7FC0
FF80
ENDCHAR
STARTCHAR 065A
ENCODING 1626
SWIDTH 0 0
DWIDTH 0 0
BBX 6 7 -3 14
BITMAP
08
8C
9C
58
58
30
10
ENDCHAR
STARTCHAR 065B
ENCODING 1627
SWIDTH 0 0
DWIDTH 0 0
BBX 6 7 -3 14
BITMAP
20
30
30
58
5C
8C
04
ENDCHAR
STARTCHAR 065C
ENCODING 1628
SWIDTH 0 0
DWIDTH 0 0
BBX 7 7 0 -17
BITMAP
38
7C
FE
FE
FE
FE
7C
ENDCHAR
STARTCHAR 065D
ENCODING 1629
SWIDTH 0 0
DWIDTH 0 0
BBX 8 10 4 27
BITMAP
60
70
50
58
70
E0
10
18
04
03
ENDCHAR
STARTCHAR 065E
ENCODING 1630
SWIDTH 0 0
DWIDTH 0 0
BBX 8 6 4 27
BITMAP
41
C7
0E
38
63
C2
ENDCHAR
STARTCHAR 065F
ENCODING 1631
SWIDTH 0 0
DWIDTH 0 0
BBX 12 9 -8 -17
BITMAP
0180
0380
0480
0400
0FF0
07E0
7F80
9C00
8000
ENDCHAR
STARTCHAR 0660
ENCODING 1632
SWIDTH 593 0
DWIDTH 19 0
BBX 5 6 7 3
BITMAP
60
F8
F8
F8
F0
30
ENDCHAR
STARTCHAR 0661
ENCODING 1633
SWIDTH 593 0
DWIDTH 19 0
BBX 5 20 7 -2
BITMAP
40
C0
E0
E0
E0
F0
70
70
30
38
38
18
18
18
18
18
18
18
18
10
ENDCHAR
STARTCHAR 0662
ENCODING 1634
SWIDTH 593 0
DWIDTH 19 0
BBX 11 20 4 -3
BITMAP
C020
C020
E060
F9E0
FFC0
FFC0
7F80
7000
3800
3800
1800
1800
1800
1C00
0C00
0C00
0C00
0C00
0C00
0800
ENDCHAR
STARTCHAR 0663
ENCODING 1635
SWIDTH 593 0
DWIDTH 19 0
BBX 15 21 2 -3
BITMAP
0002
4042
6046
F0C4
F9FC
FFFC
7FFC
3F78
3C00
1800
1800
1C00
0C00
0C00
0C00
0C00
0400
0400
0400
0400
0400
ENDCHAR
STARTCHAR 0664
ENCODING 1636
SWIDTH 593 0
DWIDTH 19 0
BBX 9 21 5 -3
BITMAP
0800
0C00
1800
3800
6000
4000
E000
F800
FE00
7E00
3C00
1C00
3000
6000
4000
6000
F800
FF00
FF80
3F00
0F00
ENDCHAR
STARTCHAR 0665
ENCODING 1637
SWIDTH 593 0
DWIDTH 19 0
BBX 11 14 4 0
BITMAP
0400
1F00
3F80
3FC0
7FC0
41E0
C0E0
C060
C060
E1C0
FFC0
FFC0
7F80
3E00
ENDCHAR
STARTCHAR 0666
ENCODING 1638
SWIDTH 593 0
DWIDTH 19 0
BBX 13 20 3 -3
BITMAP
C000
E040
FFC0
FF80
7F80
1EC0
00C0
00C0
00C0
00C0
00E0
00E0
0060
0070
0070
0078
0038
0030
0010
0010
ENDCHAR
STARTCHAR 0667
ENCODING 1639
SWIDTH 593 0
DWIDTH 19 0
BBX 14 20 2 -2
BITMAP
4004
6004
600C
F00C
701C
7818
3818
1830
1C30
0C60
0E60
0E40
06C0
07C0
0380
0380
0380
0100
0100
0100
ENDCHAR
STARTCHAR 0668
ENCODING 1640
SWIDTH 593 0
DWIDTH 19 0
BBX 14 20 2 -4
BITMAP
0100
0300
0300
0300
0380
0780
05C0
0CC0
0CC0
0CE0
1860
1870
3030
3038
703C
E01C
601C
400C
400C
0004
ENDCHAR
STARTCHAR 0669
ENCODING 1641
SWIDTH 593 0
DWIDTH 19 0
BBX 11 20 4 -1
BITMAP
1E00
1E00
3F00
7F00
4300
C380
C380
FF80
FF80
7F80
3F80
0180
01C0
01C0
00E0
00E0
00E0
0060
0040
0040
ENDCHAR
STARTCHAR 066A
ENCODING 1642
SWIDTH 656 0
DWIDTH 21 0
BBX 19 28 1 -6
BITMAP
000C00
000C00
000800
001800
701800
781000
F81000
303000
003000
002000
006000
006000
004000
004000
00C000
00C000
008000
018000
018000
010000
0101C0
0303E0
0303C0
0200C0
060000
060000
040000
0C0000
ENDCHAR
STARTCHAR 066B
ENCODING 1643
SWIDTH 312 0
DWIDTH 10 0
BBX 7 12 1 -6
BITMAP
0C
1E
1E
02
02
06
04
0C
1C
38
70
E0
ENDCHAR
STARTCHAR 066C
ENCODING 1644
SWIDTH 312 0
DWIDTH 10 0
BBX 8 13 1 6
BITMAP
01
0E
1C
38
30
60
60
40
40
F0
70
70
30
ENDCHAR
STARTCHAR 066D
ENCODING 1645
SWIDTH 531 0
DWIDTH 17 0
BBX 15 14 1 3
BITMAP
0100
0100
0180
0380
0380
FFFE
3FF8
0FF0
07E0
07E0
0FE0
0C70
0810
1008
ENDCHAR
STARTCHAR 066E
ENCODING 1646
SWIDTH 937 0
DWIDTH 30 0
BBX 26 12 2 -1
BITMAP
00000180
00000180
20000180
400001C0
C00000C0
C00000C0
C0000180
E0000780
FC007F80
7FFFFE00
3FFFF000
0FFF8000
ENDCHAR
STARTCHAR 066F
ENCODING 1647
SWIDTH 687 0
DWIDTH 22 0
BBX 18 18 2 -5
BITMAP
000200
000F00
000F00
001F80
101380
201FC0
203FC0
401FC0
401E40
400040
C00040
C000C0
C00180
E00780
F83F00
7FFE00
3FF800
1FE000
ENDCHAR
STARTCHAR 0670
ENCODING 1648
SWIDTH 0 0
DWIDTH 0 0
BBX 4 9 3 29
BITMAP
40
E0
E0
60
30
30
30
10
10
ENDCHAR
STARTCHAR 0671
ENCODING 1649
SWIDTH 218 0
DWIDTH 7 0
BBX 8 31 -1 0
BITMAP
03
0F
09
7E
FE
00
00
00
00
08
18
18
18
18
18
18
18
08
0C
0C
0C
0C
0C
0C
0C
0C
04
04
04
04
08
ENDCHAR
STARTCHAR 0672
ENCODING 1650
SWIDTH 218 0
DWIDTH 7 0
BBX 12 32 -6 0
BITMAP
01C0
03C0
0280
0600
07F0
03F0
3F80
4C00
8000
0000
0040
00C0
00C0
00C0
00C0
00C0
00C0
00C0
0040
0060
0060
0060
0060
0060
0060
0060
0060
0020
0020
0020
0020
0040
ENDCHAR
STARTCHAR 0673
ENCODING 1651
SWIDTH 218 0
DWIDTH 7 0
BBX 12 32 -3 -9
BITMAP
0200
0600
0600
0600
0600
0600
0600
0600
0200
0300
0300
0300
0300
0300
0300
0300
0300
0100
0100
0100
0100
0200
0000
0180
0380
0480
0400
07F0
07E0
7F80
5C00
8000
ENDCHAR
STARTCHAR 0674
ENCODING 1652
SWIDTH 375 0
DWIDTH 12 0
BBX 8 10 2 8
BITMAP
10
38
78
48
C1
FF
FF
3C
30
40
ENDCHAR
STARTCHAR 0675
ENCODING 1653
SWIDTH 593 0
DWIDTH 19 0
BBX 15 23 2 0
BITMAP
0020
4070
C0F0
C090
C182
C1FE
C1FE
C070
C0E0
4080
6000
6000
6000
6000
6000
6000
6000
6000
2000
2000
2000
2000
4000
ENDCHAR
STARTCHAR 0676
ENCODING 1654
SWIDTH 781 0
DWIDTH 25 0
BBX 26 25 -3 -7
BITMAP
00000400
00000E00
00001E00
00003200
00003040
00003FC0
00003F80
00000E00
00001800
00301000
00780000
00780000
00DC0000
00FC0000
00FC0000
00FC0000
00680000
00080000
00080000
00100000
00300000
00600000
01C00000
CFC00000
3F000000
ENDCHAR
STARTCHAR 0677
ENCODING 1655
SWIDTH 781 0
DWIDTH 25 0
BBX 26 28 -3 -7
BITMAP
00700000
00F00000
00F00000
00B00400
00100E00
00301E00
00203200
00203040
00403FC0
00403F80
00000E00
00001800
00301000
00780000
00780000
00DC0000
00FC0000
00FC0000
00FC0000
00680000
00080000
00080000
00100000
00300000
00600000
01C00000
CFC00000
3F000000
ENDCHAR
STARTCHAR 0678
ENCODING 1656
SWIDTH 1156 0
DWIDTH 37 0
BBX 33 37 2 -14
BITMAP
0000000800
0000001C00
0000003C00
0000004800
0000006080
000000FF00
0000007F00
0000003C00
0000003000
0000004000
0000700000
0001F00000
0003F00000
0007900000
000C000000
1008000000
2010000000
2010000000
4010000000
4038000000
801FC00000
801FF00000
C000700000
C000300000
E000E00000
F003C00000
7FFF800000
7FFE000000
1FF8000000
0000000000
0000000000
0000000000
0030000000
01B8000000
03F8000000
03B0000000
0100000000
ENDCHAR
STARTCHAR 0679
ENCODING 1657
SWIDTH 937 0
DWIDTH 30 0
BBX 26 20 2 -1
BITMAP
00100000
00100000
00100000
00100000
00080000
000B8000
000D8000
00098000
009F0180
007C0180
20000180
400001C0
C00000C0
C00000C0
C0000180
E0000780
FC007F80
7FFFFE00
3FFFF000
0FFF8000
ENDCHAR
STARTCHAR 067A
ENCODING 1658
SWIDTH 937 0
DWIDTH 30 0
BBX 26 18 2 -1
BITMAP
00180000
001C0000
003C0000
000C0000
001E0000
001C0000
000C0180
00000180
20000180
400001C0
C00000C0
C00000C0
C0000180
E0000780
FC007F80
7FFFFE00
3FFFF000
0FFF8000
ENDCHAR
STARTCHAR 067B
ENCODING 1659
SWIDTH 937 0
DWIDTH 30 0
BBX 26 23 2 -11
BITMAP
00000180
00000180
20000180
400001C0
C00000C0
C00000C0
C0000180
E0000780
FC007F80
7FFFFE00
3FFFF000
0FFF8000
00000000
00000000
00000000
00000000
00060000
000F0000
000E0000
00060000
00070000
000F0000
00020000
ENDCHAR
STARTCHAR 067C
ENCODING 1660
SWIDTH 937 0
DWIDTH 30 0
BBX 26 20 2 -5
BITMAP
00020000
00370000
007F0000
00720000
00100180
00000180
20000180
400001C0
C00000C0
C00000C0
C0000180
E0000780
FC007F80
7FFFFE00
3FFFF000
0FFF8000
000E0000
00120000
00110000
001E0000
ENDCHAR
STARTCHAR 067D
ENCODING 1661
SWIDTH 937 0
DWIDTH 30 0
BBX 26 19 2 -1
BITMAP
00060000
00370000
003F0000
007E0000
00140000
000F0000
001E0000
000C0180
00000180
20000180
400001C0
C00000C0
C00000C0
C0000180
E0000780
FC007F80
7FFFFE00
3FFFF000
0FFF8000
ENDCHAR
STARTCHAR 067E
ENCODING 1662
SWIDTH 937 0
DWIDTH 30 0
BBX 26 23 2 -11
BITMAP
00000180
00000180
20000180
400001C0
C00000C0
C00000C0
C0000180
E0000780
FC007F80
7FFFFE00
3FFFF000
0FFF8000
00000000
00000000
00000000
00010000
001BC000
001F8000
003F0000
000A0000
00078000
000F0000
00020000
ENDCHAR
STARTCHAR 067F
ENCODING 1663
SWIDTH 937 0
DWIDTH 30 0
BBX 26 20 2 -1
BITMAP
00040000
00270000
007F0000
00F60000
00320000
00370000
007F0000
00720000
00100180
00000180
20000180
400001C0
C00000C0
C00000C0
C0000180
E0000780
FC007F80
7FFFFE00
3FFFF000
0FFF8000
ENDCHAR
STARTCHAR 0680
ENCODING 1664
SWIDTH 937 0
DWIDTH 30 0
BBX 26 23 2 -11
BITMAP
00000180
00000180
20000180
400001C0
C00000C0
C00000C0
C0000180
E0000780
FC007F80
7FFFFE00
3FFFF000
0FFF8000
00000000
00000000
00010000
001B8000
001F8000
003F8000
00190000
000FC000
001F8000
003D8000
00080000
ENDCHAR
STARTCHAR 0681
ENCODING 1665
SWIDTH 656 0
DWIDTH 21 0
BBX 22 37 2 -17
BITMAP
004000
01C000
03C000
024000
070000
03F000
01F000
070000
000000
000000
000000
000000
000000
3FC1C0
7FFFC0
7FFF80
01F800
038000
0E0000
180000
100000
200000
600000
400000
400000
C00000
800000
C00000
C00000
C00000
E00000
F00000
780000
7E0000
3FFFFC
0FFFF0
03FFC0
ENDCHAR
STARTCHAR 0682
ENCODING 1666
SWIDTH 656 0
DWIDTH 21 0
BBX 22 35 2 -17
BITMAP
018000
01C000
03C000
00C000
01E000
01C000
004000
000000
000000
000000
000000
3FC1C0
7FFFC0
7FFF80
01F800
038000
0E0000
180000
100000
200000
600000
400000
400000
C00000
800000
C00000
C00000
C00000
E00000
F00000
780000
7E0000
3FFFFC
0FFFF0
03FFC0
ENDCHAR
STARTCHAR 0683
ENCODING 1667
SWIDTH 656 0
DWIDTH 21 0
BBX 22 24 2 -17
BITMAP
3FC1C0
7FFFC0
7FFF80
01F800
038000
0E0000
180000
100000
200000
600000
400800
406E00
C0FE00
81EC00
C04000
C00000
C00000
E00000
F00000
780000
7E0000
3FFFFC
0FFFF0
03FFC0
ENDCHAR
STARTCHAR 0684
ENCODING 1668
SWIDTH 656 0
DWIDTH 21 0
BBX 22 24 2 -17
BITMAP
3FC1C0
7FFFC0
7FFF80
01F800
038000
0E0000
180000
100000
200000
600000
403000
407800
C0F000
803000
C03800
C07800
C01000
E00000
F00000
780000
7E0000
3FFFFC
0FFFF0
03FFC0
ENDCHAR
STARTCHAR 0685
ENCODING 1669
SWIDTH 656 0
DWIDTH 21 0
BBX 22 36 2 -17
BITMAP
018000
01C000
03C000
00A000
017000
03F000
07A000
010000
000000
000000
000000
000000
3FC1C0
7FFFC0
7FFF80
01F800
038000
0E0000
180000
100000
200000
600000
400000
400000
C00000
800000
C00000
C00000
C00000
E00000
F00000
780000
7E0000
3FFFFC
0FFFF0
03FFC0
ENDCHAR
STARTCHAR 0686
ENCODING 1670
SWIDTH 656 0
DWIDTH 21 0
BBX 22 24 2 -17
BITMAP
3FC1C0
7FFFC0
7FFF80
01F800
038000
0E0000
180000
100000
200000
601800
40DC00
41FC00
C1D800
807000
C03800
C07800
C03000
E00000
F00000
780000
7E0000
3FFFFC
0FFFF0
03FFC0
ENDCHAR
STARTCHAR 0687
ENCODING 1671
SWIDTH 656 0
DWIDTH 21 0
BBX 22 24 2 -17
BITMAP
3FC1C0
7FFFC0
7FFF80
01F800
038000
0E0000
180000
100000
201000
609C00
41FC00
41D800
C0C800
80DE00
C0FC00
C1EC00
C04000
E00000
F00000
780000
7E0000
3FFFFC
0FFFF0
03FFC0
ENDCHAR
STARTCHAR 0688
ENCODING 1672
SWIDTH 437 0
DWIDTH 14 0
BBX 10 27 2 0
BITMAP
1000
1000
1000
1000
1000
1300
1580
0980
9F00
7C00
0000
0000
0000
0000
0000
0E00
1F00
0F80
0380
01C0
00C0
0040
0040
01C0
7FC0
7F80
7E00
ENDCHAR
STARTCHAR 0689
ENCODING 1673
SWIDTH 437 0
DWIDTH 14 0
BBX 9 15 3 -3
BITMAP
1C00
3E00
1F00
0700
0380
0180
0080
0080
0380
FF80
FF00
FE00
1200
1200
1E00
ENDCHAR
STARTCHAR 068A
ENCODING 1674
SWIDTH 437 0
DWIDTH 14 0
BBX 9 19 3 -6
BITMAP
1C00
3E00
1F00
0700
0380
0180
0080
0080
0380
FF80
FF00
FC00
0000
0000
0000
0C00
1E00
1C00
0C00
ENDCHAR
STARTCHAR 068B
ENCODING 1675
SWIDTH 437 0
DWIDTH 14 0
BBX 10 34 2 -7
BITMAP
1000
1000
1000
1000
1000
1300
1580
0980
9F00
7C00
0000
0000
0000
0000
0000
0E00
1F00
0F80
0380
01C0
00C0
0040
0040
01C0
7FC0
7F80
7E00
0000
0000
0000
0600
0F00
0E00
0600
ENDCHAR
STARTCHAR 068C
ENCODING 1676
SWIDTH 437 0
DWIDTH 14 0
BBX 9 22 3 0
BITMAP
0C00
6E00
FE00
EC00
6000
0000
0000
0000
0000
0000
1C00
3E00
1F00
0700
0380
0180
0080
0080
0380
FF80
FF00
FC00
ENDCHAR
STARTCHAR 068D
ENCODING 1677
SWIDTH 437 0
DWIDTH 14 0
BBX 9 20 3 -7
BITMAP
1C00
3E00
1F00
0700
0380
0180
0080
0080
0380
FF80
FF00
FC00
0000
0000
0000
0200
3780
3F00
7A00
1000
ENDCHAR
STARTCHAR 068E
ENCODING 1678
SWIDTH 437 0
DWIDTH 14 0
BBX 9 25 3 0
BITMAP
3000
7800
7000
1C00
6E00
FE00
EC00
2000
0000
0000
0000
0000
0000
1C00
3E00
1F00
0700
0380
0180
0080
0080
0380
FF80
FF00
FC00
ENDCHAR
STARTCHAR 068F
ENCODING 1679
SWIDTH 437 0
DWIDTH 14 0
BBX 9 25 3 0
BITMAP
0C00
6E00
FE00
EC00
3800
1C00
3C00
1800
0000
0000
0000
0000
0000
1C00
3E00
1F00
0700
0380
0180
0080
0080
0380
FF80
FF00
FC00
ENDCHAR
STARTCHAR 0690
ENCODING 1680
SWIDTH 437 0
DWIDTH 14 0
BBX 10 26 2 0
BITMAP
0400
2E00
7F00
FE00
2600
3700
7F00
7600
3000
0000
0000
0000
0000
0000
0E00
1F00
0F80
0380
01C0
00C0
0040
0040
01C0
7FC0
7F80
7E00
ENDCHAR
STARTCHAR 0691
ENCODING 1681
SWIDTH 406 0
DWIDTH 13 0
BBX 14 31 -3 -7
BITMAP
0100
0100
0100
0100
0100
0130
01D0
0130
0BF0
0780
0000
0000
0000
0000
0000
0010
0010
0038
0038
001C
000C
000C
0004
000C
0008
0018
0038
0070
01E0
FFC0
1F80
ENDCHAR
STARTCHAR 0692
ENCODING 1682
SWIDTH 406 0
DWIDTH 13 0
BBX 14 28 -3 -7
BITMAP
0020
0230
0260
0160
0140
00C0
0040
0000
0000
0000
0000
0000
0010
0010
0038
0038
001C
000C
000C
0004
000C
0008
0018
0038
0070
01E0
FFC0
1F80
ENDCHAR
STARTCHAR 0693
ENCODING 1683
SWIDTH 406 0
DWIDTH 13 0
BBX 14 20 -3 -12
BITMAP
0010
0010
0038
0038
001C
000C
000C
0004
000C
0008
0018
0038
0070
01E0
FFC0
1F80
0F00
0900
0900
0F00
ENDCHAR
STARTCHAR 0694
ENCODING 1684
SWIDTH 406 0
DWIDTH 13 0
BBX 14 20 -3 -11
BITMAP
0010
0010
0038
0038
001C
000C
000C
0004
000C
0008
0018
0038
0070
01E0
FFC0
1F80
0018
003C
0038
0018
ENDCHAR
STARTCHAR 0695
ENCODING 1685
SWIDTH 406 0
DWIDTH 13 0
BBX 14 24 -3 -15
BITMAP
0010
0010
0038
0038
001C
000C
000C
0004
000C
0008
0018
0038
0070
01E0
FFC0
1F80
0000
0004
008C
004C
0058
0038
0030
0010
ENDCHAR
STARTCHAR 0696
ENCODING 1686
SWIDTH 406 0
DWIDTH 13 0
BBX 14 20 -3 -11
BITMAP
0010
0010
0038
0038
001C
000C
000C
0004
0C0C
0E08
1E18
0438
0070
01E0
FFC0
1F80
0018
003C
0038
0018
ENDCHAR
STARTCHAR 0697
ENCODING 1687
SWIDTH 406 0
DWIDTH 13 0
BBX 14 24 -3 -7
BITMAP
0020
0378
03F0
07A0
0100
0000
0000
0000
0010
0010
0038
0038
001C
000C
000C
0004
000C
0008
0018
0038
0070
01E0
FFC0
1F80
ENDCHAR
STARTCHAR 0698
ENCODING 1688
SWIDTH 406 0
DWIDTH 13 0
BBX 14 27 -3 -7
BITMAP
0180
01C0
03C0
00A0
0370
03F0
07A0
0100
0000
0000
0000
0010
0010
0038
0038
001C
000C
000C
0004
000C
0008
0018
0038
0070
01E0
FFC0
1F80
ENDCHAR
STARTCHAR 0699
ENCODING 1689
SWIDTH 406 0
DWIDTH 13 0
BBX 14 28 -3 -7
BITMAP
0040
0270
07F0
0760
0320
0378
03F0
07A0
0100
0000
0000
0000
0010
0010
0038
0038
001C
000C
000C
0004
000C
0008
0018
0038
0070
01E0
FFC0
1F80
ENDCHAR
STARTCHAR 069A
ENCODING 1690
SWIDTH 1000 0
DWIDTH 32 0
BBX 28 26 2 -7
BITMAP
00000600
00000F00
00000E00
00000200
00000000
00000000
00000000
00000020
00000130
00000330
00008330
0000C7E0
0001FFE0
2000FDE0
4000FC00
4000F000
40004000
80004000
80004000
C000C000
C0018300
E0038780
F80F0700
7FFE0100
3FFC0000
1FF00000
ENDCHAR
STARTCHAR 069B
ENCODING 1691
SWIDTH 1000 0
DWIDTH 32 0
BBX 28 21 2 -9
BITMAP
00000020
00000130
00000330
00008330
0000C7E0
0001FFE0
2000FDE0
4000FC00
4000F000
40004000
80004000
80004000
C000C000
C0018080
E00387E0
F80F0FC0
7FFE0EC0
3FFC0500
1FF003C0
00000380
00000180
ENDCHAR
STARTCHAR 069C
ENCODING 1692
SWIDTH 1000 0
DWIDTH 32 0
BBX 28 32 2 -9
BITMAP
00000C00
00000E00
00001E00
00000500
00000B80
00001F80
00003D00
00000800
00000000
00000000
00000000
00000020
00000130
00000330
00008330
0000C7E0
0001FFE0
2000FDE0
4000FC00
4000F000
40004000
80004000
80004000
C000C000
C0018080
E00387E0
F80F0FC0
7FFE0EC0
3FFC0500
1FF003C0
00000380
00000180
ENDCHAR
STARTCHAR 069D
ENCODING 1693
SWIDTH 1218 0
DWIDTH 39 0
BBX 35 20 2 -8
BITMAP
0000000100
0000000FC0
0000001FC0
0000007FE0
000080E0E0
00008180C0
1001C303C0
2001FFFF80
2001FFFF00
4000FFF800
4000C60000
C000400000
C000400000
C000800000
C000801000
E00380DC00
F81F01FC00
7FFE03D800
3FFC008000
1FF0000000
ENDCHAR
STARTCHAR 069E
ENCODING 1694
SWIDTH 1218 0
DWIDTH 39 0
BBX 35 30 2 -8
BITMAP
0000018000
000003C000
0000078000
0000014000
000003F000
000007E000
0000076000
0000030000
0000000000
0000000000
0000000100
0000000FC0
0000001FC0
0000007FE0
000080E0E0
00008180C0
1001C303C0
2001FFFF80
2001FFFF00
4000FFF800
4000C60000
C000400000
C000400000
C000800000
C000800000
E003800000
F81F000000
7FFE000000
3FFC000000
1FF0000000
ENDCHAR
STARTCHAR 069F
ENCODING 1695
SWIDTH 781 0
DWIDTH 25 0
BBX 21 24 2 -1
BITMAP
008000
018000
01C380
01C3C0
008780
008140
0083F0
0087E0
00CF60
00C200
00C000
00C000
00C000
0040F0
0043F8
004FF8
005C38
007018
00C0F0
0187F0
83FFE0
FFFF00
7FF800
1F8000
ENDCHAR
STARTCHAR 06A0
ENCODING 1696
SWIDTH 531 0
DWIDTH 17 0
BBX 21 40 2 -15
BITMAP
300000
780000
700000
140000
6E0000
7E0000
FC0000
200000
000000
000000
060000
1F0000
3C8000
300000
600800
401800
607000
7FE000
3F8000
1F0000
0C0000
180000
300000
200000
400000
400000
400000
800000
800000
800000
800000
800000
800000
C00000
E00000
700000
3E0018
3FFFF0
0FFFC0
03FF00
ENDCHAR
STARTCHAR 06A1
ENCODING 1697
SWIDTH 968 0
DWIDTH 31 0
BBX 27 16 2 1
BITMAP
00000380
000003C0
000007E0
000007E0
00000CE0
40000FE0
400007A0
40000720
80000020
800000E0
800003C0
C0001F80
F001FF00
7FFFFC00
3FFFE000
1FFE0000
ENDCHAR
STARTCHAR 06A2
ENCODING 1698
SWIDTH 968 0
DWIDTH 31 0
BBX 27 20 2 -3
BITMAP
00000380
000003C0
000007E0
000007E0
00000CE0
40000FE0
400007A0
40000720
80000020
800000E0
800003C0
C0001F80
F001FF00
7FFFFC00
3FFFE000
1FFE0000
000000C0
000001E0
000003C0
00000080
ENDCHAR
STARTCHAR 06A3
ENCODING 1699
SWIDTH 968 0
DWIDTH 31 0
BBX 27 27 2 -4
BITMAP
00006000
00007000
0000F000
00002000
00000000
00000000
00000000
00000380
000003C0
000007E0
000007E0
00000CE0
40000FE0
400007A0
40000720
80000020
800000E0
800003C0
C0001F80
F001FF00
7FFFFC00
3FFFE000
1FFE0000
000000C0
000001E0
000003C0
00000080
ENDCHAR
STARTCHAR 06A4
ENCODING 1700
SWIDTH 968 0
DWIDTH 31 0
BBX 27 27 2 0
BITMAP
00006000
0000F000
0001E000
00005000
0000FC00
0001F800
0001D800
0000C000
00000000
00000000
00000000
00000380
000003C0
000007E0
000007E0
00000CE0
40000FE0
400007A0
40000720
80000020
800000E0
800003C0
C0001F80
F001FF00
7FFFFC00
3FFFE000
1FFE0000
ENDCHAR
STARTCHAR 06A5
ENCODING 1701
SWIDTH 968 0
DWIDTH 31 0
BBX 28 24 2 -7
BITMAP
00000380
000003C0
000007E0
000007E0
00000CE0
40000FE0
400007A0
40000720
80000020
800000E0
800003C0
C0001F80
F001FF00
7FFFFC00
3FFFE000
1FFE0000
00000060
00000370
000003F0
000007E0
00000140
000000F0
000001E0
00000040
ENDCHAR
STARTCHAR 06A6
ENCODING 1702
SWIDTH 968 0
DWIDTH 31 0
BBX 27 28 2 0
BITMAP
00001000
0001BC00
0001F800
0003F800
00019000
0000DC00
0001F800
0003D800
00008000
00000000
00000000
00000000
00000380
000003C0
000007E0
000007E0
00000CE0
40000FE0
400007A0
40000720
80000020
800000E0
800003C0
C0001F80
F001FF00
7FFFFC00
3FFFE000
1FFE0000
ENDCHAR
STARTCHAR 06A7
ENCODING 1703
SWIDTH 687 0
DWIDTH 22 0
BBX 18 24 2 -5
BITMAP
000C00
000E00
001E00
000400
000000
000000
000200
000F00
000F00
001F80
101380
201FC0
203FC0
401FC0
401E40
400040
C00040
C000C0
C00180
E00780
F83F00
7FFE00
3FF800
1FE000
ENDCHAR
STARTCHAR 06A8
ENCODING 1704
SWIDTH 687 0
DWIDTH 22 0
BBX 18 28 2 -5
BITMAP
000C00
001E00
003C00
000A00
001F80
003F00
007B00
001000
000000
000000
000200
000F00
000F00
001F80
101380
201FC0
203FC0
401FC0
401E40
400040
C00040
C000C0
C00180
E00780
F83F00
7FFE00
3FF800
1FE000
ENDCHAR
STARTCHAR 06A9
ENCODING 1705
SWIDTH 1187 0
DWIDTH 38 0
BBX 35 26 2 -2
BITMAP
00000000E0
00000007C0
0000001FC0
000000FF00
000003FC00
000007E000
00001F8000
00003C0000
0000700000
0000C00000
0000C00000
0000E00000
0000780000
00003C0000
00001E0000
4000060000
4000030000
8000010000
8000010000
8000010000
8000070000
E0001F0000
F801FE0000
7FFFF80000
3FFFE00000
0FFE000000
ENDCHAR
STARTCHAR 06AA
ENCODING 1706
SWIDTH 1906 0
DWIDTH 61 0
BBX 57 20 2 -1
BITMAP
000000C000000000
000007C000000000
00001FC000000000
00007E0000000000
0001F00000000000
0003C00000000000
0007000000000000
000C000000000000
0018000000000000
003000000007F800
007800003FFFFE00
007FFFFFFFFFFF00
003FFFFFFE000780
0000FF8000000380
0000000000000380
000000000007FF00
C00000001FFFFE00
7FFFFFFFFFFFFC00
7FFFFFFFFFC00000
1FFFFFFF00000000
ENDCHAR
STARTCHAR 06AB
ENCODING 1707
SWIDTH 1187 0
DWIDTH 38 0
BBX 35 26 2 -2
BITMAP
00000000E0
00000007C0
0000001FC0
000000FF00
000003FC00
000007E000
00001FE000
00003D2000
0000712000
0000C1E000
0000C00000
0000E00000
0000780000
00003C0000
00001E0000
4000060000
4000030000
8000010000
8000010000
8000010000
8000070000
E0001F0000
F801FE0000
7FFFF80000
3FFFE00000
0FFE000000
ENDCHAR
STARTCHAR 06AC
ENCODING 1708
SWIDTH 656 0
DWIDTH 21 0
BBX 17 25 2 0
BITMAP
000400
060600
070700
0F0600
020600
000600
010200
060200
060300
080300
0F0300
0F0300
070100
070180
7E0180
000180
000180
000180
000080
000080
000080
800380
FFFF00
FFFF00
FFFC00
ENDCHAR
STARTCHAR 06AD
ENCODING 1709
SWIDTH 656 0
DWIDTH 21 0
BBX 17 28 2 0
BITMAP
0E0000
0F0000
1E0000
050400
0FC600
1F8700
3D8600
080600
000600
010200
060200
060300
080300
0F0300
0F0300
070100
070180
7E0180
000180
000180
000180
000080
000080
000080
800380
FFFF00
FFFF00
FFFC00
ENDCHAR
STARTCHAR 06AE
ENCODING 1710
SWIDTH 656 0
DWIDTH 21 0
BBX 17 34 2 -9
BITMAP
000400
000600
000700
000600
000600
000600
010200
060200
060300
080300
0F0300
0F0300
070100
070180
7E0180
000180
000180
000180
000080
000080
000080
800380
FFFF00
FFFF00
FFFC00
000000
008000
07E000
0FC000
0EC000
038000
01C000
03C000
018000
ENDCHAR
STARTCHAR 06AF
ENCODING 1711
SWIDTH 1187 0
DWIDTH 38 0
BBX 35 29 2 -2
BITMAP
00000000E0
0000000780
0000003C00
000001E0E0
00000707C0
00001C1FC0
000010FF00
000003FC00
000007E000
00001F8000
00003C0000
0000700000
0000C00000
0000C00000
0000E00000
0000780000
00003C0000
00001E0000
4000060000
4000030000
8000010000
8000010000
8000010000
8000070000
E0001F0000
F801FE0000
7FFFF80000
3FFFE00000
0FFE000000
ENDCHAR
STARTCHAR 06B0
ENCODING 1712
SWIDTH 1187 0
DWIDTH 38 0
BBX 35 29 2 -2
BITMAP
00000000E0
0000000780
0000003C00
000001E0E0
00000707C0
00001C1FC0
000010FF00
000003FC00
000007E000
00001FE000
00003D2000
0000712000
0000C1E000
0000C00000
0000E00000
0000780000
00003C0000
00001E0000
4000060000
4000030000
8000010000
8000010000
8000010000
8000070000
E0001F0000
F801FE0000
7FFFF80000
3FFFE00000
0FFE000000
ENDCHAR
STARTCHAR 06B1
ENCODING 1713
SWIDTH 1187 0
DWIDTH 38 0
BBX 35 29 2 -2
BITMAP
00000000E0
0000000780
0000803C00
0006E1E0E0
000FE707C0
001EDC1FC0
000410FF00
000003FC00
000007E000
00001F8000
00003C0000
0000700000
0000C00000
0000C00000
0000E00000
0000780000
00003C0000
00001E0000
4000060000
4000030000
8000010000
8000010000
8000010000
8000070000
E0001F0000
F801FE0000
7FFFF80000
3FFFE00000
0FFE000000
ENDCHAR
STARTCHAR 06B2
ENCODING 1714
SWIDTH 1187 0
DWIDTH 38 0
BBX 35 35 2 -8
BITMAP
00000000E0
0000000780
0000003C00
000001E0E0
00000707C0
00001C1FC0
000010FF00
000003FC00
000007E000
00001F8000
00003C0000
0000700000
0000C00000
0000C00000
0000E00000
0000780000
00003C0000
00001E0000
4000060000
4000030000
8000010000
8000010000
8000010000
8000070000
E0001F0000
F801FE0000
7FFFF80000
3FFFE00000
0FFE000000
0000000000
0002000000
0037800000
003F000000
007A000000
0010000000
ENDCHAR
STARTCHAR 06B3
ENCODING 1715
SWIDTH 1187 0
DWIDTH 38 0
BBX 35 36 2 -9
BITMAP
00000000E0
0000000780
0000003C00
000001E0E0
00000707C0
00001C1FC0
000010FF00
000003FC00
000007E000
00001F8000
00003C0000
0000700000
0000C00000
0000C00000
0000E00000
0000780000
00003C0000
00001E0000
4000060000
4000030000
8000010000
8000010000
8000010000
8000070000
E0001F0000
F801FE0000
7FFFF80000
3FFFE00000
0FFE000000
000C000000
001E000000
003C000000
000C000000
000E000000
001E000000
0004000000
ENDCHAR
STARTCHAR 06B4
ENCODING 1716
SWIDTH 1187 0
DWIDTH 38 0
BBX 35 30 2 -2
BITMAP
0003000020
00078000C0
0007000780
0002803C00
0007E1E0E0
000FC707C0
000EDC1FC0
000610FF00
000003FC00
000007E000
00001F8000
00003C0000
0000700000
0000C00000
0000C00000
0000E00000
0000780000
00003C0000
00001E0000
4000060000
4000030000
8000010000
8000010000
8000010000
8000070000
E0001F0000
F801FE0000
7FFFF80000
3FFFE00000
0FFE000000
ENDCHAR
STARTCHAR 06B5
ENCODING 1717
SWIDTH 593 0
DWIDTH 19 0
BBX 15 30 2 -2
BITMAP
0020
0460
0260
02C0
01C4
018C
008E
000E
000C
000C
0004
0004
0004
0006
0006
0006
0006
0006
2006
4002
4002
4002
8002
C002
C006
E00E
F87C
7FF8
7FF0
1FC0
ENDCHAR
STARTCHAR 06B6
ENCODING 1718
SWIDTH 593 0
DWIDTH 19 0
BBX 15 26 2 -2
BITMAP
0184
01CC
03CE
008E
000C
000C
0004
0004
0004
0006
0006
0006
0006
0006
2006
4002
4002
4002
8002
C002
C006
E00E
F87C
7FF8
7FF0
1FC0
ENDCHAR
STARTCHAR 06B7
ENCODING 1719
SWIDTH 593 0
DWIDTH 19 0
BBX 15 27 2 -2
BITMAP
0600
0F04
0E0C
028E
0DCE
0FCC
1F8C
0404
0004
0004
0006
0006
0006
0006
0006
2006
4002
4002
4002
8002
C002
C006
E00E
F87C
7FF8
7FF0
1FC0
ENDCHAR
STARTCHAR 06B8
ENCODING 1720
SWIDTH 593 0
DWIDTH 19 0
BBX 15 35 2 -11
BITMAP
0004
000C
000E
000E
000C
000C
0004
0004
0004
0006
0006
0006
0006
0006
2006
4002
4002
4002
8002
C002
C006
E00E
F87C
7FF8
7FF0
1FC0
0000
0020
0370
03F0
07A0
0140
00F0
00E0
0060
ENDCHAR
STARTCHAR 06B9
ENCODING 1721
SWIDTH 562 0
DWIDTH 18 0
BBX 14 28 2 -9
BITMAP
0300
0780
0F00
0200
0010
0018
0018
0018
001C
200C
400C
4004
4004
8004
8004
C004
C01C
F078
7FF8
7FE0
1F80
0000
0000
0000
0300
0780
0700
0100
ENDCHAR
STARTCHAR 06BA
ENCODING 1722
SWIDTH 562 0
DWIDTH 18 0
BBX 14 17 2 -2
BITMAP
0010
0018
0018
0018
001C
200C
400C
4004
4004
8004
8004
C004
C01C
F078
7FF8
7FE0
1F80
ENDCHAR
STARTCHAR 06BB
ENCODING 1723
SWIDTH 562 0
DWIDTH 18 0
BBX 14 28 2 -2
BITMAP
0400
0400
0400
0400
0400
04E0
0560
0260
27C0
1F00
0000
0010
0018
0018
0018
001C
200C
400C
4004
4004
8004
8004
C004
C01C
F078
7FF8
7FE0
1F80
ENDCHAR
STARTCHAR 06BC
ENCODING 1724
SWIDTH 562 0
DWIDTH 18 0
BBX 14 25 2 -7
BITMAP
0300
0780
0F00
0200
0010
0018
0018
0018
001C
200C
400C
4004
4004
8004
8004
C004
C01C
F078
7FF8
7FE0
1F80
0780
0480
0480
0780
ENDCHAR
STARTCHAR 06BD
ENCODING 1725
SWIDTH 562 0
DWIDTH 18 0
BBX 14 25 2 -2
BITMAP
0600
0F00
0E00
0380
0DC0
0FC0
1D80
0400
0010
0018
0018
0018
001C
200C
400C
4004
4004
8004
8004
C004
C01C
F078
7FF8
7FE0
1F80
ENDCHAR
STARTCHAR 06BE
ENCODING 1726
SWIDTH 593 0
DWIDTH 19 0
BBX 16 11 2 0
BITMAP
00C0
01E0
03F0
067C
045E
084E
0CC3
0FC2
1FFE
FFFC
7000
ENDCHAR
STARTCHAR 06BF
ENCODING 1727
SWIDTH 656 0
DWIDTH 21 0
BBX 22 32 2 -17
BITMAP
00C000
01E000
01C000
004000
000000
000000
000000
000000
3FC1C0
7FFFC0
7FFF80
01F800
038000
0E0000
180000
100000
200000
601800
40DC00
41FC00
C1D800
807000
C03800
C07800
C03000
E00000
F00000
780000
7E0000
3FFFFC
0FFFF0
03FFC0
ENDCHAR
STARTCHAR 06C0
ENCODING 1728
SWIDTH 375 0
DWIDTH 12 0
BBX 8 25 2 -1
BITMAP
10
38
78
50
E0
FE
7C
E0
00
00
00
00
00
10
1C
3E
7E
7F
47
C3
C3
FE
FE
7C
38
ENDCHAR
STARTCHAR 06C1
ENCODING 1729
SWIDTH 375 0
DWIDTH 12 0
BBX 8 12 2 -1
BITMAP
10
1C
3E
7E
7F
47
C3
C3
FE
FE
7C
38
ENDCHAR
STARTCHAR 06C2
ENCODING 1730
SWIDTH 375 0
DWIDTH 12 0
BBX 8 25 2 -1
BITMAP
10
38
78
50
E0
FE
7C
E0
00
00
00
00
00
10
1C
3E
7E
7F
47
C3
C3
FE
FE
7C
38
ENDCHAR
STARTCHAR 06C3
ENCODING 1731
SWIDTH 375 0
DWIDTH 12 0
BBX 8 21 2 -1
BITMAP
04
6E
FE
E4
20
00
00
00
00
10
1C
3E
7E
7F
47
C3
C3
FE
FE
7C
38
ENDCHAR
STARTCHAR 06C4
ENCODING 1732
SWIDTH 406 0
DWIDTH 13 0
BBX 14 16 -3 -7
BITMAP
0030
0078
0078
00DC
00FC
00FC
00FC
0068
0008
0308
0590
04B0
04E0
07C0
CFC0
3F00
ENDCHAR
STARTCHAR 06C5
ENCODING 1733
SWIDTH 406 0
DWIDTH 13 0
BBX 16 16 -3 -7
BITMAP
0030
0078
0078
00DC
00FC
00FC
00FC
0068
0008
00FF
0010
0030
0060
01C0
CFC0
3F00
ENDCHAR
STARTCHAR 06C6
ENCODING 1734
SWIDTH 406 0
DWIDTH 13 0
BBX 14 26 -3 -7
BITMAP
0008
008C
0098
0058
0070
0030
0010
0000
0000
0000
0030
0078
0078
00DC
00FC
00FC
00FC
0068
0008
0008
0010
0030
0060
01C0
CFC0
3F00
ENDCHAR
STARTCHAR 06C7
ENCODING 1735
SWIDTH 406 0
DWIDTH 13 0
BBX 14 28 -3 -7
BITMAP
0070
00F0
00F0
00B0
0010
0030
0020
0020
0040
0040
0000
0000
0030
0078
0078
00DC
00FC
00FC
00FC
0068
0008
0008
0010
0030
0060
01C0
CFC0
3F00
ENDCHAR
STARTCHAR 06C8
ENCODING 1736
SWIDTH 406 0
DWIDTH 13 0
BBX 14 27 -3 -6
BITMAP
0080
00C0
00E0
00E0
0060
0020
0020
0020
0020
0000
0000
0030
0078
0078
00DC
00FC
00FC
00FC
0068
0008
0008
0010
0030
0060
01C0
CFC0
3F00
ENDCHAR
STARTCHAR 06C9
ENCODING 1737
SWIDTH 406 0
DWIDTH 13 0
BBX 14 26 -3 -7
BITMAP
0020
0030
0070
0058
0098
008C
0008
0000
0000
0000
0030
0078
0078
00DC
00FC
00FC
00FC
0068
0008
0008
0010
0030
0060
01C0
CFC0
3F00
ENDCHAR
STARTCHAR 06CA
ENCODING 1738
SWIDTH 406 0
DWIDTH 13 0
BBX 14 24 -3 -7
BITMAP
0030
01B8
03F8
03B0
0100
0000
0000
0000
0030
0078
0078
00DC
00FC
00FC
00FC
0068
0008
0008
0010
0030
0060
01C0
CFC0
3F00
ENDCHAR
STARTCHAR 06CB
ENCODING 1739
SWIDTH 406 0
DWIDTH 13 0
BBX 14 27 -3 -7
BITMAP
00C0
01E0
01C0
00A0
01F8
03F0
03B0
0180
0000
0000
0000
0030
0078
0078
00DC
00FC
00FC
00FC
0068
0008
0008
0010
0030
0060
01C0
CFC0
3F00
ENDCHAR
STARTCHAR 06CC
ENCODING 1740
SWIDTH 750 0
DWIDTH 24 0
BBX 20 19 2 -7
BITMAP
000070
0001F0
0003F0
000790
000C00
100800
201000
201000
401000
403800
801FC0
801FF0
C00070
C00030
E000E0
F003C0
7FFF80
7FFE00
1FF800
ENDCHAR
STARTCHAR 06CD
ENCODING 1741
SWIDTH 750 0
DWIDTH 24 0
BBX 23 19 -1 -7
BITMAP
00000E
00003E
00007E
0000F2
000180
060100
0C0200
7C0200
F80200
880700
1003F8
1003FE
18000E
180006
1C001C
1E0078
0FFFF0
0FFFC0
03FF00
ENDCHAR
STARTCHAR 06CE
ENCODING 1742
SWIDTH 750 0
DWIDTH 24 0
BBX 20 25 2 -7
BITMAP
010000
110000
130000
1B0000
0E0000
060000
040070
0001F0
0003F0
000790
000C00
100800
201000
201000
401000
403800
801FC0
801FF0
C00070
C00030
E000E0
F003C0
7FFF80
7FFE00
1FF800
ENDCHAR
STARTCHAR 06CF
ENCODING 1743
SWIDTH 406 0
DWIDTH 13 0
BBX 14 23 -3 -7
BITMAP
00C0
00E0
01E0
0040
0000
0000
0000
0030
0078
0078
00DC
00FC
00FC
00FC
0068
0008
0008
0010
0030
0060
01C0
CFC0
3F00
ENDCHAR
STARTCHAR 06D0
ENCODING 1744
SWIDTH 750 0
DWIDTH 24 0
BBX 20 29 2 -16
BITMAP
000070
0001F0
0003F0
000790
000C00
100800
201000
201000
401000
403800
801FC0
801FF0
C00070
C00030
E000E0
F003C0
7FFF80
7FFE00
1FF800
000000
000000
000000
00C000
00E000
01E000
006000
00F000
00E000
002000
ENDCHAR
STARTCHAR 06D1
ENCODING 1745
SWIDTH 750 0
DWIDTH 24 0
BBX 20 30 2 -17
BITMAP
000070
0001F0
0003F0
000790
000C00
100800
201000
201000
401000
403800
801FC0
801FF0
C00070
C00030
E000E0
F003C0
7FFF80
7FFE00
1FF800
000000
000000
000000
002000
01F800
03F000
03B000
00E000
007000
00F000
006000
ENDCHAR
STARTCHAR 06D2
ENCODING 1746
SWIDTH 1156 0
DWIDTH 37 0
BBX 33 16 2 -1
BITMAP
0008000000
001C000000
001C000000
003C000000
0024000000
0044000000
01C4000000
0780000000
1F00000000
3C00000000
7000000000
4000000000
E0000FFF80
FFFFFFFF80
FFFFFFFF00
1FF8000000
ENDCHAR
STARTCHAR 06D3
ENCODING 1747
SWIDTH 1156 0
DWIDTH 37 0
BBX 33 32 2 -1
BITMAP
0400000000
1C00000000
3C00000000
2400000000
3000000000
3F80000000
1F00000000
3000000000
0000000000
0000000000
0000000000
0000000000
0000000000
0200000000
0300000000
0380000000
0180000000
01C0000000
00C0000000
0040000000
0040000000
0040000000
01C0000000
0780000000
1F00000000
3C00000000
7000000000
4000000000
E0000FFF80
FFFFFFFF80
FFFFFFFF00
1FF8000000
ENDCHAR
STARTCHAR 06D4
ENCODING 1748
SWIDTH 500 0
DWIDTH 16 0
BBX 11 3 2 0
BITMAP
1FE0
7FC0
FF80
ENDCHAR
STARTCHAR 06D5
ENCODING 1749
SWIDTH 375 0
DWIDTH 12 0
BBX 8 12 2 -1
BITMAP
10
1C
3E
7E
7F
47
C3
C3
FE
FE
7C
38
ENDCHAR
STARTCHAR 06D6
ENCODING 1750
SWIDTH 0 0
DWIDTH 0 0
BBX 16 14 0 42
BITMAP
1000
1000
1000
1000
1000
100F
1813
19E2
1FFC
2638
6000
C001
FFFE
FFF8
ENDCHAR
STARTCHAR 06D7
ENCODING 1751
SWIDTH 0 0
DWIDTH 0 0
BBX 16 16 0 42
BITMAP
01C0
03C0
1100
1000
1080
11C0
13C0
13C0
1BC0
1840
1FC0
2700
6000
C001
FFFE
FFF8
ENDCHAR
STARTCHAR 06D8
ENCODING 1752
SWIDTH 0 0
DWIDTH 0 0
BBX 9 8 1 42
BITMAP
0300
0780
0780
0780
0B00
1800
3000
C000
ENDCHAR
STARTCHAR 06D9
ENCODING 1753
SWIDTH 0 0
DWIDTH 0 0
BBX 10 14 0 42
BITMAP
8080
C0C0
E080
7080
1080
0880
0480
0480
0300
0100
0300
0700
1F00
0F00
ENDCHAR
STARTCHAR 06DA
ENCODING 1754
SWIDTH 0 0
DWIDTH 0 0
BBX 13 14 0 42
BITMAP
7FE0
4780
1800
2000
4000
4000
8200
8600
8200
8000
C000
7000
3FF8
0FC0
ENDCHAR
STARTCHAR 06DB
ENCODING 1755
SWIDTH 0 0
DWIDTH 0 0
BBX 8 7 2 42
BITMAP
10
1C
38
52
E7
EE
42
ENDCHAR
STARTCHAR 06DC
ENCODING 1756
SWIDTH 0 0
DWIDTH 0 0
BBX 16 11 0 42
BITMAP
0005
0005
004F
407E
8070
8020
8040
8040
E180
7F00
3C00
ENDCHAR
STARTCHAR 06DD
ENCODING 1757
SWIDTH 1281 0
DWIDTH 41 0
BBX 39 35 1 -12
BITMAP
0000100000
0000280000
0000440000
0018823000
0019833000
0001830000
007F83FC00
01E0440F00
0670281CC0
0820380820
1000000010
2000000008
4000000008
4000000004
4000000004
8000000004
8000000002
8000000002
8000000002
8000000004
4000000004
4000000004
4000000004
2000000008
3000000010
1800000030
0C60380C40
03E0440D80
00FF83FE00
0001830000
0009832000
0019833000
0008C62000
0000680000
0000100000
ENDCHAR
STARTCHAR 06DE
ENCODING 1758
SWIDTH 656 0
DWIDTH 21 0
BBX 18 18 1 -4
BITMAP
00E000
00E000
18C300
1C4700
0E4E00
064C00
035800
01F000
FFFFC0
78E7C0
017000
075C00
0E4E00
1C4700
18C300
00E000
00E000
004000
ENDCHAR
STARTCHAR 06DF
ENCODING 1759
SWIDTH 0 0
DWIDTH 0 0
BBX 5 6 3 27
BITMAP
70
78
88
F8
78
20
ENDCHAR
STARTCHAR 06E0
ENCODING 1760
SWIDTH 0 0
DWIDTH 0 0
BBX 5 8 3 27
BITMAP
70
48
C8
C8
C8
C8
48
30
ENDCHAR
STARTCHAR 06E1
ENCODING 1761
SWIDTH 0 0
DWIDTH 0 0
BBX 6 4 3 29
BITMAP
7C
FC
18
F0
ENDCHAR
STARTCHAR 06E2
ENCODING 1762
SWIDTH 0 0
DWIDTH 0 0
BBX 5 11 1 25
BITMAP
30
78
58
78
C0
80
80
40
40
40
40
ENDCHAR
STARTCHAR 06E3
ENCODING 1763
SWIDTH 0 0
DWIDTH 0 0
BBX 16 11 0 -15
BITMAP
0005
0005
004F
407E
8070
8020
8040
8040
E180
7F00
3C00
ENDCHAR
STARTCHAR 06E4
ENCODING 1764
SWIDTH 0 0
DWIDTH 0 0
BBX 12 4 -6 25
BITMAP
0030
7FE0
FF00
4000
ENDCHAR
STARTCHAR 06E5
ENCODING 1765
SWIDTH 343 0
DWIDTH 11 0
BBX 8 9 1 -1
BITMAP
07
07
05
0F
07
01
02
0E
FC
ENDCHAR
STARTCHAR 06E6
ENCODING 1766
SWIDTH 406 0
DWIDTH 13 0
BBX 11 8 1 0
BITMAP
0700
0700
0900
1900
3000
4000
F7E0
7F80
ENDCHAR
STARTCHAR 06E7
ENCODING 1767
SWIDTH 0 0
DWIDTH 0 0
BBX 10 8 0 26
BITMAP
0700
0700
0900
1100
6000
4000
F7C0
7F80
ENDCHAR
STARTCHAR 06E8
ENCODING 1768
SWIDTH 0 0
DWIDTH 0 0
BBX 8 13 1 26
BITMAP
10
38
10
02
02
02
81
81
81
81
82
FE
78
ENDCHAR
STARTCHAR 06E9
ENCODING 1769
SWIDTH 656 0
DWIDTH 21 0
BBX 19 37 1 -13
BITMAP
004000
004000
004000
044200
1F6F00
1DB700
08A200
006000
006000
004000
03AC00
049500
1CB680
12AC80
3BA9C0
4D7B20
46FC40
7FFFC0
83F820
7FFFA0
33F8C0
4FF620
79EBC0
12AC80
26B480
1CB700
059400
026800
004000
006000
00A000
0C9700
1D6F00
0E4700
004000
004000
004000
ENDCHAR
STARTCHAR 06EA
ENCODING 1770
SWIDTH 0 0
DWIDTH 0 0
BBX 8 14 4 -27
BITMAP
08
18
18
34
26
42
C3
C3
42
26
34
18
18
08
ENDCHAR
STARTCHAR 06EB
ENCODING 1771
SWIDTH 0 0
DWIDTH 0 0
BBX 8 14 -1 5
BITMAP
10
10
38
2C
44
46
83
82
46
44
2C
38
10
10
ENDCHAR
STARTCHAR 06EC
ENCODING 1772
SWIDTH 0 0
DWIDTH 0 0
BBX 7 7 0 26
BITMAP
38
7C
FE
FE
FE
FE
7C
ENDCHAR
STARTCHAR 06ED
ENCODING 1773
SWIDTH 0 0
DWIDTH 0 0
BBX 5 11 6 -22
BITMAP
30
78
B8
78
C0
80
80
80
C0
40
40
ENDCHAR
STARTCHAR 06EE
ENCODING 1774
SWIDTH 437 0
DWIDTH 14 0
BBX 9 23 3 0
BITMAP
1000
1000
3800
3C00
4C00
4600
0400
0000
0000
0000
0000
1C00
3E00
1F00
0700
0380
0180
0080
0080
0380
FF80
FF00
FC00
ENDCHAR
STARTCHAR 06EF
ENCODING 1775
SWIDTH 406 0
DWIDTH 13 0
BBX 14 28 -3 -7
BITMAP
0080
00C0
01C0
0160
0170
0230
0010
0000
0000
0000
0000
0000
0010
0010
0038
0038
001C
000C
000C
0004
000C
0008
0018
0038
0070
01E0
FFC0
1F80
ENDCHAR
STARTCHAR 06F0
ENCODING 1776
SWIDTH 593 0
DWIDTH 19 0
BBX 5 6 7 3
BITMAP
60
F8
F8
F8
F0
30
ENDCHAR
STARTCHAR 06F1
ENCODING 1777
SWIDTH 593 0
DWIDTH 19 0
BBX 5 20 7 -2
BITMAP
40
C0
E0
E0
E0
F0
70
70
30
38
38
18
18
18
18
18
18
18
18
10
ENDCHAR
STARTCHAR 06F2
ENCODING 1778
SWIDTH 593 0
DWIDTH 19 0
BBX 11 20 4 -3
BITMAP
C020
C020
E060
F9E0
FFC0
FFC0
7F80
7000
3800
3800
1800
1800
1800
1C00
0C00
0C00
0C00
0C00
0C00
0800
ENDCHAR
STARTCHAR 06F3
ENCODING 1779
SWIDTH 593 0
DWIDTH 19 0
BBX 15 21 2 -3
BITMAP
0002
4042
6046
F0C4
F9FC
FFFC
7FFC
3F78
3C00
1800
1800
1C00
0C00
0C00
0C00
0C00
0400
0400
0400
0400
0400
ENDCHAR
STARTCHAR 06F4
ENCODING 1780
SWIDTH 593 0
DWIDTH 19 0
BBX 13 21 4 -3
BITMAP
00E0
C3F0
C7F8
E408
E800
F800
F800
7F18
7FF0
3FE0
3800
1800
1800
1C00
0C00
0C00
0C00
0C00
0C00
0C00
0800
ENDCHAR
STARTCHAR 06F5
ENCODING 1781
SWIDTH 593 0
DWIDTH 19 0
BBX 12 19 3 -3
BITMAP
0800
0C00
0E00
1F00
1F80
0F80
0BC0
11E0
20E0
2070
4070
4030
4010
C010
C130
E7F0
FFE0
FFE0
7DC0
ENDCHAR
STARTCHAR 06F6
ENCODING 1782
SWIDTH 593 0
DWIDTH 19 0
BBX 14 21 2 -3
BITMAP
01C0
07E0
0FF0
1810
3000
2000
7004
780C
3E3C
1FFC
0FF8
03E0
0780
0F00
0E00
1C00
3800
3000
6000
4000
8000
ENDCHAR
STARTCHAR 06F7
ENCODING 1783
SWIDTH 593 0
DWIDTH 19 0
BBX 14 20 2 -2
BITMAP
4004
6004
600C
F00C
701C
7818
3818
1830
1C30
0C60
0E60
0E40
06C0
07C0
0380
0380
0380
0100
0100
0100
ENDCHAR
STARTCHAR 06F8
ENCODING 1784
SWIDTH 593 0
DWIDTH 19 0
BBX 14 20 2 -4
BITMAP
0100
0300
0300
0300
0380
0780
05C0
0CC0
0CC0
0CE0
1860
1870
3030
3038
703C
E01C
601C
400C
400C
0004
ENDCHAR
STARTCHAR 06F9
ENCODING 1785
SWIDTH 593 0
DWIDTH 19 0
BBX 11 20 4 -1
BITMAP
1E00
1E00
3F00
7F00
4300
C380
C380
FF80
FF80
7F80
3F80
0180
01C0
01C0
00E0
00E0
00E0
0060
0040
0040
ENDCHAR
STARTCHAR 06FA
ENCODING 1786
SWIDTH 1000 0
DWIDTH 32 0
BBX 28 30 2 -7
BITMAP
00000C00
00000E00
00001E00
00000500
00000B80
00001F80
00003D00
00000800
00000000
00000000
00000000
00000020
00000130
00000330
00008330
0000C7E0
0001FFE0
2000FDE0
4000FC00
4000F000
40004000
80004000
80004000
C000C000
C0018300
E0038780
F80F0700
7FFE0100
3FFC0000
1FF00000
ENDCHAR
STARTCHAR 06FB
ENCODING 1787
SWIDTH 1218 0
DWIDTH 39 0
BBX 35 26 2 -8
BITMAP
0000018000
000001C000
000003C000
0000008000
0000000000
0000000000
0000000100
0000000FC0
0000001FC0
0000007FE0
000080E0E0
00008180C0
1001C303C0
2001FFFF80
2001FFFF00
4000FFF800
4000C60000
C000400000
C000400000
C000800000
C000806000
E003807000
F81F00F000
7FFE002000
3FFC000000
1FF0000000
ENDCHAR
STARTCHAR 06FC
ENCODING 1788
SWIDTH 531 0
DWIDTH 17 0
BBX 21 36 2 -15
BITMAP
180000
3C0000
380000
180000
000000
000000
060000
1F0000
3C8000
300000
600800
401800
607000
7FE000
3F8000
1F0000
0C0000
180000
30C000
20E000
41E000
404000
400000
800000
800000
800000
800000
800000
800000
C00000
E00000
700000
3E0018
3FFFF0
0FFFC0
03FF00
ENDCHAR
STARTCHAR 06FD
ENCODING 1789
SWIDTH 375 0
DWIDTH 12 0
BBX 8 18 2 -8
BITMAP
10
38
78
48
C1
FF
FF
3C
30
40
00
11
33
33
33
33
22
22
ENDCHAR
STARTCHAR 06FE
ENCODING 1790
SWIDTH 437 0
DWIDTH 14 0
BBX 10 27 2 -16
BITMAP
1E00
1F80
3FC0
37C0
2FC0
7FC0
7FC0
F000
C000
8000
8440
C440
C440
C440
4440
6440
6880
6000
2000
2000
3000
3000
1000
1000
1000
1000
1000
ENDCHAR
STARTCHAR 06FF
ENCODING 1791
SWIDTH 593 0
DWIDTH 19 0
BBX 16 21 2 -1
BITMAP
0080
00C0
00C0
0160
0170
0230
0010
0000
0000
0000
00C0
01E0
03F0
067C
045E
084E
0CC3
0FC2
1FFE
FFFC
7000
ENDCHAR
STARTCHAR 0750
ENCODING 1872
SWIDTH 937 0
DWIDTH 30 0
BBX 26 19 2 -7
BITMAP
00000180
00000180
20000180
400001C0
C00000C0
C00000C0
C0000180
E0000780
FC007F80
7FFFFE00
3FFFF000
0FFF8000
00000000
00000000
00000000
00490000
00FF8000
01FF8000
00DB0000
ENDCHAR
STARTCHAR 0751
ENCODING 1873
SWIDTH 937 0
DWIDTH 30 0
BBX 26 27 2 -8
BITMAP
00180000
003C0000
00380000
000A0000
00370000
003F0000
007E0000
00100180
00000180
20000180
400001C0
C00000C0
C00000C0
C0000180
E0000780
FC007F80
7FFFFE00
3FFFF000
0FFF8000
00000000
00000000
00000000
00000000
00060000
000F0000
001E0000
00040000
ENDCHAR
STARTCHAR 0752
ENCODING 1874
SWIDTH 937 0
DWIDTH 30 0
BBX 26 23 2 -11
BITMAP
00000180
00000180
20000180
400001C0
C00000C0
C00000C0
C0000180
E0000780
FC007F80
7FFFFE00
3FFFF000
0FFF8000
00000000
00000000
00000000
000C0000
000E0000
001E0000
00050000
001B8000
001F8000
003F0000
00080000
ENDCHAR
STARTCHAR 0753
ENCODING 1875
SWIDTH 937 0
DWIDTH 30 0
BBX 26 27 2 -11
BITMAP
00020000
00370000
007F0000
00720000
00100180
00000180
20000180
400001C0
C00000C0
C00000C0
C0000180
E0000780
FC007F80
7FFFFE00
3FFFF000
0FFF8000
00000000
00000000
00000000
000C0000
000E0000
001E0000
00050000
001B8000
001F8000
003F0000
00080000
ENDCHAR
STARTCHAR 0754
ENCODING 1876
SWIDTH 937 0
DWIDTH 30 0
BBX 26 23 2 -8
BITMAP
000C0000
001E0000
001C0000
000C0180
00000180
20000180
400001C0
C00000C0
C00000C0
C0000180
E0000780
FC007F80
7FFFFE00
3FFFF000
0FFF8000
00000000
00000000
00000000
00010000
001BC000
001F8000
003D0000
00080000
ENDCHAR
STARTCHAR 0755
ENCODING 1877
SWIDTH 937 0
DWIDTH 30 0
BBX 26 25 2 -13
BITMAP
00000180
00000180
20000180
400001C0
C00000C0
C00000C0
C0000180
E0000780
FC007F80
7FFFFE00
3FFFF000
0FFF8000
00000000
00000000
00000000
00000000
00000000
00000000
00080000
000C0000
000C0000
00160000
00170000
00230000
00010000
ENDCHAR
STARTCHAR 0756
ENCODING 1878
SWIDTH 937 0
DWIDTH 30 0
BBX 26 20 2 -1
BITMAP
00020000
00230000
00260000
00160000
001C0000
000C0000
00040000
00000000
00000180
00000180
20000180
400001C0
C00000C0
C00000C0
C0000180
E0000780
FC007F80
7FFFFE00
3FFFF000
0FFF8000
ENDCHAR
STARTCHAR 0757
ENCODING 1879
SWIDTH 656 0
DWIDTH 21 0
BBX 22 33 2 -17
BITMAP
002000
037800
03F000
07A000
010000
000000
000000
000000
000000
3FC1C0
7FFFC0
7FFF80
01F800
038000
0E0000
180000
100000
200000
600000
400000
400000
C00000
800000
C00000
C00000
C00000
E00000
F00000
780000
7E0000
3FFFFC
0FFFF0
03FFC0
ENDCHAR
STARTCHAR 0758
ENCODING 1880
SWIDTH 656 0
DWIDTH 21 0
BBX 22 24 2 -17
BITMAP
3FC1C0
7FFFC0
7FFF80
01F800
038000
0E0000
180000
100000
200000
606000
40F000
40E000
C03800
80DC00
C1FC00
C1D800
C04000
E00000
F00000
780000
7E0000
3FFFFC
0FFFF0
03FFC0
ENDCHAR
STARTCHAR 0759
ENCODING 1881
SWIDTH 437 0
DWIDTH 14 0
BBX 10 37 2 -10
BITMAP
1000
1000
1000
1000
1000
1300
1580
0980
9F00
7C00
0000
0000
0000
0000
0000
0E00
1F00
0F80
0380
01C0
00C0
0040
0040
01C0
7FC0
7F80
7E00
0000
0000
0000
0600
0F00
0E00
0700
0780
0F00
0200
ENDCHAR
STARTCHAR 075A
ENCODING 1882
SWIDTH 437 0
DWIDTH 14 0
BBX 9 23 3 -10
BITMAP
1C00
3E00
1F00
0700
0380
0180
0080
0080
0380
FF80
FF00
FC00
0000
0000
0000
0000
0800
1800
1C00
2C00
2600
6600
0200
ENDCHAR
STARTCHAR 075B
ENCODING 1883
SWIDTH 406 0
DWIDTH 13 0
BBX 17 16 -3 -7
BITMAP
001000
001000
003800
003800
001C00
000C00
000C00
000400
007F80
000800
001800
003800
007000
01E000
FFC000
1F8000
ENDCHAR
STARTCHAR 075C
ENCODING 1884
SWIDTH 1000 0
DWIDTH 32 0
BBX 28 31 2 -7
BITMAP
00000200
00001380
00003F80
00003B00
00001900
00001BC0
00001F80
00003D00
00000800
00000000
00000000
00000000
00000020
00000130
00000330
00008330
0000C7E0
0001FFE0
2000FDE0
4000FC00
4000F000
40004000
80004000
80004000
C000C000
C0018000
E0038000
F80F0000
7FFE0000
3FFC0000
1FF00000
ENDCHAR
STARTCHAR 075D
ENCODING 1885
SWIDTH 531 0
DWIDTH 17 0
BBX 21 37 2 -15
BITMAP
040000
6E0000
FE0000
E40000
200000
000000
000000
060000
1F0000
3C8000
300000
600800
401800
607000
7FE000
3F8000
1F0000
0C0000
180000
300000
200000
400000
400000
400000
800000
800000
800000
800000
800000
800000
C00000
E00000
700000
3E0018
3FFFF0
0FFFC0
03FF00
ENDCHAR
STARTCHAR 075E
ENCODING 1886
SWIDTH 531 0
DWIDTH 17 0
BBX 21 40 2 -15
BITMAP
0C0000
6E0000
7E0000
FC0000
280000
1E0000
3C0000
180000
000000
000000
060000
1F0000
3C8000
300000
600800
401800
607000
7FE000
3F8000
1F0000
0C0000
180000
300000
200000
400000
400000
400000
800000
800000
800000
800000
800000
800000
C00000
E00000
700000
3E0018
3FFFF0
0FFFC0
03FF00
ENDCHAR
STARTCHAR 075F
ENCODING 1887
SWIDTH 531 0
DWIDTH 17 0
BBX 21 39 2 -15
BITMAP
300000
380000
780000
180000
3C0000
380000
180000
000000
000000
060000
1F0000
3C8000
300000
600800
401800
607000
7FE000
3F8000
1F0000
0C0000
180000
300000
200000
400000
400000
400000
800000
800000
800000
800000
800000
800000
C00000
E00000
700000
3E0018
3FFFF0
0FFFC0
03FF00
ENDCHAR
STARTCHAR 0760
ENCODING 1888
SWIDTH 968 0
DWIDTH 31 0
BBX 28 20 2 -3
BITMAP
00000380
000003C0
000007E0
000007E0
00000CE0
40000FE0
400007A0
40000720
80000020
800000E0
800003C0
C0001F80
F001FF00
7FFFFC00
3FFFE000
1FFE0020
00000370
000007F0
00000720
00000100
ENDCHAR
STARTCHAR 0761
ENCODING 1889
SWIDTH 968 0
DWIDTH 31 0
BBX 28 24 2 -7
BITMAP
00000380
000003C0
000007E0
000007E0
00000CE0
40000FE0
400007A0
40000720
80000020
800000E0
800003C0
C0001F80
F001FF00
7FFFFC00
3FFFE000
1FFE0000
00000180
000003C0
00000380
000000A0
00000370
000003F0
000007E0
00000100
ENDCHAR
STARTCHAR 0762
ENCODING 1890
SWIDTH 1187 0
DWIDTH 38 0
BBX 35 26 2 -2
BITMAP
00001800E0
00003C07C0
0000381FC0
000018FF00
000003FC00
000007E000
00001F8000
00003C0000
0000700000
0000C00000
0000C00000
0000E00000
0000780000
00003C0000
00001E0000
4000060000
4000030000
8000010000
8000010000
8000010000
8000070000
E0001F0000
F801FE0000
7FFFF80000
3FFFE00000
0FFE000000
ENDCHAR
STARTCHAR 0763
ENCODING 1891
SWIDTH 1187 0
DWIDTH 38 0
BBX 35 30 2 -2
BITMAP
0000300000
0000780000
0000780000
0000140000
00006E00E0
00007E07C0
0000FC1FC0
000020FF00
000003FC00
000007E000
00001F8000
00003C0000
0000700000
0000C00000
0000C00000
0000E00000
0000780000
00003C0000
00001E0000
4000060000
4000030000
8000010000
8000010000
8000010000
8000070000
E0001F0000
F801FE0000
7FFFF80000
3FFFE00000
0FFE000000
ENDCHAR
STARTCHAR 0764
ENCODING 1892
SWIDTH 1187 0
DWIDTH 38 0
BBX 35 35 2 -11
BITMAP
00000000E0
00000007C0
0000001FC0
000000FF00
000003FC00
000007E000
00001F8000
00003C0000
0000700000
0000C00000
0000C00000
0000E00000
0000780000
00003C0000
00001E0000
4000060000
4000030000
8000010000
8000010000
8000010000
8000070000
E0001F0000
F801FE0000
7FFFF80000
3FFFE00000
0FFE000000
0000000000
000C000000
001E000000
001C000000
000A000000
001F800000
003F000000
003B000000
0018000000
ENDCHAR
STARTCHAR 0765
ENCODING 1893
SWIDTH 437 0
DWIDTH 14 0
BBX 10 33 2 -17
BITMAP
0C00
0E00
1E00
0400
0000
0000
1E00
1F80
3FC0
37C0
2FC0
7FC0
7FC0
F000
C000
8000
8000
C000
C000
C000
4000
6000
6000
6000
2000
2000
3000
3000
1000
1000
1000
1000
1000
ENDCHAR
STARTCHAR 0766
ENCODING 1894
SWIDTH 437 0
DWIDTH 14 0
BBX 10 27 2 -16
BITMAP
1E00
1F80
3FC0
37C0
2FC0
7FC0
7FC0
F000
C000
8000
8300
C780
C700
C100
4000
6000
6000
6000
2000
2000
3000
3000
1000
1000
1000
1000
1000
ENDCHAR
STARTCHAR 0767
ENCODING 1895
SWIDTH 562 0
DWIDTH 18 0
BBX 14 29 2 -10
BITMAP
0300
0780
0F00
0200
0010
0018
0018
0018
001C
200C
400C
4004
4004
8004
8004
C004
C01C
F078
7FF8
7FE0
1F80
0000
0000
0000
0080
0DE0
0FC0
1EC0
0400
ENDCHAR
STARTCHAR 0768
ENCODING 1896
SWIDTH 562 0
DWIDTH 18 0
BBX 14 34 2 -2
BITMAP
0800
0800
0800
0800
0400
05C0
0640
04C0
4F80
3E00
0000
0000
0000
0300
0780
0F00
0200
0010
0018
0018
0018
001C
200C
400C
4004
4004
8004
8004
C004
C01C
F078
7FF8
7FE0
1F80
ENDCHAR
STARTCHAR 0769
ENCODING 1897
SWIDTH 562 0
DWIDTH 18 0
BBX 14 30 2 -2
BITMAP
0100
1180
1300
0B00
0E00
0600
0200
0000
0000
0300
0780
0F00
0200
0010
0018
0018
0018
001C
200C
400C
4004
4004
8004
8004
C004
C01C
F078
7FF8
7FE0
1F80
ENDCHAR
STARTCHAR 076A
ENCODING 1898
SWIDTH 593 0
DWIDTH 19 0
BBX 17 26 2 -2
BITMAP
000400
000C00
000E00
000E00
000C00
000C00
003F80
000400
000400
000600
000600
000600
000600
000600
200600
400200
400200
400200
800200
C00200
C00600
E00E00
F87C00
7FF800
7FF000
1FC000
ENDCHAR
STARTCHAR 076B
ENCODING 1899
SWIDTH 406 0
DWIDTH 13 0
BBX 14 29 -3 -7
BITMAP
0180
03C0
0780
0180
01C0
03C0
0080
0000
0000
0000
0000
0000
0000
0010
0010
0038
0038
001C
000C
000C
0004
000C
0008
0018
0038
0070
01E0
FFC0
1F80
ENDCHAR
STARTCHAR 076C
ENCODING 1900
SWIDTH 406 0
DWIDTH 13 0
BBX 14 29 -3 -7
BITMAP
0040
01C0
03C0
0240
0700
03F0
01E0
0700
0000
0000
0000
0000
0000
0010
0010
0038
0038
001C
000C
000C
0004
000C
0008
0018
0038
0070
01E0
FFC0
1F80
ENDCHAR
STARTCHAR 076D
ENCODING 1901
SWIDTH 1000 0
DWIDTH 32 0
BBX 28 29 2 -7
BITMAP
00000C00
00000E00
00001E00
00000600
00000F00
00000E00
00000200
00000000
00000000
00000000
00000020
00000130
00000330
00008330
0000C7E0
0001FFE0
2000FDE0
4000FC00
4000F000
40004000
80004000
80004000
C000C000
C0018000
E0038000
F80F0000
7FFE0000
3FFC0000
1FF00000
ENDCHAR
STARTCHAR 076E
ENCODING 1902
SWIDTH 656 0
DWIDTH 21 0
BBX 22 24 2 -17
BITMAP
3FC1C0
7FFFC0
7FFF80
01F800
038000
0E0000
180000
102000
202000
602000
402000
402000
C02600
803A00
C02600
C17E00
C0F000
E00000
F00000
780000
7E0000
3FFFFC
0FFFF0
03FFC0
ENDCHAR
STARTCHAR 076F
ENCODING 1903
SWIDTH 656 0
DWIDTH 21 0
BBX 22 24 2 -17
BITMAP
3FC1C0
7FFFC0
7FFF80
01F800
038000
0E2000
182000
102000
202000
602000
402600
403A00
C02600
817E00
C0F000
C00400
C06E00
E0FE00
F0EC00
782000
7E0000
3FFFFC
0FFFF0
03FFC0
ENDCHAR
STARTCHAR 0770
ENCODING 1904
SWIDTH 1000 0
DWIDTH 32 0
BBX 28 39 2 -7
BITMAP
00000800
00000800
00000800
00000800
00000800
000009C0
00000AC0
000004C0
00004F80
00003E00
00000000
00000000
00000100
00001BC0
00001F80
00003D00
00000800
00000000
00000000
00000000
00000020
00000130
00000330
00008330
0000C7E0
0001FFE0
2000FDE0
4000FC00
4000F000
40004000
80004000
80004000
C000C000
C0018000
E0038000
F80F0000
7FFE0000
3FFC0000
1FF00000
ENDCHAR
STARTCHAR 0771
ENCODING 1905
SWIDTH 406 0
DWIDTH 13 0
BBX 14 36 -3 -7
BITMAP
0100
0100
0100
0100
0100
0130
0158
0098
09F0
07C0
0000
0000
0020
0378
03F0
07A0
0100
0000
0000
0000
0010
0010
0038
0038
001C
000C
000C
0004
000C
0008
0018
0038
0070
01E0
FFC0
1F80
ENDCHAR
STARTCHAR 0772
ENCODING 1906
SWIDTH 656 0
DWIDTH 21 0
BBX 22 40 2 -17
BITMAP
010000
010000
008000
008000
008000
00B800
00C800
009800
09F000
07C000
000000
000000
000000
000000
000000
000000
3FC1C0
7FFFC0
7FFF80
01F800
038000
0E0000
180000
100000
200000
600000
400000
400000
C00000
800000
C00000
C00000
C00000
E00000
F00000
780000
7E0000
3FFFFC
0FFFF0
03FFC0
ENDCHAR
STARTCHAR 0773
ENCODING 1907
SWIDTH 250 0
DWIDTH 8 0
BBX 7 27 0 0
BITMAP
84
88
F8
F0
40
48
68
28
3C
2C
0C
0C
0C
0C
0C
0C
0C
04
04
04
06
06
06
04
04
04
04
ENDCHAR
STARTCHAR 0774
ENCODING 1908
SWIDTH 250 0
DWIDTH 8 0
BBX 8 27 -1 0
BITMAP
8A
CA
FE
FE
40
64
24
24
2E
26
06
06
06
06
06
06
06
02
02
02
03
03
03
02
02
02
02
ENDCHAR
STARTCHAR 0775
ENCODING 1909
SWIDTH 750 0
DWIDTH 24 0
BBX 20 26 2 -7
BITMAP
042000
042000
07C000
07C000
020000
030000
010000
010070
0101F0
0103F0
000790
000C00
100800
201000
201000
401000
403800
801FC0
801FF0
C00070
C00030
E000E0
F003C0
7FFF80
7FFE00
1FF800
ENDCHAR
STARTCHAR 0776
ENCODING 1910
SWIDTH 750 0
DWIDTH 24 0
BBX 20 26 2 -7
BITMAP
089000
0CA000
0FE000
07E000
060000
020000
020000
020070
0201F0
0203F0
000790
000C00
100800
201000
201000
401000
403800
801FC0
801FF0
C00070
C00030
E000E0
F003C0
7FFF80
7FFE00
1FF800
ENDCHAR
STARTCHAR 0777
ENCODING 1911
SWIDTH 750 0
DWIDTH 24 0
BBX 20 32 2 -19
BITMAP
000070
0001F0
0003F0
000790
000C00
100800
201000
201000
401000
403800
801FC0
801FF0
C00070
C00030
E000E0
F003C0
7FFF80
7FFE00
1FF800
000000
000000
000800
00C800
01F000
013000
012000
010000
018000
008000
008000
008000
008000
ENDCHAR
STARTCHAR 0778
ENCODING 1912
SWIDTH 406 0
DWIDTH 13 0
BBX 14 28 -3 -7
BITMAP
0108
0188
01F8
00F0
00C0
00C0
0040
0040
0040
0040
0000
0000
0030
0078
0078
00DC
00FC
00FC
00FC
0068
0008
0008
0010
0030
0060
01C0
CFC0
3F00
ENDCHAR
STARTCHAR 0779
ENCODING 1913
SWIDTH 406 0
DWIDTH 13 0
BBX 14 28 -3 -7
BITMAP
0214
0124
03F8
01F8
0180
0080
0080
0080
0040
0040
0000
0000
0030
0078
0078
00DC
00FC
00FC
00FC
0068
0008
0008
0010
0030
0060
01C0
CFC0
3F00
ENDCHAR
STARTCHAR 077A
ENCODING 1914
SWIDTH 1156 0
DWIDTH 37 0
BBX 33 25 2 -1
BITMAP
0420000000
0620000000
07E0000000
03C0000000
0300000000
0300000000
0100000000
0100000000
0100000000
0108000000
001C000000
001C000000
003C000000
0024000000
0044000000
01C4000000
0780000000
1F00000000
3C00000000
7000000000
4000000000
E0000FFF80
FFFFFFFF80
FFFFFFFF00
1FF8000000
ENDCHAR
STARTCHAR 077B
ENCODING 1915
SWIDTH 1156 0
DWIDTH 37 0
BBX 33 25 2 -1
BITMAP
0850000000
0490000000
0FE0000000
07E0000000
0600000000
0200000000
0200000000
0200000000
0100000000
0108000000
001C000000
001C000000
003C000000
0024000000
0044000000
01C4000000
0780000000
1F00000000
3C00000000
7000000000
4000000000
E0000FFF80
FFFFFFFF80
FFFFFFFF00
1FF8000000
ENDCHAR
STARTCHAR 077C
ENCODING 1916
SWIDTH 656 0
DWIDTH 21 0
BBX 22 24 2 -17
BITMAP
3FC1C0
7FFFC0
7FFF80
01F800
038000
0E0000
180200
106400
20F400
609800
409000
40C000
C04000
804000
C04000
C04000
C04000
E00000
F00000
780000
7E0000
3FFFFC
0FFFF0
03FFC0
ENDCHAR
STARTCHAR 077D
ENCODING 1917
SWIDTH 1000 0
DWIDTH 32 0
BBX 28 32 2 -7
BITMAP
00000040
00000480
00000E80
00001300
00001900
00000800
00000800
00000C00
00000400
00000400
00000400
00000000
00000000
00000020
00000130
00000330
00008330
0000C7E0
0001FFE0
2000FDE0
4000FC00
4000F000
40004000
80004000
80004000
C000C000
C0018000
E0038000
F80F0000
7FFE0000
3FFC0000
1FF00000
ENDCHAR
STARTCHAR 077E
ENCODING 1918
SWIDTH 1000 0
DWIDTH 32 0
BBX 28 30 2 -7
BITMAP
00000400
00000600
00000E00
00000B00
00000B80
00001180
00000080
00000000
00000000
00000000
00000000
00000020
00000130
00000330
00008330
0000C7E0
0001FFE0
2000FDE0
4000FC00
4000F000
40004000
80004000
80004000
C000C000
C0018000
E0038000
F80F0000
7FFE0000
3FFC0000
1FF00000
ENDCHAR
STARTCHAR 077F
ENCODING 1919
SWIDTH 656 0
DWIDTH 21 0
BBX 17 25 2 0
BITMAP
010400
1BC600
1F8700
3D8600
080600
000600
010200
060200
060300
080300
0F0300
0F0300
070100
070180
7E0180
000180
000180
000180
000080
000080
000080
800380
FFFF00
FFFF00
FFFC00
ENDCHAR
STARTCHAR 0890
ENCODING 2192
SWIDTH 1656 0
DWIDTH 53 0
BBX 53 12 0 27
BITMAP
00000FC0000000
00001FE0000000
00001FF8000000
0000387C000000
0000301E000000
0000100F000000
00001003C00000
00001001F00000
00000800FC0000
FFFFFFFFFFFFE0
7FFFFFFFFFFFF0
3FFFFFFFFFFFF8
ENDCHAR
STARTCHAR 0891
ENCODING 2193
SWIDTH 1656 0
DWIDTH 53 0
BBX 53 12 0 27
BITMAP
0000001F800000
0000007FC00000
000000FFC00000
000001F0C00000
000003C0C00000
00000F80400000
00001E00C00000
00007C00800000
0001F800800000
3FFFFFFFFFFFF8
7FFFFFFFFFFFF0
FFFFFFFFFFFFE0
ENDCHAR
STARTCHAR 08A0
ENCODING 2208
SWIDTH 937 0
DWIDTH 30 0
BBX 26 25 2 -13
BITMAP
00000180
00000180
20000180
400001C0
C00000C0
C00000C0
C0000180
E0000780
FC007F80
7FFFFE00
3FFFF000
0FFF8000
00000000
00000000
00000000
00000000
00000000
00000000
00020000
00230000
00270000
00160000
001E0000
000C0000
00040000
ENDCHAR
STARTCHAR 08AC
ENCODING 2220
SWIDTH 562 0
DWIDTH 18 0
BBX 17 20 2 -8
BITMAP
000C00
001C00
003E00
006E00
008600
008400
00C400
01F800
01F800
FFFF80
FFBF80
FC0780
C00000
C00000
C00000
409800
41FC00
43F800
01C800
008000
ENDCHAR
STARTCHAR 08B6
ENCODING 2230
SWIDTH 937 0
DWIDTH 30 0
BBX 26 29 2 -8
BITMAP
000E0000
000E0000
00170000
001E0000
00100000
00200000
00200000
00100000
00100000
00100180
00080180
20000180
400001C0
C00000C0
C00000C0
C0000180
E0000780
FC007F80
7FFFFE00
3FFFF000
0FFF8000
00000000
00000000
00000000
00000000
00060000
000F0000
001E0000
00040000
ENDCHAR
STARTCHAR 08B7
ENCODING 2231
SWIDTH 937 0
DWIDTH 30 0
BBX 26 32 2 -11
BITMAP
000E0000
000E0000
00170000
001E0000
00100000
00200000
00200000
00100000
00100000
00100180
00080180
20000180
400001C0
C00000C0
C00000C0
C0000180
E0000780
FC007F80
7FFFFE00
3FFFF000
0FFF8000
00000000
00000000
00000000
00010000
001BC000
001F8000
003F0000
000A0000
00078000
000F0000
00020000
ENDCHAR
STARTCHAR 08B8
ENCODING 2232
SWIDTH 937 0
DWIDTH 30 0
BBX 26 16 2 -1
BITMAP
00140000
001C0000
00004000
00804000
01004180
00818180
207F0180
400001C0
C00000C0
C00000C0
C0000180
E0000780
FC007F80
7FFFFE00
3FFFF000
0FFF8000
ENDCHAR
STARTCHAR 08B9
ENCODING 2233
SWIDTH 406 0
DWIDTH 13 0
BBX 14 26 -3 -7
BITMAP
0020
0020
0008
0008
0084
0084
0084
00F8
0070
0000
0010
0010
0038
0038
001C
000C
000C
0004
000C
0008
0018
0038
0070
01E0
FFC0
1F80
ENDCHAR
STARTCHAR 08BA
ENCODING 2234
SWIDTH 750 0
DWIDTH 24 0
BBX 20 33 2 -14
BITMAP
008000
008000
002000
002000
021000
021000
021070
03E1F0
01C3F0
000790
000C00
100800
201000
201000
401000
403800
801FC0
801FF0
C00070
C00030
E000E0
F003C0
7FFF80
7FFE00
1FF800
000000
000000
000000
003000
01B800
03F800
03B000
010000
ENDCHAR
STARTCHAR 08BB
ENCODING 2235
SWIDTH 968 0
DWIDTH 31 0
BBX 27 16 2 1
BITMAP
00000380
000003C0
000007E0
000007E0
00000CE0
40000FE0
400007A0
40000720
80000020
800000E0
800003C0
C0001F80
F001FF00
7FFFFC00
3FFFE000
1FFE0000
ENDCHAR
STARTCHAR 08BC
ENCODING 2236
SWIDTH 687 0
DWIDTH 22 0
BBX 18 18 2 -5
BITMAP
000200
000F00
000F00
001F80
101380
201FC0
203FC0
401FC0
401E40
400040
C00040
C000C0
C00180
E00780
F83F00
7FFE00
3FF800
1FE000
ENDCHAR
STARTCHAR 08BD
ENCODING 2237
SWIDTH 562 0
DWIDTH 18 0
BBX 14 17 2 -2
BITMAP
0010
0018
0018
0018
001C
200C
400C
4004
4004
8004
8004
C004
C01C
F078
7FF8
7FE0
1F80
ENDCHAR
STARTCHAR 08D1
ENCODING 2257
SWIDTH 0 0
DWIDTH 0 0
BBX 8 7 0 -17
BITMAP
3C
42
C3
81
C3
42
3C
ENDCHAR
STARTCHAR 08E4
ENCODING 2276
SWIDTH 0 0
DWIDTH 0 0
BBX 6 8 5 26
BITMAP
04
04
04
1C
F8
80
80
40
ENDCHAR
STARTCHAR 08E5
ENCODING 2277
SWIDTH 0 0
DWIDTH 0 0
BBX 7 8 5 27
BITMAP
1C
1C
34
1C
4E
58
F0
40
ENDCHAR
STARTCHAR 08E6
ENCODING 2278
SWIDTH 0 0
DWIDTH 0 0
BBX 6 8 5 -17
BITMAP
08
04
04
1C
F0
80
80
80
ENDCHAR
STARTCHAR 08E7
ENCODING 2279
SWIDTH 0 0
DWIDTH 0 0
BBX 7 12 4 25
BITMAP
04
04
06
0C
FA
82
82
46
7C
40
40
20
ENDCHAR
STARTCHAR 08E8
ENCODING 2280
SWIDTH 0 0
DWIDTH 0 0
BBX 10 12 2 27
BITMAP
0400
1E00
3400
E400
7380
5B80
7680
7380
09C0
0B00
1E00
0800
ENDCHAR
STARTCHAR 08E9
ENCODING 2281
SWIDTH 0 0
DWIDTH 0 0
BBX 8 12 4 -22
BITMAP
04
02
06
0C
7A
C2
83
46
3C
60
40
20
ENDCHAR
STARTCHAR 08EA
ENCODING 2282
SWIDTH 0 0
DWIDTH 0 0
BBX 3 3 3 27
BITMAP
60
E0
40
ENDCHAR
STARTCHAR 08EB
ENCODING 2283
SWIDTH 0 0
DWIDTH 0 0
BBX 7 5 3 27
BITMAP
04
0E
64
E0
40
ENDCHAR
STARTCHAR 08EC
ENCODING 2284
SWIDTH 0 0
DWIDTH 0 0
BBX 7 4 2 27
BITMAP
72
9C
8C
74
ENDCHAR
STARTCHAR 08ED
ENCODING 2285
SWIDTH 0 0
DWIDTH 0 0
BBX 3 3 3 -14
BITMAP
60
E0
40
ENDCHAR
STARTCHAR 08EE
ENCODING 2286
SWIDTH 0 0
DWIDTH 0 0
BBX 7 5 3 -14
BITMAP
04
0E
64
E0
40
ENDCHAR
STARTCHAR 08EF
ENCODING 2287
SWIDTH 0 0
DWIDTH 0 0
BBX 7 4 2 -14
BITMAP
72
9C
8C
74
ENDCHAR
STARTCHAR 08F0
ENCODING 2288
SWIDTH 0 0
DWIDTH 0 0
BBX 10 10 4 27
BITMAP
00C0
0180
0700
0C00
1100
0600
0E00
3800
7000
C000
ENDCHAR
STARTCHAR 08F1
ENCODING 2289
SWIDTH 0 0
DWIDTH 0 0
BBX 11 8 2 27
BITMAP
18E0
3CE0
2920
39C0
1CE0
1080
2100
C600
ENDCHAR
STARTCHAR 08F2
ENCODING 2290
SWIDTH 0 0
DWIDTH 0 0
BBX 10 10 4 -20
BITMAP
00C0
0180
0700
0C00
1100
0600
0E00
3800
7000
C000
ENDCHAR
STARTCHAR 08F3
ENCODING 2291
SWIDTH 0 0
DWIDTH 0 0
BBX 8 9 -1 28
BITMAP
07
07
05
07
07
01
03
0E
FC
ENDCHAR
STARTCHAR 08F4
ENCODING 2292
SWIDTH 0 0
DWIDTH 0 0
BBX 10 7 3 27
BITMAP
1CC0
1F80
2700
3D00
3B00
7E00
9C00
ENDCHAR
STARTCHAR 08F5
ENCODING 2293
SWIDTH 0 0
DWIDTH 0 0
BBX 8 8 4 27
BITMAP
20
30
01
07
0E
38
60
C0
ENDCHAR
STARTCHAR 08F6
ENCODING 2294
SWIDTH 0 0
DWIDTH 0 0
BBX 7 8 0 -16
BITMAP
02
0E
1C
70
C0
80
0C
04
ENDCHAR
STARTCHAR 08F7
ENCODING 2295
SWIDTH 0 0
DWIDTH 0 0
BBX 7 7 2 27
BITMAP
02
0C
30
E0
78
1C
08
ENDCHAR
STARTCHAR 08F8
ENCODING 2296
SWIDTH 0 0
DWIDTH 0 0
BBX 7 7 1 27
BITMAP
20
F0
3C
0E
18
20
C0
ENDCHAR
STARTCHAR 08F9
ENCODING 2297
SWIDTH 0 0
DWIDTH 0 0
BBX 7 7 2 -14
BITMAP
02
0C
30
E0
78
1C
08
ENDCHAR
STARTCHAR 08FA
ENCODING 2298
SWIDTH 0 0
DWIDTH 0 0
BBX 7 7 1 -14
BITMAP
20
F0
3C
0E
18
20
C0
ENDCHAR
STARTCHAR 08FB
ENCODING 2299
SWIDTH 0 0
DWIDTH 0 0
BBX 13 7 1 27
BITMAP
2080
F1C0
3CF0
0E38
1820
20C0
C100
ENDCHAR
STARTCHAR 08FC
ENCODING 2300
SWIDTH 0 0
DWIDTH 0 0
BBX 18 7 -4 27
BITMAP
010400
078E00
01E780
C071C0
40C100
010600
060800
ENDCHAR
STARTCHAR 08FD
ENCODING 2301
SWIDTH 0 0
DWIDTH 0 0
BBX 12 7 -4 27
BITMAP
0100
0780
01E0
C070
40C0
0100
0600
ENDCHAR
STARTCHAR 08FE
ENCODING 2302
SWIDTH 0 0
DWIDTH 0 0
BBX 9 10 3 27
BITMAP
0300
0700
0500
CD00
8700
0380
0400
0C00
1000
6000
ENDCHAR
STARTCHAR 1E02
ENCODING 7682
SWIDTH 593 0
DWIDTH 19 0
BBX 16 26 1 0
BITMAP
0100
0380
0380
0000
0000
FF80
3CF8
181C
181E
180E
180E
180E
180C
1818
1FF0
1FFC
181E
180F
1807
1807
1807
1807
1807
180E
1C1C
FFF0
ENDCHAR
STARTCHAR 1E03
ENCODING 7683
SWIDTH 500 0
DWIDTH 16 0
BBX 14 27 0 0
BITMAP
1000
3800
3800
0000
0000
0800
F800
7800
3800
3800
3800
3800
3800
38C0
3BF0
3C78
383C
381C
381C
380C
380C
380C
381C
3818
3838
3C70
3FC0
ENDCHAR
STARTCHAR 1E0A
ENCODING 7690
SWIDTH 687 0
DWIDTH 22 0
BBX 20 26 1 0
BITMAP
004000
00E000
00E000
000000
000000
FF8000
3EFC00
1C0F00
180380
1801C0
1801C0
1800E0
1800E0
1800E0
1800F0
1800F0
1800F0
1800E0
1800E0
1800E0
1800E0
1801C0
180380
180780
1C1E00
FFF800
ENDCHAR
STARTCHAR 1E0B
ENCODING 7691
SWIDTH 500 0
DWIDTH 16 0
BBX 15 27 1 0
BITMAP
0010
0038
0038
0000
0000
0008
00F8
0070
0030
0030
0030
0030
0030
03B0
0FF0
1030
3030
6030
6030
E030
E030
E030
E030
7030
7830
3FFE
1F38
ENDCHAR
STARTCHAR 1E0C
ENCODING 7692
SWIDTH 687 0
DWIDTH 22 0
BBX 20 26 1 -5
BITMAP
FF8000
3EFC00
1C0F00
180380
1801C0
1801C0
1800E0
1800E0
1800E0
1800F0
1800F0
1800F0
1800E0
1800E0
1800E0
1800E0
1801C0
180380
180780
1C1E00
FFF800
000000
000000
004000
01E000
00C000
ENDCHAR
STARTCHAR 1E0D
ENCODING 7693
SWIDTH 500 0
DWIDTH 16 0
BBX 15 27 1 -5
BITMAP
0008
00F8
0070
0030
0030
0030
0030
0030
03B0
0FF0
1030
3030
6030
6030
E030
E030
E030
E030
7030
7830
3FFE
1F38
0000
0000
0100
0380
0380
ENDCHAR
STARTCHAR 1E0E
ENCODING 7694
SWIDTH 687 0
DWIDTH 22 0
BBX 20 24 1 -3
BITMAP
FF8000
3EFC00
1C0F00
180380
1801C0
1801C0
1800E0
1800E0
1800E0
1800F0
1800F0
1800F0
1800E0
1800E0
1800E0
1800E0
1801C0
180380
180780
1C1E00
FFF800
000000
000000
07F800
ENDCHAR
STARTCHAR 1E0F
ENCODING 7695
SWIDTH 500 0
DWIDTH 16 0
BBX 15 25 1 -3
BITMAP
0008
00F8
0070
0030
0030
0030
0030
0030
03B0
0FF0
1030
3030
6030
6030
E030
E030
E030
E030
7030
7830
3FFE
1F38
0000
0000
0FF0
ENDCHAR
STARTCHAR 1E10
ENCODING 7696
SWIDTH 687 0
DWIDTH 22 0
BBX 20 26 1 -5
BITMAP
FF8000
3EFC00
1C0F00
180380
1801C0
1801C0
1800E0
1800E0
1800E0
1800F0
1800F0
1800F0
1800E0
1800E0
1800E0
1800E0
1801C0
180380
180780
1C1E00
FFF800
008000
01E000
002000
002000
03C000
ENDCHAR
STARTCHAR 1E11
ENCODING 7697
SWIDTH 500 0
DWIDTH 16 0
BBX 15 27 1 -5
BITMAP
0008
00F8
0070
0030
0030
0030
0030
0030
03B0
0FF0
1030
3030
6030
6030
E030
E030
E030
E030
7030
7830
3FFE
1F38
0200
0700
0100
0100
0E00
ENDCHAR
STARTCHAR 1E1E
ENCODING 7710
SWIDTH 531 0
DWIDTH 17 0
BBX 15 26 1 0
BITMAP
0080
01C0
01C0
0000
0000
FFFC
3FFC
1806
1802
1802
1800
1800
1800
1808
1818
1FF8
1C18
1808
1808
1800
1800
1800
1800
1800
1C00
FF00
ENDCHAR
STARTCHAR 1E1F
ENCODING 7711
SWIDTH 312 0
DWIDTH 10 0
BBX 9 27 1 0
BITMAP
0200
0700
0700
0000
0000
0380
0780
0980
1800
1000
3000
3000
3000
3000
FF00
3000
3000
3000
3000
3000
3000
3000
3000
3000
3000
3800
FE00
ENDCHAR
STARTCHAR 1E24
ENCODING 7716
SWIDTH 718 0
DWIDTH 23 0
BBX 20 26 1 -5
BITMAP
FF07F0
3C03E0
1C01C0
1801C0
1801C0
1801C0
1801C0
1801C0
1801C0
1801C0
1FFFC0
1801C0
1801C0
1801C0
1801C0
1801C0
1801C0
1801C0
1801C0
1C01C0
FF07F0
000000
000000
002000
007000
007000
ENDCHAR
STARTCHAR 1E25
ENCODING 7717
SWIDTH 500 0
DWIDTH 16 0
BBX 15 27 1 -5
BITMAP
0800
F000
7000
3000
3000
3000
3000
3000
30C0
33F0
3C70
3030
3030
3038
3038
3038
3038
3038
3038
3038
3038
FCFE
0000
0000
0100
0380
0380
ENDCHAR
STARTCHAR 1E28
ENCODING 7720
SWIDTH 718 0
DWIDTH 23 0
BBX 20 26 1 -5
BITMAP
FF07F0
3C03E0
1C01C0
1801C0
1801C0
1801C0
1801C0
1801C0
1801C0
1801C0
1FFFC0
1801C0
1801C0
1801C0
1801C0
1801C0
1801C0
1801C0
1801C0
1C01C0
FF07F0
100000
1C0000
040000
040000
3C0000
ENDCHAR
STARTCHAR 1E29
ENCODING 7721
SWIDTH 500 0
DWIDTH 16 0
BBX 15 27 1 -5
BITMAP
0800
F000
7000
3000
3000
3000
3000
3000
30C0
33F0
3C70
3030
3038
3038
3038
3038
3038
3038
3038
3038
3038
FCFE
1000
3800
0800
0800
7000
ENDCHAR
STARTCHAR 1E2A
ENCODING 7722
SWIDTH 718 0
DWIDTH 23 0
BBX 20 26 1 -5
BITMAP
FF07F0
3C03E0
1C01C0
1801C0
1801C0
1801C0
1801C0
1801C0
1801C0
1801C0
1FFFC0
1801C0
1801C0
1801C0
1801C0
1801C0
1801C0
1801C0
1801C0
1C01C0
FF07F0
000000
000000
010400
018800
00F800
ENDCHAR
STARTCHAR 1E2B
ENCODING 7723
SWIDTH 500 0
DWIDTH 16 0
BBX 15 27 1 -5
BITMAP
0800
F000
7000
3000
3000
3000
3000
3000
30C0
33F0
3C70
3030
3030
3038
3038
3038
3038
3038
3038
3038
3038
FCFE
0000
0000
0820
0C40
0780
ENDCHAR
STARTCHAR 1E40
ENCODING 7744
SWIDTH 875 0
DWIDTH 28 0
BBX 26 26 1 0
BITMAP
00040000
000E0000
000E0000
00000000
00000000
7E000FC0
3E001F00
1E001E00
1F003600
17003600
13802600
13806600
11C04600
11C04600
11C0C700
10E08700
10E18700
10710700
10710700
10730700
103A0700
103E0700
101C0700
101C0700
300C0700
FE081FC0
ENDCHAR
STARTCHAR 1E41
ENCODING 7745
SWIDTH 781 0
DWIDTH 25 0
BBX 23 19 1 0
BITMAP
001000
003800
003800
000000
000000
08C0E0
FBF3F0
7C7478
383838
383818
383818
383818
381818
381818
381818
383818
383818
383818
FEFEFE
ENDCHAR
STARTCHAR 1E56
ENCODING 7766
SWIDTH 531 0
DWIDTH 17 0
BBX 15 26 1 0
BITMAP
0100
0380
0380
0000
0000
FFC0
3CF8
181C
181E
180E
180E
180E
180E
180E
180C
1818
1BF0
1800
1800
1800
1800
1800
1800
1800
1C00
FF00
ENDCHAR
STARTCHAR 1E57
ENCODING 7767
SWIDTH 500 0
DWIDTH 16 0
BBX 15 26 0 -7
BITMAP
0100
0380
0380
0000
0000
08E0
FBF0
3C78
181C
181C
180E
180E
180E
180C
180C
180C
1818
1C30
1FC0
1800
1800
1800
1800
1800
1800
FE00
ENDCHAR
STARTCHAR 1E60
ENCODING 7776
SWIDTH 500 0
DWIDTH 16 0
BBX 12 26 2 0
BITMAP
0200
0700
0700
0000
0000
0F80
39E0
6060
E060
E020
E020
E000
F000
7800
3E00
1F00
07C0
03E0
00F0
0070
8030
8030
8070
C060
E0E0
7F80
ENDCHAR
STARTCHAR 1E61
ENCODING 7777
SWIDTH 375 0
DWIDTH 12 0
BBX 9 19 1 0
BITMAP
0C00
0E00
0E00
0000
0000
0E00
3300
6180
6080
6000
7000
3C00
1F00
0780
0380
8180
C180
4300
7E00
ENDCHAR
STARTCHAR 1E62
ENCODING 7778
SWIDTH 500 0
DWIDTH 16 0
BBX 12 26 2 -5
BITMAP
0F80
39E0
6060
E060
E020
E020
E000
F000
7800
3E00
1F00
07C0
03E0
00F0
0070
8030
8030
8070
C060
E0E0
7F80
0000
0000
0400
0E00
0E00
ENDCHAR
STARTCHAR 1E63
ENCODING 7779
SWIDTH 375 0
DWIDTH 12 0
BBX 9 19 1 -5
BITMAP
0E00
3300
6180
6080
6000
7000
3C00
1F00
0780
0380
8180
C180
6300
7E00
0000
0000
0800
1C00
1C00
ENDCHAR
STARTCHAR 1E6A
ENCODING 7786
SWIDTH 625 0
DWIDTH 20 0
BBX 19 26 0 0
BITMAP
002000
007000
007000
000000
000000
7FFFC0
70E1E0
60E060
40E020
C0E020
00E000
00E000
00E000
00E000
00E000
00E000
00E000
00E000
00E000
00E000
00E000
00E000
00E000
00E000
00E000
03FC00
ENDCHAR
STARTCHAR 1E6B
ENCODING 7787
SWIDTH 312 0
DWIDTH 10 0
BBX 8 22 1 0
BITMAP
10
38
38
00
10
10
30
30
FF
FF
30
30
30
30
30
30
30
30
30
30
3F
1E
ENDCHAR
STARTCHAR 1E6C
ENCODING 7788
SWIDTH 625 0
DWIDTH 20 0
BBX 19 26 0 -5
BITMAP
7FFFC0
70E1E0
60E060
40E020
40E020
80E000
00E000
00E000
00E000
00E000
00E000
00E000
00E000
00E000
00E000
00E000
00E000
00E000
00E000
00E000
03FC00
000000
000000
004000
00E000
00E000
ENDCHAR
STARTCHAR 1E6D
ENCODING 7789
SWIDTH 312 0
DWIDTH 10 0
BBX 8 23 1 -5
BITMAP
10
10
30
30
FF
FF
30
30
30
30
30
30
30
30
30
30
3F
1E
00
00
08
1C
1C
ENDCHAR
STARTCHAR 1E6E
ENCODING 7790
SWIDTH 625 0
DWIDTH 20 0
BBX 19 24 0 -3
BITMAP
7FFFC0
70E1E0
60E060
40E020
40E020
80E000
00E000
00E000
00E000
00E000
00E000
00E000
00E000
00E000
00E000
00E000
00E000
00E000
00E000
00E000
03FC00
000000
000000
03FC00
ENDCHAR
STARTCHAR 1E6F
ENCODING 7791
SWIDTH 312 0
DWIDTH 10 0
BBX 8 21 1 -3
BITMAP
10
10
30
30
FF
FF
30
30
30
30
30
30
30
30
30
30
3F
1E
00
00
7F
ENDCHAR
STARTCHAR 1E80
ENCODING 7808
SWIDTH 875 0
DWIDTH 28 0
BBX 28 27 0 0
BITMAP
00180000
003C0000
000E0000
00030000
00000000
00000000
FE0203F0
7C0301E0
380300C0
18070080
1C078080
1C078180
1C0F8100
0E09C100
0E09C100
0E19C300
0610E200
0710E200
0730E600
03207400
03A07400
03E07400
01C03C00
01C03800
01C03800
01801800
00801000
ENDCHAR
STARTCHAR 1E81
ENCODING 7809
SWIDTH 718 0
DWIDTH 23 0
BBX 23 21 0 0
BITMAP
00C000
00E000
006000
003000
001800
000000
000000
000002
FCFE7C
383810
383810
1C3C30
1C3C20
0C2C60
0E4E40
0E4640
07C7C0
078780
038380
030300
010300
ENDCHAR
STARTCHAR 1E82
ENCODING 7810
SWIDTH 875 0
DWIDTH 28 0
BBX 28 27 0 0
BITMAP
0000E000
0001E000
00038000
00060000
00000000
00000000
FE0203F0
7C0301E0
380300C0
18070080
1C078080
1C078180
1C0F8100
0E09C100
0E09C100
0E19C300
0610E200
0710E200
0730E600
03207400
03A07400
03E07400
01C03C00
01C03800
01C03800
01801800
00801000
ENDCHAR
STARTCHAR 1E83
ENCODING 7811
SWIDTH 718 0
DWIDTH 23 0
BBX 23 21 0 0
BITMAP
000200
000700
000E00
000C00
001000
000000
000000
000002
FCFE7C
383810
383810
1C3C30
1C3C20
0C2C60
0E4E40
0E4640
07C7C0
078780
038380
030300
010300
ENDCHAR
STARTCHAR 1E84
ENCODING 7812
SWIDTH 875 0
DWIDTH 28 0
BBX 28 26 0 0
BITMAP
0038E000
0038E000
00104000
00000000
00000000
FE0203F0
7C0301E0
380300C0
18070080
1C078080
1C078180
1C0F8100
0E09C100
0E09C100
0E19C300
0610E200
0710E200
0730E600
03207400
03A07400
03E07400
01C03C00
01C03800
01C03800
01801800
00801000
ENDCHAR
STARTCHAR 1E85
ENCODING 7813
SWIDTH 718 0
DWIDTH 23 0
BBX 23 18 0 0
BITMAP
00C700
01C700
000000
000000
000002
FCFE7C
383810
383810
1C3C30
1C3C20
0C2C60
0E4E40
0E4640
07C7C0
078780
038380
030300
010300
ENDCHAR
STARTCHAR 1E92
ENCODING 7826
SWIDTH 625 0
DWIDTH 20 0
BBX 18 26 1 -5
BITMAP
7FFF80
7C0780
600700
400E00
401E00
C01C00
003800
007800
00F000
00E000
01C000
03C000
038000
070000
0F0000
0E0000
1C00C0
3C0080
380180
700380
FFFF00
000000
000000
004000
00E000
00E000
ENDCHAR
STARTCHAR 1E93
ENCODING 7827
SWIDTH 437 0
DWIDTH 14 0
BBX 12 19 1 -5
BITMAP
6070
7FE0
41C0
81C0
0380
0700
0700
0E00
1C00
1C00
3810
7030
6060
FFE0
0000
0000
0200
0F00
0600
ENDCHAR
STARTCHAR 1E96
ENCODING 7830
SWIDTH 500 0
DWIDTH 16 0
BBX 15 25 1 -3
BITMAP
0800
F000
7000
3000
3000
3000
3000
3000
30C0
33F0
3C70
3030
3030
3038
3038
3038
3038
3038
3038
3038
3038
FCFE
0000
0000
1FE0
ENDCHAR
STARTCHAR 1E97
ENCODING 7831
SWIDTH 312 0
DWIDTH 10 0
BBX 9 21 -1 0
BITMAP
6380
E380
0000
0800
0800
1800
1800
3F80
7F80
1800
1800
1800
1800
1800
1800
1800
1800
1800
1800
1F80
0F00
ENDCHAR
STARTCHAR 1EF2
ENCODING 7922
SWIDTH 593 0
DWIDTH 19 0
BBX 19 27 0 0
BITMAP
060000
078000
01C000
006000
000000
000000
FF0FE0
7C0380
3C0300
1C0200
0E0200
0E0400
070400
038800
038800
01D000
01F000
00E000
00E000
00E000
00E000
00E000
00E000
00E000
00E000
00E000
03F800
ENDCHAR
STARTCHAR 1EF3
ENCODING 7923
SWIDTH 468 0
DWIDTH 15 0
BBX 15 28 0 -7
BITMAP
0800
1C00
0E00
0600
0300
0000
0000
0000
FC7E
3818
3810
1C30
1C20
0C20
0E40
0E40
07C0
0780
0380
0300
0300
0300
0200
0200
0400
0C00
7800
7000
ENDCHAR
STARTCHAR 2000
ENCODING 8192
SWIDTH 500 0
DWIDTH 16 0
BBX 0 0 0 0
BITMAP
ENDCHAR
STARTCHAR 2001
ENCODING 8193
SWIDTH 1000 0
DWIDTH 32 0
BBX 0 0 0 0
BITMAP
ENDCHAR
STARTCHAR 2002
ENCODING 8194
SWIDTH 500 0
DWIDTH 16 0
BBX 0 0 0 0
BITMAP
ENDCHAR
STARTCHAR 2003
ENCODING 8195
SWIDTH 1000 0
DWIDTH 32 0
BBX 0 0 0 0
BITMAP
ENDCHAR
STARTCHAR 2004
ENCODING 8196
SWIDTH 343 0
DWIDTH 11 0
BBX 0 0 0 0
BITMAP
ENDCHAR
STARTCHAR 2005
ENCODING 8197
SWIDTH 250 0
DWIDTH 8 0
BBX 0 0 0 0
BITMAP
ENDCHAR
STARTCHAR 2006
ENCODING 8198
SWIDTH 156 0
DWIDTH 5 0
BBX 0 0 0 0
BITMAP
ENDCHAR
STARTCHAR 2007
ENCODING 8199
SWIDTH 500 0
DWIDTH 16 0
BBX 0 0 0 0
BITMAP
ENDCHAR
STARTCHAR 2008
ENCODING 8200
SWIDTH 312 0
DWIDTH 10 0
BBX 0 0 0 0
BITMAP
ENDCHAR
STARTCHAR 2009
ENCODING 8201
SWIDTH 187 0
DWIDTH 6 0
BBX 0 0 0 0
BITMAP
ENDCHAR
STARTCHAR 200A
ENCODING 8202
SWIDTH 156 0
DWIDTH 5 0
BBX 0 0 0 0
BITMAP
ENDCHAR
STARTCHAR 200B
ENCODING 8203
SWIDTH 0 0
DWIDTH 0 0
BBX 0 0 0 0
BITMAP
ENDCHAR
STARTCHAR 200C
ENCODING 8204
SWIDTH 0 0
DWIDTH 0 0
BBX 1 17 0 0
BITMAP
80
80
80
80
80
80
80
80
80
80
80
80
80
80
80
80
80
ENDCHAR
STARTCHAR 200D
ENCODING 8205
SWIDTH 0 0
DWIDTH 0 0
BBX 4 20 -2 0
BITMAP
90
F0
60
F0
D0
40
40
40
40
40
40
40
40
40
40
40
40
40
40
40
ENDCHAR
STARTCHAR 200E
ENCODING 8206
SWIDTH 0 0
DWIDTH 0 0
BBX 4 19 0 0
BITMAP
60
F0
20
E0
80
80
80
80
80
80
80
80
80
80
80
80
80
80
80
ENDCHAR
STARTCHAR 200F
ENCODING 8207
SWIDTH 0 0
DWIDTH 0 0
BBX 4 20 -4 0
BITMAP
60
40
F0
60
10
10
10
10
10
10
10
10
10
10
10
10
10
10
10
10
ENDCHAR
STARTCHAR 2010
ENCODING 8208
SWIDTH 375 0
DWIDTH 12 0
BBX 8 3 2 6
BITMAP
01
FF
FC
ENDCHAR
STARTCHAR 2011
ENCODING 8209
SWIDTH 375 0
DWIDTH 12 0
BBX 8 3 2 6
BITMAP
01
FF
FC
ENDCHAR
STARTCHAR 2012
ENCODING 8210
SWIDTH 531 0
DWIDTH 17 0
BBX 13 2 2 6
BITMAP
FFF8
FFF0
ENDCHAR
STARTCHAR 2013
ENCODING 8211
SWIDTH 562 0
DWIDTH 18 0
BBX 14 2 2 6
BITMAP
FFFC
FFFC
ENDCHAR
STARTCHAR 2014
ENCODING 8212
SWIDTH 843 0
DWIDTH 27 0
BBX 23 2 2 7
BITMAP
FFFFFE
FFFFFE
ENDCHAR
STARTCHAR 2015
ENCODING 8213
SWIDTH 1125 0
DWIDTH 36 0
BBX 32 2 2 7
BITMAP
FFFFFFFF
FFFFFFFF
ENDCHAR
STARTCHAR 2018
ENCODING 8216
SWIDTH 218 0
DWIDTH 7 0
BBX 5 9 1 14
BITMAP
08
10
20
60
60
E0
F0
70
40
ENDCHAR
STARTCHAR 2019
ENCODING 8217
SWIDTH 218 0
DWIDTH 7 0
BBX 5 9 1 14
BITMAP
10
78
78
38
18
30
30
60
80
ENDCHAR
STARTCHAR 201A
ENCODING 8218
SWIDTH 218 0
DWIDTH 7 0
BBX 4 9 1 -4
BITMAP
10
70
70
30
30
30
60
C0
80
ENDCHAR
STARTCHAR 201B
ENCODING 8219
SWIDTH 218 0
DWIDTH 7 0
BBX 4 9 1 14
BITMAP
C0
E0
E0
C0
C0
C0
60
30
10
ENDCHAR
STARTCHAR 201C
ENCODING 8220
SWIDTH 375 0
DWIDTH 12 0
BBX 11 9 1 14
BITMAP
0860
10C0
2180
6300
6300
E380
F380
7380
4200
ENDCHAR
STARTCHAR 201D
ENCODING 8221
SWIDTH 375 0
DWIDTH 12 0
BBX 10 9 1 14
BITMAP
1040
79C0
7BC0
39C0
18C0
10C0
3180
6300
8600
ENDCHAR
STARTCHAR 201E
ENCODING 8222
SWIDTH 375 0
DWIDTH 12 0
BBX 10 9 1 -4
BITMAP
1080
73C0
73C0
39C0
30C0
3180
6180
C300
8400
ENDCHAR
STARTCHAR 201F
ENCODING 8223
SWIDTH 375 0
DWIDTH 12 0
BBX 10 9 1 14
BITMAP
C600
E780
E700
C700
C600
C200
6300
3180
1040
ENDCHAR
STARTCHAR 2020
ENCODING 8224
SWIDTH 375 0
DWIDTH 12 0
BBX 10 21 1 0
BITMAP
0400
0C00
0C00
0400
0400
C4C0
FFC0
0400
0C00
0E00
0E00
0C00
0C00
0C00
0C00
0400
0400
0400
0400
0400
0400
ENDCHAR
STARTCHAR 2021
ENCODING 8225
SWIDTH 406 0
DWIDTH 13 0
BBX 11 21 1 0
BITMAP
0400
0E00
0400
0400
0400
64E0
FFE0
0400
0600
0E00
0400
0600
0E00
0400
4440
FFE0
4440
0400
0400
0600
0E00
ENDCHAR
STARTCHAR 2022
ENCODING 8226
SWIDTH 375 0
DWIDTH 12 0
BBX 7 7 2 5
BITMAP
10
7C
7E
FE
7E
7E
3C
ENDCHAR
STARTCHAR 2024
ENCODING 8228
SWIDTH 218 0
DWIDTH 7 0
BBX 4 3 1 0
BITMAP
70
F0
70
ENDCHAR
STARTCHAR 2026
ENCODING 8230
SWIDTH 812 0
DWIDTH 26 0
BBX 24 3 1 0
BITMAP
701C0E
F03C0F
701C0E
ENDCHAR
STARTCHAR 2028
ENCODING 8232
SWIDTH 0 0
DWIDTH 0 0
BBX 0 0 0 0
BITMAP
ENDCHAR
STARTCHAR 2029
ENCODING 8233
SWIDTH 0 0
DWIDTH 0 0
BBX 0 0 0 0
BITMAP
ENDCHAR
STARTCHAR 202A
ENCODING 8234
SWIDTH 0 0
DWIDTH 0 0
BBX 4 20 0 0
BITMAP
20
60
10
A0
E0
80
80
80
80
80
80
80
80
80
80
80
80
80
80
80
ENDCHAR
STARTCHAR 202B
ENCODING 8235
SWIDTH 0 0
DWIDTH 0 0
BBX 4 20 -4 0
BITMAP
60
40
80
70
50
10
10
10
10
10
10
10
10
10
10
10
10
10
10
10
ENDCHAR
STARTCHAR 202C
ENCODING 8236
SWIDTH 0 0
DWIDTH 0 0
BBX 4 19 -2 0
BITMAP
60
F0
90
40
40
40
40
40
40
40
40
40
40
40
40
40
40
40
40
ENDCHAR
STARTCHAR 202D
ENCODING 8237
SWIDTH 0 0
DWIDTH 0 0
BBX 7 20 0 0
BITMAP
24
6C
12
A4
EC
80
80
80
80
80
80
80
80
80
80
80
80
80
80
80
ENDCHAR
STARTCHAR 202E
ENCODING 8238
SWIDTH 0 0
DWIDTH 0 0
BBX 7 20 -7 0
BITMAP
6C
48
90
6E
4A
02
02
02
02
02
02
02
02
02
02
02
02
02
02
02
ENDCHAR
STARTCHAR 202F
ENCODING 8239
SWIDTH 187 0
DWIDTH 6 0
BBX 0 0 0 0
BITMAP
ENDCHAR
STARTCHAR 2030
ENCODING 8240
SWIDTH 968 0
DWIDTH 31 0
BBX 29 20 1 0
BITMAP
1E00C000
21018000
61810000
41830000
C0C60000
C0CC0000
61880000
61900000
31300000
1E600000
00CF01C0
00998630
01B0C430
0330CC18
06606C18
04606C18
08306C18
1830CC18
3018C630
600F83E0
ENDCHAR
STARTCHAR 2032
ENCODING 8242
SWIDTH 156 0
DWIDTH 5 0
BBX 2 7 2 15
BITMAP
40
C0
C0
C0
80
80
80
ENDCHAR
STARTCHAR 2033
ENCODING 8243
SWIDTH 250 0
DWIDTH 8 0
BBX 6 7 2 15
BITMAP
4C
DC
D8
D8
98
90
90
ENDCHAR
STARTCHAR 2038
ENCODING 8248
SWIDTH 406 0
DWIDTH 13 0
BBX 7 4 3 -1
BITMAP
10
38
4C
82
ENDCHAR
STARTCHAR 2039
ENCODING 8249
SWIDTH 312 0
DWIDTH 10 0
BBX 7 11 1 2
BITMAP
02
04
18
30
E0
E0
70
18
0C
06
02
ENDCHAR
STARTCHAR 203A
ENCODING 8250
SWIDTH 312 0
DWIDTH 10 0
BBX 8 11 1 2
BITMAP
C0
60
30
1C
0E
07
0E
18
30
40
80
ENDCHAR
STARTCHAR 203E
ENCODING 8254
SWIDTH 843 0
DWIDTH 27 0
BBX 19 2 21 48
BITMAP
FFFFE0
FFFFE0
ENDCHAR
STARTCHAR 2042
ENCODING 8258
SWIDTH 843 0
DWIDTH 27 0
BBX 25 25 1 -4
BITMAP
00200000
00308000
00318000
00138000
000A0000
00DC0000
01EB0000
0089C000
0008C000
00180000
00180000
00080000
00000000
10004000
18406100
18C06300
09C02700
05001400
6E01B800
F583D600
44E11380
04601180
0C003000
0C003000
04001000
ENDCHAR
STARTCHAR 2044
ENCODING 8260
SWIDTH 125 0
DWIDTH 4 0
BBX 12 20 -3 0
BITMAP
0010
0020
0020
0040
00C0
0080
0180
0100
0300
0200
0400
0400
0800
1800
1000
3000
2000
6000
4000
C000
ENDCHAR
STARTCHAR 204F
ENCODING 8271
SWIDTH 375 0
DWIDTH 12 0
BBX 6 21 3 -8
BITMAP
38
38
38
00
00
00
00
00
38
7C
FC
FC
D8
80
80
C0
40
60
20
10
18
ENDCHAR
STARTCHAR 2070
ENCODING 8304
SWIDTH 375 0
DWIDTH 12 0
BBX 9 13 1 14
BITMAP
0800
3600
6300
6180
E180
C180
C180
C180
E180
6180
6300
3600
0800
ENDCHAR
STARTCHAR 2074
ENCODING 8308
SWIDTH 312 0
DWIDTH 10 0
BBX 9 13 0 14
BITMAP
0200
0200
0600
0E00
1E00
1600
2600
4600
FF80
0600
0600
0600
0600
ENDCHAR
STARTCHAR 2075
ENCODING 8309
SWIDTH 312 0
DWIDTH 10 0
BBX 8 13 1 14
BITMAP
02
3E
40
40
40
7C
0E
07
03
03
46
EE
10
ENDCHAR
STARTCHAR 2076
ENCODING 8310
SWIDTH 312 0
DWIDTH 10 0
BBX 8 13 1 14
BITMAP
02
0E
18
30
60
6C
FE
C3
C3
C3
43
76
08
ENDCHAR
STARTCHAR 2077
ENCODING 8311
SWIDTH 312 0
DWIDTH 10 0
BBX 9 13 1 14
BITMAP
7F80
FF00
8100
8200
0600
0400
0800
0800
1000
3000
2000
4000
4000
ENDCHAR
STARTCHAR 2078
ENCODING 8312
SWIDTH 312 0
DWIDTH 10 0
BBX 7 13 1 14
BITMAP
10
6C
66
66
66
7C
3C
6E
46
C6
E6
66
18
ENDCHAR
STARTCHAR 2079
ENCODING 8313
SWIDTH 312 0
DWIDTH 10 0
BBX 8 13 1 14
BITMAP
18
66
63
C3
C3
63
7F
03
06
0C
18
70
40
ENDCHAR
STARTCHAR 20AC
ENCODING 8364
SWIDTH 687 0
DWIDTH 22 0
BBX 19 20 1 0
BITMAP
007FC0
01C1C0
0700E0
0E0060
0C0020
1C0020
180000
380000
FFF800
380000
380000
FFF800
FFF000
380000
1C0020
1C0020
0E0020
070060
03C1E0
00FF80
ENDCHAR
STARTCHAR 2212
ENCODING 8722
SWIDTH 593 0
DWIDTH 19 0
BBX 15 2 2 7
BITMAP
7FFE
FFFE
ENDCHAR
STARTCHAR 2213
ENCODING 8723
SWIDTH 593 0
DWIDTH 19 0
BBX 15 18 2 0
BITMAP
FFFE
FFFC
0000
0100
0100
0100
0100
0100
0100
FFFE
FFFE
0100
0100
0100
0100
0100
0100
0100
ENDCHAR
STARTCHAR 2215
ENCODING 8725
SWIDTH 125 0
DWIDTH 4 0
BBX 12 20 -3 0
BITMAP
0010
0020
0020
0040
00C0
0080
0180
0100
0300
0200
0400
0400
0800
1800
1000
3000
2000
6000
4000
C000
ENDCHAR
STARTCHAR 221A
ENCODING 8730
SWIDTH 500 0
DWIDTH 16 0
BBX 15 30 0 -5
BITMAP
0002
0002
0002
0002
0006
0004
0004
0004
0004
000C
0008
0008
0008
0008
0008
0018
0810
3C10
FC10
8E10
0E10
0730
0720
03A0
03A0
01A0
01E0
01E0
00C0
00C0
ENDCHAR
STARTCHAR 25CC
ENCODING 9676
SWIDTH 687 0
DWIDTH 22 0
BBX 19 19 1 -4
BITMAP
006000
024400
000000
100180
000000
000000
400060
000000
000000
C00020
000000
000000
400040
400060
000000
100180
100080
020400
006000
ENDCHAR
STARTCHAR 2E41
ENCODING 11841
SWIDTH 375 0
DWIDTH 12 0
BBX 6 13 3 -8
BITMAP
38
7C
FC
FC
D8
80
80
C0
40
60
20
10
18
ENDCHAR
STARTCHAR FB50
ENCODING 64336
SWIDTH 218 0
DWIDTH 7 0
BBX 8 31 -1 0
BITMAP
03
0F
09
7E
FE
00
00
00
00
08
18
18
18
18
18
18
18
08
0C
0C
0C
0C
0C
0C
0C
0C
04
04
04
04
08
ENDCHAR
STARTCHAR FB51
ENCODING 64337
SWIDTH 281 0
DWIDTH 9 0
BBX 10 31 0 0
BITMAP
0700
0F00
0900
7E00
FC00
0000
0000
0000
0800
1800
1800
1800
1800
1800
0800
0800
0800
0800
0800
0800
0800
0C00
0C00
0C00
0C00
0C00
0C00
0E00
07C0
07C0
0380
ENDCHAR
STARTCHAR FB52
ENCODING 64338
SWIDTH 937 0
DWIDTH 30 0
BBX 26 23 2 -11
BITMAP
00000180
00000180
20000180
400001C0
C00000C0
C00000C0
C0000180
E0000780
FC007F80
7FFFFE00
3FFFF000
0FFF8000
00000000
00000000
00000000
00000000
00060000
000F0000
000E0000
00060000
00070000
000F0000
00020000
ENDCHAR
STARTCHAR FB53
ENCODING 64339
SWIDTH 875 0
DWIDTH 28 0
BBX 27 20 2 -12
BITMAP
40000000
40000000
80000000
C0000100
C0000180
E00007E0
F8007FE0
7FFFFC60
3FFFF000
1FFF8000
00400000
00000000
00000000
00180000
001C0000
003C0000
000C0000
001E0000
001C0000
000C0000
ENDCHAR
STARTCHAR FB54
ENCODING 64340
SWIDTH 187 0
DWIDTH 6 0
BBX 6 20 -1 -11
BITMAP
08
18
18
18
08
18
F8
F0
60
00
00
00
00
18
3C
38
18
1C
3C
08
ENDCHAR
STARTCHAR FB55
ENCODING 64341
SWIDTH 250 0
DWIDTH 8 0
BBX 9 16 -1 -11
BITMAP
0600
0F00
FF80
FB80
6180
0000
0000
0000
0000
0C00
0E00
1E00
0600
0F00
0E00
0600
ENDCHAR
STARTCHAR FB56
ENCODING 64342
SWIDTH 937 0
DWIDTH 30 0
BBX 26 23 2 -11
BITMAP
00000180
00000180
20000180
400001C0
C00000C0
C00000C0
C0000180
E0000780
FC007F80
7FFFFE00
3FFFF000
0FFF8000
00000000
00000000
00000000
00010000
001BC000
001F8000
003F0000
000A0000
00078000
000F0000
00020000
ENDCHAR
STARTCHAR FB57
ENCODING 64343
SWIDTH 875 0
DWIDTH 28 0
BBX 27 20 2 -12
BITMAP
40000000
40000000
80000000
C0000100
C0000180
E00007E0
F8007FE0
7FFFFC60
3FFFF000
1FFF8000
00400000
00000000
00040000
003F0000
007E0000
00740000
00280000
001E0000
001C0000
000C0000
ENDCHAR
STARTCHAR FB58
ENCODING 64344
SWIDTH 187 0
DWIDTH 6 0
BBX 8 21 -1 -12
BITMAP
08
18
18
18
08
18
F8
F0
60
00
00
00
00
06
37
3F
7E
14
0F
1E
0C
ENDCHAR
STARTCHAR FB59
ENCODING 64345
SWIDTH 250 0
DWIDTH 8 0
BBX 9 15 -1 -10
BITMAP
0600
0F00
FF80
FB80
6180
0000
0000
0200
1F80
3F00
3B00
1400
0700
0F00
0600
ENDCHAR
STARTCHAR FB5A
ENCODING 64346
SWIDTH 937 0
DWIDTH 30 0
BBX 26 23 2 -11
BITMAP
00000180
00000180
20000180
400001C0
C00000C0
C00000C0
C0000180
E0000780
FC007F80
7FFFFE00
3FFFF000
0FFF8000
00000000
00000000
00010000
001B8000
001F8000
003F8000
00190000
000FC000
001F8000
003D8000
00080000
ENDCHAR
STARTCHAR FB5B
ENCODING 64347
SWIDTH 875 0
DWIDTH 28 0
BBX 27 20 2 -12
BITMAP
40000000
40000000
80000000
C0000100
C0000180
E00007E0
F8007FE0
7FFFFC60
3FFFF000
1FFF8000
00400000
00040000
002F0000
007E0000
00FE0000
00660000
00370000
007F0000
00760000
00300000
ENDCHAR
STARTCHAR FB5C
ENCODING 64348
SWIDTH 187 0
DWIDTH 6 0
BBX 9 20 -1 -11
BITMAP
0800
1800
1800
1800
0800
1800
F800
F000
6000
0000
0000
0400
3700
7F00
7600
3200
3780
3F00
7B00
1000
ENDCHAR
STARTCHAR FB5D
ENCODING 64349
SWIDTH 250 0
DWIDTH 8 0
BBX 9 15 -1 -10
BITMAP
0600
0F00
FF80
FB80
6180
0000
0200
1380
3F80
7B00
1100
1B80
3F80
3B00
0800
ENDCHAR
STARTCHAR FB5E
ENCODING 64350
SWIDTH 937 0
DWIDTH 30 0
BBX 26 18 2 -1
BITMAP
00180000
001C0000
003C0000
000C0000
001E0000
001C0000
000C0180
00000180
20000180
400001C0
C00000C0
C00000C0
C0000180
E0000780
FC007F80
7FFFFE00
3FFFF000
0FFF8000
ENDCHAR
STARTCHAR FB5F
ENCODING 64351
SWIDTH 875 0
DWIDTH 28 0
BBX 27 21 2 -3
BITMAP
00180000
001C0000
003C0000
000C0000
001E0000
001C0000
000C0000
00000000
00000000
00000000
40000000
40000000
80000000
C0000100
C0000180
E00007E0
F8007FE0
7FFFFC60
3FFFF000
1FFF8000
00400000
ENDCHAR
STARTCHAR FB60
ENCODING 64352
SWIDTH 187 0
DWIDTH 6 0
BBX 6 19 -1 0
BITMAP
30
38
78
18
3C
38
18
00
00
00
08
18
18
18
08
18
F8
F0
60
ENDCHAR
STARTCHAR FB61
ENCODING 64353
SWIDTH 250 0
DWIDTH 8 0
BBX 9 18 -1 0
BITMAP
1800
1C00
3C00
0C00
1E00
1C00
0400
0000
0000
0000
0000
0000
0000
0600
0F00
FF80
FB80
6180
ENDCHAR
STARTCHAR FB62
ENCODING 64354
SWIDTH 937 0
DWIDTH 30 0
BBX 26 20 2 -1
BITMAP
00040000
00270000
007F0000
00F60000
00320000
00370000
007F0000
00720000
00100180
00000180
20000180
400001C0
C00000C0
C00000C0
C0000180
E0000780
FC007F80
7FFFFE00
3FFFF000
0FFF8000
ENDCHAR
STARTCHAR FB63
ENCODING 64355
SWIDTH 875 0
DWIDTH 28 0
BBX 27 23 2 -3
BITMAP
00040000
00270000
007F0000
00F60000
00320000
00370000
007F0000
00720000
00100000
00000000
00000000
00000000
40000000
40000000
80000000
C0000100
C0000180
E00007E0
F8007FE0
7FFFFC60
3FFFF000
1FFF8000
00400000
ENDCHAR
STARTCHAR FB64
ENCODING 64356
SWIDTH 187 0
DWIDTH 6 0
BBX 8 19 -2 0
BITMAP
04
27
7F
F6
22
37
7F
76
10
00
04
0C
0C
0C
04
0C
7C
78
30
ENDCHAR
STARTCHAR FB65
ENCODING 64357
SWIDTH 250 0
DWIDTH 8 0
BBX 9 18 -1 0
BITMAP
0400
2600
7F00
F600
2200
3700
7F00
7600
3000
0000
0000
0000
0000
0600
0F00
FF80
FB80
6180
ENDCHAR
STARTCHAR FB66
ENCODING 64358
SWIDTH 937 0
DWIDTH 30 0
BBX 26 20 2 -1
BITMAP
00100000
00100000
00100000
00100000
00080000
000B8000
000D8000
00098000
009F0180
007C0180
20000180
400001C0
C00000C0
C00000C0
C0000180
E0000780
FC007F80
7FFFFE00
3FFFF000
0FFF8000
ENDCHAR
STARTCHAR FB67
ENCODING 64359
SWIDTH 875 0
DWIDTH 28 0
BBX 27 23 2 -3
BITMAP
00100000
00100000
00100000
00100000
00080000
000B8000
000D8000
00098000
009F0000
007C0000
00000000
00000000
40000000
40000000
80000000
C0000100
C0000180
E00007E0
F8007FE0
7FFFFC60
3FFFF000
1FFF8000
00400000
ENDCHAR
STARTCHAR FB68
ENCODING 64360
SWIDTH 187 0
DWIDTH 6 0
BBX 9 21 -2 0
BITMAP
1000
1000
1000
1000
1000
0B80
0D80
0980
9F00
7C00
0000
0000
0400
0C00
0C00
0C00
0400
0C00
7C00
7800
3000
ENDCHAR
STARTCHAR FB69
ENCODING 64361
SWIDTH 250 0
DWIDTH 8 0
BBX 9 20 -1 0
BITMAP
1000
1000
1000
0800
0800
0B80
0C80
0980
9F00
7C00
0000
0000
0000
0000
0000
0600
0F00
FF80
FB80
6180
ENDCHAR
STARTCHAR FB6A
ENCODING 64362
SWIDTH 968 0
DWIDTH 31 0
BBX 27 27 2 0
BITMAP
00006000
0000F000
0001E000
00005000
0000FC00
0001F800
0001D800
0000C000
00000000
00000000
00000000
00000380
000003C0
000007E0
000007E0
00000CE0
40000FE0
400007A0
40000720
80000020
800000E0
800003C0
C0001F80
F001FF00
7FFFFC00
3FFFE000
1FFE0000
ENDCHAR
STARTCHAR FB6B
ENCODING 64363
SWIDTH 1000 0
DWIDTH 32 0
BBX 31 24 2 -4
BITMAP
00003000
00003800
00007800
00001400
00002F00
00007E00
0000F400
00002000
00000000
00000000
000000E0
000001E0
000001F0
20000330
40000230
40000630
C0000620
C00007E0
E00003FE
F0001FFE
FF0FFF7E
7FFFFC00
1FFFE000
07FE0000
ENDCHAR
STARTCHAR FB6C
ENCODING 64364
SWIDTH 281 0
DWIDTH 9 0
BBX 8 24 -1 0
BITMAP
18
3C
38
0E
37
3F
76
10
00
00
00
1C
1E
3E
2F
67
7F
7D
3D
03
0F
7E
FC
F0
ENDCHAR
STARTCHAR FB6D
ENCODING 64365
SWIDTH 375 0
DWIDTH 12 0
BBX 14 25 -1 0
BITMAP
0300
0780
0700
0280
06E0
0FC0
0EC0
0600
0000
0000
0000
0000
0000
0060
01E0
03E0
0260
0420
0420
0C60
0FC0
0FC0
7FF8
FDFC
E038
ENDCHAR
STARTCHAR FB6E
ENCODING 64366
SWIDTH 968 0
DWIDTH 31 0
BBX 27 28 2 0
BITMAP
00001000
0001BC00
0001F800
0003F800
00019000
0000DC00
0001F800
0003D800
00008000
00000000
00000000
00000000
00000380
000003C0
000007E0
000007E0
00000CE0
40000FE0
400007A0
40000720
80000020
800000E0
800003C0
C0001F80
F001FF00
7FFFFC00
3FFFE000
1FFE0000
ENDCHAR
STARTCHAR FB6F
ENCODING 64367
SWIDTH 1000 0
DWIDTH 32 0
BBX 31 25 2 -4
BITMAP
00000800
00006E00
0000FE00
0000EC00
00006400
00006F00
00007E00
0000F600
00002000
00000000
00000000
000000E0
000001E0
000001F0
20000330
40000230
40000630
C0000620
C00007E0
E00003FE
F0001FFE
FF0FFF7E
7FFFFC00
1FFFE000
07FE0000
ENDCHAR
STARTCHAR FB70
ENCODING 64368
SWIDTH 281 0
DWIDTH 9 0
BBX 8 25 -1 0
BITMAP
04
26
7F
F6
22
37
7F
76
30
00
00
00
1C
1E
3E
2F
67
7F
7D
3D
03
0F
7E
FC
F0
ENDCHAR
STARTCHAR FB71
ENCODING 64369
SWIDTH 375 0
DWIDTH 12 0
BBX 14 26 -1 0
BITMAP
0080
0DE0
0FC0
1FC0
0CC0
06E0
0FE0
0EC0
0400
0000
0000
0000
0000
0000
0060
01E0
03E0
0260
0420
0420
0C60
0FC0
0FC0
7FF8
FDFC
E038
ENDCHAR
STARTCHAR FB72
ENCODING 64370
SWIDTH 656 0
DWIDTH 21 0
BBX 22 24 2 -17
BITMAP
3FC1C0
7FFFC0
7FFF80
01F800
038000
0E0000
180000
100000
200000
600000
403000
407800
C0F000
803000
C03800
C07800
C01000
E00000
F00000
780000
7E0000
3FFFFC
0FFFF0
03FFC0
ENDCHAR
STARTCHAR FB73
ENCODING 64371
SWIDTH 625 0
DWIDTH 20 0
BBX 22 25 2 -17
BITMAP
3FFFC0
7FFFC0
7FFF80
01F800
078C00
0E0FE0
180FE0
1003E0
200000
600000
400000
403000
C07800
C0F000
C03000
C03800
C07800
E01000
E00000
700000
7C0000
3FEFFC
1FFFF0
07FFC0
003000
ENDCHAR
STARTCHAR FB74
ENCODING 64372
SWIDTH 656 0
DWIDTH 21 0
BBX 20 18 -1 -8
BITMAP
1E0000
3FC000
7FF800
43FFF0
007FF0
00FFE0
07E000
7F0000
FC0000
700000
000000
003000
007800
00F000
003000
003800
007800
001000
ENDCHAR
STARTCHAR FB75
ENCODING 64373
SWIDTH 625 0
DWIDTH 20 0
BBX 21 18 -1 -8
BITMAP
1E0000
3FC000
3FF800
41FFF0
007FF0
03FFF0
0FC180
FE01F8
F801F8
E000F8
000000
006000
007000
00F000
003000
007800
007000
001000
ENDCHAR
STARTCHAR FB76
ENCODING 64374
SWIDTH 656 0
DWIDTH 21 0
BBX 22 24 2 -17
BITMAP
3FC1C0
7FFFC0
7FFF80
01F800
038000
0E0000
180000
100000
200000
600000
400800
406E00
C0FE00
81EC00
C04000
C00000
C00000
E00000
F00000
780000
7E0000
3FFFFC
0FFFF0
03FFC0
ENDCHAR
STARTCHAR FB77
ENCODING 64375
SWIDTH 625 0
DWIDTH 20 0
BBX 22 25 2 -17
BITMAP
3FFFC0
7FFFC0
7FFF80
01F800
078C00
0E0FE0
180FE0
1003E0
200000
600000
400000
401800
C0DC00
C1FC00
C1D800
C0C000
C00000
E00000
E00000
700000
7C0000
3FEFFC
1FFFF0
07FFC0
003000
ENDCHAR
STARTCHAR FB78
ENCODING 64376
SWIDTH 656 0
DWIDTH 21 0
BBX 20 16 -1 -6
BITMAP
1E0000
3FC000
7FF800
43FFF0
007FF0
00FFE0
07E000
7F0000
FC0000
700000
000000
001800
00DC00
01FC00
01D800
00C000
ENDCHAR
STARTCHAR FB79
ENCODING 64377
SWIDTH 625 0
DWIDTH 20 0
BBX 21 16 -1 -6
BITMAP
1E0000
3FC000
3FF800
41FFF0
007FF0
03FFF0
0FC180
FE01F8
F801F8
E000F8
000000
001800
00DC00
01FC00
01D800
008000
ENDCHAR
STARTCHAR FB7A
ENCODING 64378
SWIDTH 656 0
DWIDTH 21 0
BBX 22 24 2 -17
BITMAP
3FC1C0
7FFFC0
7FFF80
01F800
038000
0E0000
180000
100000
200000
601800
40DC00
41FC00
C1D800
807000
C03800
C07800
C03000
E00000
F00000
780000
7E0000
3FFFFC
0FFFF0
03FFC0
ENDCHAR
STARTCHAR FB7B
ENCODING 64379
SWIDTH 625 0
DWIDTH 20 0
BBX 22 25 2 -17
BITMAP
3FFFC0
7FFFC0
7FFF80
01F800
078C00
0E0FE0
180FE0
1003E0
200000
600000
401800
40DC00
C1FC00
C1D800
C07000
C03800
C07800
E03000
E00000
700000
7C0000
3FEFFC
1FFFF0
07FFC0
003000
ENDCHAR
STARTCHAR FB7C
ENCODING 64380
SWIDTH 656 0
DWIDTH 21 0
BBX 20 19 -1 -9
BITMAP
1E0000
3FC000
7FF800
43FFF0
007FF0
00FFE0
07E000
7F0000
FC0000
700000
000000
001800
00DC00
01FC00
01D800
007000
003800
007800
003000
ENDCHAR
STARTCHAR FB7D
ENCODING 64381
SWIDTH 625 0
DWIDTH 20 0
BBX 21 19 -1 -9
BITMAP
1E0000
3FC000
3FF800
41FFF0
007FF0
03FFF0
0FC180
FE01F8
F801F8
E000F8
000000
001000
00FC00
01F800
01D800
007000
003800
007800
003000
ENDCHAR
STARTCHAR FB7E
ENCODING 64382
SWIDTH 656 0
DWIDTH 21 0
BBX 22 24 2 -17
BITMAP
3FC1C0
7FFFC0
7FFF80
01F800
038000
0E0000
180000
100000
201000
609C00
41FC00
41D800
C0C800
80DE00
C0FC00
C1EC00
C04000
E00000
F00000
780000
7E0000
3FFFFC
0FFFF0
03FFC0
ENDCHAR
STARTCHAR FB7F
ENCODING 64383
SWIDTH 625 0
DWIDTH 20 0
BBX 22 25 2 -17
BITMAP
3FFFC0
7FFFC0
7FFF80
01F800
078C00
0E0FE0
180FE0
1003E0
200000
601000
409C00
41FC00
C1D800
C0C800
C0DE00
C0FC00
C1EC00
E04000
E00000
700000
7C0000
3FEFFC
1FFFF0
07FFC0
003000
ENDCHAR
STARTCHAR FB80
ENCODING 64384
SWIDTH 656 0
DWIDTH 21 0
BBX 20 19 -1 -9
BITMAP
1E0000
3FC000
7FF800
43FFF0
007FF0
00FFE0
07E000
7F0000
FC0000
700000
001000
009C00
01FC00
01D800
00C800
00DE00
00FC00
01EC00
004000
ENDCHAR
STARTCHAR FB81
ENCODING 64385
SWIDTH 625 0
DWIDTH 20 0
BBX 21 19 -1 -9
BITMAP
1E0000
3FC000
3FF800
41FFF0
007FF0
03FFF0
0FC180
FE01F8
F801F8
E000F8
001000
009C00
01FC00
01D800
00C800
00DE00
00FC00
01E800
004000
ENDCHAR
STARTCHAR FB82
ENCODING 64386
SWIDTH 437 0
DWIDTH 14 0
BBX 9 20 3 -7
BITMAP
1C00
3E00
1F00
0700
0380
0180
0080
0080
0380
FF80
FF00
FC00
0000
0000
0000
0200
3780
3F00
7A00
1000
ENDCHAR
STARTCHAR FB83
ENCODING 64387
SWIDTH 468 0
DWIDTH 15 0
BBX 14 23 2 -7
BITMAP
0040
0040
00C0
0040
0060
0060
0060
0060
0060
0060
0070
C0F0
FFB0
FFBC
FF1C
000C
0000
0000
0100
1BC0
1F80
3D00
0800
ENDCHAR
STARTCHAR FB84
ENCODING 64388
SWIDTH 437 0
DWIDTH 14 0
BBX 9 22 3 0
BITMAP
0C00
6E00
FE00
EC00
6000
0000
0000
0000
0000
0000
1C00
3E00
1F00
0700
0380
0180
0080
0080
0380
FF80
FF00
FC00
ENDCHAR
STARTCHAR FB85
ENCODING 64389
SWIDTH 468 0
DWIDTH 15 0
BBX 14 23 2 0
BITMAP
0020
0370
07F0
0760
0100
0000
0000
0040
0040
00C0
0040
0060
0060
0060
0060
0060
0060
0070
C0F0
FFB0
FFBC
FF1C
000C
ENDCHAR
STARTCHAR FB86
ENCODING 64390
SWIDTH 437 0
DWIDTH 14 0
BBX 9 25 3 0
BITMAP
3000
7800
7000
1C00
6E00
FE00
EC00
2000
0000
0000
0000
0000
0000
1C00
3E00
1F00
0700
0380
0180
0080
0080
0380
FF80
FF00
FC00
ENDCHAR
STARTCHAR FB87
ENCODING 64391
SWIDTH 468 0
DWIDTH 15 0
BBX 14 26 2 0
BITMAP
0180
03C0
0380
00E0
0370
03F0
07E0
0100
0000
0000
0040
0040
00C0
0040
0060
0060
0060
0060
0060
0060
0070
C0F0
FFB0
FFBC
FF1C
000C
ENDCHAR
STARTCHAR FB88
ENCODING 64392
SWIDTH 437 0
DWIDTH 14 0
BBX 10 27 2 0
BITMAP
1000
1000
1000
1000
1000
1300
1580
0980
9F00
7C00
0000
0000
0000
0000
0000
0E00
1F00
0F80
0380
01C0
00C0
0040
0040
01C0
7FC0
7F80
7E00
ENDCHAR
STARTCHAR FB89
ENCODING 64393
SWIDTH 468 0
DWIDTH 15 0
BBX 14 29 2 0
BITMAP
0100
0100
0100
0100
0100
00B8
00D8
0098
09F0
0780
0000
0000
0000
0040
0040
00C0
0040
0060
0060
0060
0060
0060
0060
0070
C0F0
FFB0
FFBC
FF1C
000C
ENDCHAR
STARTCHAR FB8A
ENCODING 64394
SWIDTH 406 0
DWIDTH 13 0
BBX 14 27 -3 -7
BITMAP
0180
01C0
03C0
00A0
0370
03F0
07A0
0100
0000
0000
0000
0010
0010
0038
0038
001C
000C
000C
0004
000C
0008
0018
0038
0070
01E0
FFC0
1F80
ENDCHAR
STARTCHAR FB8B
ENCODING 64395
SWIDTH 343 0
DWIDTH 11 0
BBX 15 28 -3 -9
BITMAP
0180
03C0
0380
00E0
0370
07F0
0760
0100
0000
0000
0000
0000
0000
0000
0010
0018
001E
003E
001E
0008
0008
0010
0030
0070
00E0
03C0
FF80
1F00
ENDCHAR
STARTCHAR FB8C
ENCODING 64396
SWIDTH 406 0
DWIDTH 13 0
BBX 14 31 -3 -7
BITMAP
0100
0100
0100
0100
0100
0130
01D0
0130
0BF0
0780
0000
0000
0000
0000
0000
0010
0010
0038
0038
001C
000C
000C
0004
000C
0008
0018
0038
0070
01E0
FFC0
1F80
ENDCHAR
STARTCHAR FB8D
ENCODING 64397
SWIDTH 343 0
DWIDTH 11 0
BBX 15 29 -3 -9
BITMAP
0100
0100
0100
0100
0100
0130
0158
0098
09F0
07C0
0000
0000
0000
0000
0000
0010
0018
001E
003E
001E
0008
0008
0010
0030
0070
00E0
03C0
FF80
1F00
ENDCHAR
STARTCHAR FB8E
ENCODING 64398
SWIDTH 1187 0
DWIDTH 38 0
BBX 35 26 2 -2
BITMAP
00000000E0
00000007C0
0000001FC0
000000FF00
000003FC00
000007E000
00001F8000
00003C0000
0000700000
0000C00000
0000C00000
0000E00000
0000780000
00003C0000
00001E0000
4000060000
4000030000
8000010000
8000010000
8000010000
8000070000
E0001F0000
F801FE0000
7FFFF80000
3FFFE00000
0FFE000000
ENDCHAR
STARTCHAR FB8F
ENCODING 64399
SWIDTH 1125 0
DWIDTH 36 0
BBX 35 28 2 -2
BITMAP
00000000C0
0000000780
0000001F80
0000007F00
000000FC00
000003F000
000007C000
00001F0000
00003E0000
0000780000
0000700000
0000C00000
0000C00000
0000F00000
0000780000
00003E0000
00000F0000
400007C000
400003E000
8000017000
800000B800
8000011E00
8000070F00
E0001E03E0
F801FE01E0
7FFFF800E0
3FFFE00000
0FFE000000
ENDCHAR
STARTCHAR FB90
ENCODING 64400
SWIDTH 656 0
DWIDTH 21 0
BBX 20 24 -1 -1
BITMAP
000030
0001F0
000FF0
003FC0
00FE00
03F800
07C000
1F0000
3C0000
300000
200000
380000
3C0000
1E0000
070000
038000
018000
00C000
004000
004000
01C000
FF8000
FF8000
FE0000
ENDCHAR
STARTCHAR FB91
ENCODING 64401
SWIDTH 593 0
DWIDTH 19 0
BBX 21 26 -1 0
BITMAP
000060
0001E0
0007E0
001FC0
007E00
00FC00
03F000
07C000
0F0000
1E0000
380000
300000
200000
380000
3E0000
0F8000
07C000
01E000
00F800
005C00
004E00
004700
01C3C0
FF81F0
FF00F8
FE0030
ENDCHAR
STARTCHAR FB92
ENCODING 64402
SWIDTH 1187 0
DWIDTH 38 0
BBX 35 29 2 -2
BITMAP
00000000E0
0000000780
0000003C00
000001E0E0
00000707C0
00001C1FC0
000010FF00
000003FC00
000007E000
00001F8000
00003C0000
0000700000
0000C00000
0000C00000
0000E00000
0000780000
00003C0000
00001E0000
4000060000
4000030000
8000010000
8000010000
8000010000
8000070000
E0001F0000
F801FE0000
7FFFF80000
3FFFE00000
0FFE000000
ENDCHAR
STARTCHAR FB93
ENCODING 64403
SWIDTH 1125 0
DWIDTH 36 0
BBX 35 33 2 -2
BITMAP
0000000040
0000000180
0000000F00
0000003C00
000000E000
00000380C0
0000060780
0000181F80
0000107F00
000000FC00
000003F000
000007C000
00001F0000
00003E0000
0000780000
0000700000
0000C00000
0000C00000
0000F00000
0000780000
00003E0000
00000F0000
400007C000
400003E000
8000017000
800000B800
8000011E00
8000070F00
E0001E03E0
F801FE01E0
7FFFF800E0
3FFFE00000
0FFE000000
ENDCHAR
STARTCHAR FB94
ENCODING 64404
SWIDTH 656 0
DWIDTH 21 0
BBX 20 27 -1 -1
BITMAP
000070
0003E0
001F00
007830
03C1F0
060FF0
083FC0
00FE00
03F800
07C000
1F0000
3C0000
300000
200000
380000
3C0000
1E0000
070000
038000
018000
00C000
004000
004000
01C000
FF8000
FF8000
FE0000
ENDCHAR
STARTCHAR FB95
ENCODING 64405
SWIDTH 593 0
DWIDTH 19 0
BBX 21 31 -1 0
BITMAP
000020
0000E0
000380
000E00
003800
00E060
0381E0
0607E0
081FC0
007E00
00FC00
03F000
07C000
0F0000
1E0000
380000
300000
200000
380000
3E0000
0F8000
07C000
01E000
00F800
005C00
004E00
004700
01C3C0
FF81F0
FF00F8
FE0030
ENDCHAR
STARTCHAR FB96
ENCODING 64406
SWIDTH 1187 0
DWIDTH 38 0
BBX 35 36 2 -9
BITMAP
00000000E0
0000000780
0000003C00
000001E0E0
00000707C0
00001C1FC0
000010FF00
000003FC00
000007E000
00001F8000
00003C0000
0000700000
0000C00000
0000C00000
0000E00000
0000780000
00003C0000
00001E0000
4000060000
4000030000
8000010000
8000010000
8000010000
8000070000
E0001F0000
F801FE0000
7FFFF80000
3FFFE00000
0FFE000000
000C000000
001E000000
003C000000
000C000000
000E000000
001E000000
0004000000
ENDCHAR
STARTCHAR FB97
ENCODING 64407
SWIDTH 1125 0
DWIDTH 36 0
BBX 35 40 2 -9
BITMAP
0000000040
0000000180
0000000F00
0000003C00
000000E000
00000380C0
0000060780
0000181F80
0000107F00
000000FC00
000003F000
000007C000
00001F0000
00003E0000
0000780000
0000700000
0000C00000
0000C00000
0000F00000
0000780000
00003E0000
00000F0000
400007C000
400003E000
8000017000
800000B800
8000011E00
8000070F00
E0001E03E0
F801FE01E0
7FFFF800E0
3FFFE00000
0FFE000000
000C000000
001E000000
003C000000
000C000000
000E000000
001E000000
0004000000
ENDCHAR
STARTCHAR FB98
ENCODING 64408
SWIDTH 656 0
DWIDTH 21 0
BBX 20 35 -1 -8
BITMAP
000070
0003E0
001F00
007830
03C1F0
060FF0
083FC0
00FE00
03F800
07C000
1F0000
3C0000
300000
200000
380000
3C0000
1E0000
070000
038000
018000
00C000
004000
004000
01C000
FF8000
FF8000
FE0000
000000
0C0000
0E0000
1E0000
060000
0F0000
0E0000
060000
ENDCHAR
STARTCHAR FB99
ENCODING 64409
SWIDTH 593 0
DWIDTH 19 0
BBX 21 39 -1 -8
BITMAP
000020
0000E0
000380
000E00
003800
00E060
0381E0
0607E0
081FC0
007E00
00FC00
03F000
07C000
0F0000
1E0000
380000
300000
200000
380000
3E0000
0F8000
07C000
01E000
00F800
005C00
004E00
004700
01C3C0
FF81F0
FF00F8
FE0030
000000
000C00
001E00
001C00
000E00
000F00
001E00
000400
ENDCHAR
STARTCHAR FB9A
ENCODING 64410
SWIDTH 1187 0
DWIDTH 38 0
BBX 35 29 2 -2
BITMAP
00000000E0
0000000780
0000803C00
0006E1E0E0
000FE707C0
001EDC1FC0
000410FF00
000003FC00
000007E000
00001F8000
00003C0000
0000700000
0000C00000
0000C00000
0000E00000
0000780000
00003C0000
00001E0000
4000060000
4000030000
8000010000
8000010000
8000010000
8000070000
E0001F0000
F801FE0000
7FFFF80000
3FFFE00000
0FFE000000
ENDCHAR
STARTCHAR FB9B
ENCODING 64411
SWIDTH 1125 0
DWIDTH 36 0
BBX 35 33 2 -2
BITMAP
0000000040
0000000180
0000000F00
0000003C00
000000E000
00000380C0
0000860780
0006F81F80
000FF07F00
001EC0FC00
000403F000
000007C000
00001F0000
00003E0000
0000780000
0000700000
0000C00000
0000C00000
0000F00000
0000780000
00003E0000
00000F0000
400007C000
400003E000
8000017000
800000B800
8000011E00
8000070F00
E0001E03E0
F801FE01E0
7FFFF800E0
3FFFE00000
0FFE000000
ENDCHAR
STARTCHAR FB9C
ENCODING 64412
SWIDTH 656 0
DWIDTH 21 0
BBX 23 28 -2 -1
BITMAP
00000E
000078
0003C0
0C1E00
6E7818
FEC0F8
ED07F8
601FE0
007F00
01FC00
03E000
0F8000
1E0000
180000
100000
1C0000
1E0000
0F0000
038000
01C000
00C000
006000
002000
002000
00E000
7FC000
7FC000
7F0000
ENDCHAR
STARTCHAR FB9D
ENCODING 64413
SWIDTH 593 0
DWIDTH 19 0
BBX 22 31 -2 0
BITMAP
000004
000018
000070
0001C0
000700
001C30
0C70F0
6EC3F0
FF0FE0
EC3F00
607E00
01F800
03E000
078000
0F0000
1C0000
180000
100000
1C0000
1F0000
07C000
03E000
00F000
007C00
002E00
002700
002380
00E1E0
7FC0F8
7F807C
7F0018
ENDCHAR
STARTCHAR FB9E
ENCODING 64414
SWIDTH 562 0
DWIDTH 18 0
BBX 14 17 2 -2
BITMAP
0010
0018
0018
0018
001C
200C
400C
4004
4004
8004
8004
C004
C01C
F078
7FF8
7FE0
1F80
ENDCHAR
STARTCHAR FB9F
ENCODING 64415
SWIDTH 625 0
DWIDTH 20 0
BBX 18 16 2 -11
BITMAP
000100
000300
0003C0
2003C0
2001C0
400180
400180
400100
C00100
C00100
C00600
E00E00
FFFC00
7FF800
3FF000
0F0000
ENDCHAR
STARTCHAR FBA0
ENCODING 64416
SWIDTH 562 0
DWIDTH 18 0
BBX 14 28 2 -2
BITMAP
0400
0400
0400
0400
0400
04E0
0560
0260
27C0
1F00
0000
0010
0018
0018
0018
001C
200C
400C
4004
4004
8004
8004
C004
C01C
F078
7FF8
7FE0
1F80
ENDCHAR
STARTCHAR FBA1
ENCODING 64417
SWIDTH 625 0
DWIDTH 20 0
BBX 18 27 2 -11
BITMAP
010000
010000
010000
010000
010000
013800
015800
009800
09F000
078000
000000
000100
000300
0003C0
2003C0
2001C0
400180
400180
400100
C00100
C00100
C00600
E00E00
FFFC00
7FF800
3FF000
0F0000
ENDCHAR
STARTCHAR FBA2
ENCODING 64418
SWIDTH 187 0
DWIDTH 6 0
BBX 9 21 -2 0
BITMAP
1000
1000
1000
1000
1000
0B80
0D80
0980
9F00
7C00
0000
0000
0400
0C00
0C00
0C00
0400
0C00
7C00
7800
3000
ENDCHAR
STARTCHAR FBA3
ENCODING 64419
SWIDTH 250 0
DWIDTH 8 0
BBX 9 20 -1 0
BITMAP
1000
1000
1000
0800
0800
0B80
0C80
0980
9F00
7C00
0000
0000
0000
0000
0000
0600
0F00
FF80
FB80
6180
ENDCHAR
STARTCHAR FBA4
ENCODING 64420
SWIDTH 375 0
DWIDTH 12 0
BBX 8 25 2 -1
BITMAP
10
38
78
50
E0
FE
7C
E0
00
00
00
00
00
10
1C
3E
7E
7F
47
C3
C3
FE
FE
7C
38
ENDCHAR
STARTCHAR FBA5
ENCODING 64421
SWIDTH 375 0
DWIDTH 12 0
BBX 11 24 2 0
BITMAP
0800
3C00
3800
4800
6000
7F00
3E00
6000
0000
0000
0200
0600
0600
0200
0E00
1E00
7200
4300
FF00
FF00
FB00
11E0
01E0
00E0
ENDCHAR
STARTCHAR FBA6
ENCODING 64422
SWIDTH 375 0
DWIDTH 12 0
BBX 8 12 2 -1
BITMAP
10
1C
3E
7E
7F
47
C3
C3
FE
FE
7C
38
ENDCHAR
STARTCHAR FBA7
ENCODING 64423
SWIDTH 406 0
DWIDTH 13 0
BBX 12 8 2 -1
BITMAP
0600
0F00
1F80
17F0
23F0
40F0
4000
8000
ENDCHAR
STARTCHAR FBA8
ENCODING 64424
SWIDTH 437 0
DWIDTH 14 0
BBX 13 13 -1 0
BITMAP
0600
0F80
0FC0
07E0
0FF0
1178
1138
1B18
1F88
1FF8
FBF8
F030
C000
ENDCHAR
STARTCHAR FBA9
ENCODING 64425
SWIDTH 468 0
DWIDTH 15 0
BBX 16 16 -1 -9
BITMAP
0200
0400
0C7C
18FC
F9FF
F207
7403
1400
1800
1800
1800
1800
1C00
1C00
1C00
0800
ENDCHAR
STARTCHAR FBAA
ENCODING 64426
SWIDTH 593 0
DWIDTH 19 0
BBX 16 11 2 0
BITMAP
00C0
01E0
03F0
067C
045E
084E
0CC3
0FC2
1FFE
FFFC
7000
ENDCHAR
STARTCHAR FBAB
ENCODING 64427
SWIDTH 531 0
DWIDTH 17 0
BBX 16 18 1 -7
BITMAP
0018
0038
0038
0078
0088
0090
0170
03E0
FFC3
7FFF
3FFF
03F8
0138
010C
0184
01FC
00F8
0070
ENDCHAR
STARTCHAR FBAC
ENCODING 64428
SWIDTH 437 0
DWIDTH 14 0
BBX 14 11 -1 1
BITMAP
0380
0780
0FE0
09F0
11F8
111C
130C
1FCC
FFF8
F7F8
E000
ENDCHAR
STARTCHAR FBAD
ENCODING 64429
SWIDTH 375 0
DWIDTH 12 0
BBX 14 18 -1 -7
BITMAP
0060
00E0
01E0
01E0
0220
0440
05C0
0F80
FF0C
FFFC
FFFC
1FE0
0DE0
0460
0620
07E0
03E0
03C0
ENDCHAR
STARTCHAR FBAE
ENCODING 64430
SWIDTH 1156 0
DWIDTH 37 0
BBX 33 16 2 -1
BITMAP
0008000000
001C000000
001C000000
003C000000
0024000000
0044000000
01C4000000
0780000000
1F00000000
3C00000000
7000000000
4000000000
E0000FFF80
FFFFFFFF80
FFFFFFFF00
1FF8000000
ENDCHAR
STARTCHAR FBAF
ENCODING 64431
SWIDTH 562 0
DWIDTH 18 0
BBX 19 12 2 -9
BITMAP
000F80
00FF80
03FF80
07E000
1F0000
380000
300000
400000
C00000
FFFFE0
FFFFC0
7FFFC0
ENDCHAR
STARTCHAR FBB0
ENCODING 64432
SWIDTH 1156 0
DWIDTH 37 0
BBX 33 32 2 -1
BITMAP
0400000000
1C00000000
3C00000000
2400000000
3000000000
3F80000000
1F00000000
3000000000
0000000000
0000000000
0000000000
0000000000
0000000000
0200000000
0300000000
0380000000
0180000000
01C0000000
00C0000000
0040000000
0040000000
0040000000
01C0000000
0780000000
1F00000000
3C00000000
7000000000
4000000000
E0000FFF80
FFFFFFFF80
FFFFFFFF00
1FF8000000
ENDCHAR
STARTCHAR FBB1
ENCODING 64433
SWIDTH 531 0
DWIDTH 17 0
BBX 33 27 2 -8
BITMAP
0040000000
01E0000000
01C0000000
0240000000
0300000000
03F8000000
01F0000000
0300000000
0000000000
0000000000
0000000000
0000000000
0000000000
0010000000
0030000000
0038000000
005E000000
01CE000000
0786000000
1F00000000
3C00000000
7000000000
4000000000
E0000FFF80
FFFFFFFF80
FFFFFFFF00
1FF8000000
ENDCHAR
STARTCHAR FBB2
ENCODING 64434
SWIDTH 187 0
DWIDTH 6 0
BBX 4 4 1 23
BITMAP
60
F0
E0
60
ENDCHAR
STARTCHAR FBB3
ENCODING 64435
SWIDTH 187 0
DWIDTH 6 0
BBX 4 4 1 -11
BITMAP
60
F0
E0
60
ENDCHAR
STARTCHAR FBB4
ENCODING 64436
SWIDTH 281 0
DWIDTH 9 0
BBX 7 5 1 23
BITMAP
04
6E
FE
EC
20
ENDCHAR
STARTCHAR FBB5
ENCODING 64437
SWIDTH 281 0
DWIDTH 9 0
BBX 7 5 1 -11
BITMAP
04
6E
FE
EC
20
ENDCHAR
STARTCHAR FBB6
ENCODING 64438
SWIDTH 281 0
DWIDTH 9 0
BBX 7 8 1 23
BITMAP
30
78
70
38
6E
FE
EC
20
ENDCHAR
STARTCHAR FBB7
ENCODING 64439
SWIDTH 281 0
DWIDTH 9 0
BBX 7 8 1 -12
BITMAP
30
78
70
38
6E
FE
EC
20
ENDCHAR
STARTCHAR FBB8
ENCODING 64440
SWIDTH 281 0
DWIDTH 9 0
BBX 7 8 1 23
BITMAP
08
7E
FC
EC
38
1C
3C
18
ENDCHAR
STARTCHAR FBB9
ENCODING 64441
SWIDTH 281 0
DWIDTH 9 0
BBX 7 8 1 -12
BITMAP
08
7E
FC
EC
38
1C
3C
18
ENDCHAR
STARTCHAR FBBA
ENCODING 64442
SWIDTH 312 0
DWIDTH 10 0
BBX 8 9 1 23
BITMAP
08
6E
7E
EC
64
6F
7E
F6
20
ENDCHAR
STARTCHAR FBBB
ENCODING 64443
SWIDTH 312 0
DWIDTH 10 0
BBX 8 9 1 -13
BITMAP
08
6E
7E
EC
64
6F
7E
F6
20
ENDCHAR
STARTCHAR FBBC
ENCODING 64444
SWIDTH 218 0
DWIDTH 7 0
BBX 5 7 1 -10
BITMAP
88
88
88
88
88
88
88
ENDCHAR
STARTCHAR FBBD
ENCODING 64445
SWIDTH 187 0
DWIDTH 6 0
BBX 5 7 1 23
BITMAP
60
F0
E0
70
78
F0
20
ENDCHAR
STARTCHAR FBBE
ENCODING 64446
SWIDTH 187 0
DWIDTH 6 0
BBX 5 7 1 -11
BITMAP
60
F0
E0
70
78
F0
20
ENDCHAR
STARTCHAR FBBF
ENCODING 64447
SWIDTH 187 0
DWIDTH 6 0
BBX 4 5 1 -9
BITMAP
60
B0
90
90
F0
ENDCHAR
STARTCHAR FBC0
ENCODING 64448
SWIDTH 312 0
DWIDTH 10 0
BBX 9 10 1 23
BITMAP
1000
1000
1000
1000
1000
1300
1D80
1100
BF00
7800
ENDCHAR
STARTCHAR FBC1
ENCODING 64449
SWIDTH 312 0
DWIDTH 10 0
BBX 9 10 1 -14
BITMAP
1000
1000
1000
1000
1000
1300
1D80
1100
BF00
7800
ENDCHAR
STARTCHAR FBD3
ENCODING 64467
SWIDTH 656 0
DWIDTH 21 0
BBX 17 28 2 0
BITMAP
0E0000
0F0000
1E0000
050400
0FC600
1F8700
3D8600
080600
000600
010200
060200
060300
080300
0F0300
0F0300
070100
070180
7E0180
000180
000180
000180
000080
000080
000080
800380
FFFF00
FFFF00
FFFC00
ENDCHAR
STARTCHAR FBD4
ENCODING 64468
SWIDTH 812 0
DWIDTH 26 0
BBX 25 29 2 -1
BITMAP
00600000
00700000
00F00000
00280000
005E0000
00FC0800
01E81800
00401800
00001800
00081800
00301800
00701800
00401800
00781800
00781800
00781800
00301800
03F01800
00000C00
60000C00
40000C00
80000C00
80001C00
C0003600
E000E600
F80FE780
7FFF8380
3FFE0180
0FF00000
ENDCHAR
STARTCHAR FBD5
ENCODING 64469
SWIDTH 656 0
DWIDTH 21 0
BBX 20 28 -1 -1
BITMAP
0C0000
1E0000
1C0000
0A0000
1B8030
3F01F0
3B0FF0
183FC0
00FE00
03F800
07C000
1F0000
3C0000
300000
200000
380000
3C0000
1E0000
070000
038000
018000
00C000
004000
004000
01C000
FF8000
FF8000
FE0000
ENDCHAR
STARTCHAR FBD6
ENCODING 64470
SWIDTH 593 0
DWIDTH 19 0
BBX 21 28 -1 0
BITMAP
180000
3C0000
780060
1401E0
3F07E0
7E1FC0
767E00
30FC00
03F000
07C000
0F0000
1E0000
380000
300000
200000
380000
3E0000
0F8000
07C000
01E000
00F800
005C00
004E00
004700
01C3C0
FF81F0
FF00F8
FE0030
ENDCHAR
STARTCHAR FBD7
ENCODING 64471
SWIDTH 406 0
DWIDTH 13 0
BBX 14 28 -3 -7
BITMAP
0070
00F0
00F0
00B0
0010
0030
0020
0020
0040
0040
0000
0000
0030
0078
0078
00DC
00FC
00FC
00FC
0068
0008
0008
0010
0030
0060
01C0
CFC0
3F00
ENDCHAR
STARTCHAR FBD8
ENCODING 64472
SWIDTH 343 0
DWIDTH 11 0
BBX 15 28 -3 -9
BITMAP
0070
00F0
00F0
0090
0010
0030
0020
0020
0040
0040
0000
0000
0030
0078
00D8
00CC
00FE
00FE
007C
0008
0008
0018
0030
0070
00E0
83C0
7F80
1E00
ENDCHAR
STARTCHAR FBD9
ENCODING 64473
SWIDTH 406 0
DWIDTH 13 0
BBX 14 26 -3 -7
BITMAP
0008
008C
0098
0058
0070
0030
0010
0000
0000
0000
0030
0078
0078
00DC
00FC
00FC
00FC
0068
0008
0008
0010
0030
0060
01C0
CFC0
3F00
ENDCHAR
STARTCHAR FBDA
ENCODING 64474
SWIDTH 343 0
DWIDTH 11 0
BBX 15 26 -3 -9
BITMAP
0008
008C
0098
0058
0070
0030
0020
0000
0000
0000
0030
0078
00D8
00CC
00FE
00FE
007C
0008
0008
0018
0030
0070
00E0
83C0
7F80
1E00
ENDCHAR
STARTCHAR FBDB
ENCODING 64475
SWIDTH 406 0
DWIDTH 13 0
BBX 14 27 -3 -6
BITMAP
0080
00C0
00E0
00E0
0060
0020
0020
0020
0020
0000
0000
0030
0078
0078
00DC
00FC
00FC
00FC
0068
0008
0008
0010
0030
0060
01C0
CFC0
3F00
ENDCHAR
STARTCHAR FBDC
ENCODING 64476
SWIDTH 343 0
DWIDTH 11 0
BBX 15 27 -3 -8
BITMAP
0080
00C0
00C0
00E0
0060
0060
0020
0020
0020
0000
0000
0030
0078
00D8
00CC
00FE
00FE
007C
0008
0008
0018
0030
0070
00E0
83C0
7F80
1E00
ENDCHAR
STARTCHAR FBDD
ENCODING 64477
SWIDTH 781 0
DWIDTH 25 0
BBX 26 28 -3 -7
BITMAP
00700000
00F00000
00F00000
00B00400
00100E00
00301E00
00203200
00203040
00403FC0
00403F80
00000E00
00001800
00301000
00780000
00780000
00DC0000
00FC0000
00FC0000
00FC0000
00680000
00080000
00080000
00100000
00300000
00600000
01C00000
CFC00000
3F000000
ENDCHAR
STARTCHAR FBDE
ENCODING 64478
SWIDTH 406 0
DWIDTH 13 0
BBX 14 27 -3 -7
BITMAP
00C0
01E0
01C0
00A0
01F8
03F0
03B0
0180
0000
0000
0000
0030
0078
0078
00DC
00FC
00FC
00FC
0068
0008
0008
0010
0030
0060
01C0
CFC0
3F00
ENDCHAR
STARTCHAR FBDF
ENCODING 64479
SWIDTH 343 0
DWIDTH 11 0
BBX 15 27 -3 -9
BITMAP
00C0
01E0
03C0
00A0
01F8
03F0
03B0
0180
0000
0000
0000
0030
0078
00D8
00CC
00FE
00FE
007C
0008
0008
0018
0030
0070
00E0
83C0
7F80
1E00
ENDCHAR
STARTCHAR FBE0
ENCODING 64480
SWIDTH 406 0
DWIDTH 13 0
BBX 16 16 -3 -7
BITMAP
0030
0078
0078
00DC
00FC
00FC
00FC
0068
0008
00FF
0010
0030
0060
01C0
CFC0
3F00
ENDCHAR
STARTCHAR FBE1
ENCODING 64481
SWIDTH 343 0
DWIDTH 11 0
BBX 15 16 -3 -8
BITMAP
0030
0078
00D8
00CC
00FE
00FE
007C
0008
0008
0018
01FE
0070
00E0
83C0
7F80
1E00
ENDCHAR
STARTCHAR FBE2
ENCODING 64482
SWIDTH 406 0
DWIDTH 13 0
BBX 14 26 -3 -7
BITMAP
0020
0030
0070
0058
0098
008C
0008
0000
0000
0000
0030
0078
0078
00DC
00FC
00FC
00FC
0068
0008
0008
0010
0030
0060
01C0
CFC0
3F00
ENDCHAR
STARTCHAR FBE3
ENCODING 64483
SWIDTH 343 0
DWIDTH 11 0
BBX 15 26 -3 -9
BITMAP
0020
0020
0070
0078
0098
008C
0008
0000
0000
0000
0030
0078
00D8
00CC
00FE
00FE
007C
0008
0008
0018
0030
0070
00E0
83C0
7F80
1E00
ENDCHAR
STARTCHAR FBE4
ENCODING 64484
SWIDTH 750 0
DWIDTH 24 0
BBX 20 29 2 -16
BITMAP
000070
0001F0
0003F0
000790
000C00
100800
201000
201000
401000
403800
801FC0
801FF0
C00070
C00030
E000E0
F003C0
7FFF80
7FFE00
1FF800
000000
000000
000000
00C000
00E000
01E000
006000
00F000
00E000
002000
ENDCHAR
STARTCHAR FBE5
ENCODING 64485
SWIDTH 593 0
DWIDTH 19 0
BBX 19 24 2 -21
BITMAP
2000C0
400380
400F80
400C00
801FC0
800FE0
800060
C00060
C000E0
E003C0
781F80
7FFF00
3FFC00
0FE000
000000
000000
000000
006000
00F000
00E000
006000
007000
00F000
002000
ENDCHAR
STARTCHAR FBE6
ENCODING 64486
SWIDTH 187 0
DWIDTH 6 0
BBX 6 20 -1 -11
BITMAP
08
18
18
18
08
18
F8
F0
60
00
00
00
00
18
3C
38
18
1C
3C
08
ENDCHAR
STARTCHAR FBE7
ENCODING 64487
SWIDTH 250 0
DWIDTH 8 0
BBX 9 16 -1 -11
BITMAP
0600
0F00
FF80
FB80
6180
0000
0000
0000
0000
0C00
0E00
1E00
0600
0F00
0E00
0600
ENDCHAR
STARTCHAR FBE8
ENCODING 64488
SWIDTH 187 0
DWIDTH 6 0
BBX 5 9 -1 0
BITMAP
08
18
18
18
08
18
F8
F0
60
ENDCHAR
STARTCHAR FBE9
ENCODING 64489
SWIDTH 250 0
DWIDTH 8 0
BBX 9 5 -1 0
BITMAP
0600
0F00
FF80
FB80
6180
ENDCHAR
STARTCHAR FBEA
ENCODING 64490
SWIDTH 406 0
DWIDTH 13 0
BBX 13 23 1 0
BITMAP
4000
4000
C000
4040
41C0
43C0
6240
6700
63F8
61F0
6300
6000
6000
2000
2040
2040
20C0
2060
2040
3040
3FC0
1F80
0F00
ENDCHAR
STARTCHAR FBEB
ENCODING 64491
SWIDTH 468 0
DWIDTH 15 0
BBX 15 23 1 0
BITMAP
4000
4000
C000
4000
4020
40F0
60E0
6120
6180
61FC
60F8
6180
6000
2000
2000
2000
2000
2000
2010
3078
3FFE
1FDE
0F8C
ENDCHAR
STARTCHAR FBEC
ENCODING 64492
SWIDTH 562 0
DWIDTH 18 0
BBX 16 20 2 0
BITMAP
000C
001C
003C
0024
0070
007F
021E
0670
0600
0200
0E00
1E04
720C
430C
FF0C
FF04
FB04
11FC
01F8
00F0
ENDCHAR
STARTCHAR FBED
ENCODING 64493
SWIDTH 625 0
DWIDTH 20 0
BBX 19 19 2 0
BITMAP
000200
000E00
001E00
001200
003800
021FC0
060F80
061800
020000
0E0000
1E0000
720000
430000
FF0000
FF0300
FB0780
11FFE0
01FDE0
00F0C0
ENDCHAR
STARTCHAR FBEE
ENCODING 64494
SWIDTH 531 0
DWIDTH 17 0
BBX 20 29 -3 -9
BITMAP
000080
0001C0
0003C0
000240
000700
0007F0
0003E0
000700
000000
000000
000000
000040
0000C0
0030C0
0078C0
00D840
00CCC0
00FFC0
00FF80
007F00
000800
000800
001800
003000
007000
00E000
83C000
7F8000
1E0000
ENDCHAR
STARTCHAR FBEF
ENCODING 64495
SWIDTH 593 0
DWIDTH 19 0
BBX 23 28 -3 -9
BITMAP
000020
0000E0
0001E0
000120
000380
0001F8
0000F8
000380
000000
000000
000000
000000
003000
007800
00D830
00CC78
00FFFE
00FFDC
007F0C
000800
000800
001800
003000
007000
00E000
83C000
7F8000
1E0000
ENDCHAR
STARTCHAR FBF0
ENCODING 64496
SWIDTH 531 0
DWIDTH 17 0
BBX 20 29 -3 -9
BITMAP
000080
0071C0
00F3C0
00F240
009700
0017F0
0033E0
002700
002000
004000
004000
000040
0000C0
0030C0
0078C0
00D840
00CCC0
00FFC0
00FF80
007F00
000800
000800
001800
003000
007000
00E000
83C000
7F8000
1E0000
ENDCHAR
STARTCHAR FBF1
ENCODING 64497
SWIDTH 593 0
DWIDTH 19 0
BBX 23 28 -3 -9
BITMAP
007020
00F0E0
00F1E0
009120
001380
0031F8
0020F8
002380
004000
004000
000000
000000
003000
007800
00D830
00CC78
00FFFE
00FFDC
007F0C
000800
000800
001800
003000
007000
00E000
83C000
7F8000
1E0000
ENDCHAR
STARTCHAR FBF2
ENCODING 64498
SWIDTH 531 0
DWIDTH 17 0
BBX 20 29 -3 -9
BITMAP
000080
0001C0
0003C0
000A40
008F00
009FF0
005BE0
007700
003000
002000
000000
000040
0000C0
0030C0
0078C0
00D840
00CCC0
00FFC0
00FF80
007F00
000800
000800
001800
003000
007000
00E000
83C000
7F8000
1E0000
ENDCHAR
STARTCHAR FBF3
ENCODING 64499
SWIDTH 593 0
DWIDTH 19 0
BBX 23 28 -3 -9
BITMAP
000020
0000E0
0009E0
008D20
009B80
0059F8
0070F8
003380
002000
000000
000000
000000
003000
007800
00D830
00CC78
00FFFE
00FFDC
007F0C
000800
000800
001800
003000
007000
00E000
83C000
7F8000
1E0000
ENDCHAR
STARTCHAR FBF4
ENCODING 64500
SWIDTH 531 0
DWIDTH 17 0
BBX 20 29 -3 -9
BITMAP
000080
0001C0
0083C0
00C240
00C700
00E7F0
0063E0
006700
002000
002000
002000
000040
0000C0
0030C0
0078C0
00D840
00CCC0
00FFC0
00FF80
007F00
000800
000800
001800
003000
007000
00E000
83C000
7F8000
1E0000
ENDCHAR
STARTCHAR FBF5
ENCODING 64501
SWIDTH 593 0
DWIDTH 19 0
BBX 23 28 -3 -9
BITMAP
000020
0080E0
00C1E0
00C120
00E380
0061F8
0060F8
002380
002000
002000
000000
000000
003000
007800
00D830
00CC78
00FFFE
00FFDC
007F0C
000800
000800
001800
003000
007000
00E000
83C000
7F8000
1E0000
ENDCHAR
STARTCHAR FBF6
ENCODING 64502
SWIDTH 718 0
DWIDTH 23 0
BBX 20 44 2 -17
BITMAP
000100
000700
000F00
000900
000C00
000FE0
0007C0
000C00
000000
000000
000000
000000
000100
000180
0003C0
0001C0
0000C0
000040
000040
000040
200040
400080
400380
400FE0
801FF0
800070
800020
8000E0
C001E0
E007C0
F83F00
7FFE00
3FF800
0FC000
000000
000000
000000
00C000
00E000
01E000
006000
00F000
00E000
002000
ENDCHAR
STARTCHAR FBF7
ENCODING 64503
SWIDTH 718 0
DWIDTH 23 0
BBX 22 41 2 -21
BITMAP
000200
000700
000F00
001200
001C00
001FC0
000F80
001C00
000000
000000
000000
000000
000000
000000
0000C0
0003E0
2007F0
200C3C
40083C
40100C
401800
801F80
801FF0
8003F8
C00018
C00078
F001F0
7C3FE0
7FFF80
1FFC00
07C000
000000
000000
000000
006000
00F000
00E000
006000
007800
00F000
002000
ENDCHAR
STARTCHAR FBF8
ENCODING 64504
SWIDTH 468 0
DWIDTH 15 0
BBX 14 30 -1 -10
BITMAP
0020
0070
00F0
0120
01C0
01FC
00F8
01C0
0000
0000
0000
0000
0000
0000
0010
0410
1F10
FFF0
F3F0
E0E0
0000
0000
0000
3000
7800
F000
3000
3800
7800
1000
ENDCHAR
STARTCHAR FBF9
ENCODING 64505
SWIDTH 718 0
DWIDTH 23 0
BBX 20 34 2 -7
BITMAP
000100
000700
000F00
000900
000C00
000FE0
0007C0
000C00
000000
000000
000000
000000
000100
000180
0003C0
0001C0
0000C0
000040
000040
000040
200040
400080
400380
400FE0
801FF0
800070
800020
8000E0
C001E0
E007C0
F83F00
7FFE00
3FF800
0FC000
ENDCHAR
STARTCHAR FBFA
ENCODING 64506
SWIDTH 718 0
DWIDTH 23 0
BBX 22 31 2 -11
BITMAP
000200
000700
000F00
001200
001C00
001FC0
000F80
001C00
000000
000000
000000
000000
000000
000000
0000C0
0003E0
2007F0
200C3C
40083C
40100C
401800
801F80
801FF0
8003F8
C00018
C00078
F001F0
7C3FE0
7FFF80
1FFC00
07C000
ENDCHAR
STARTCHAR FBFB
ENCODING 64507
SWIDTH 468 0
DWIDTH 15 0
BBX 14 20 -1 0
BITMAP
0020
0070
00F0
0120
01C0
01FC
00F8
01C0
0000
0000
0000
0000
0000
0000
0010
0410
1F10
FFF0
F3F0
E0E0
ENDCHAR
STARTCHAR FBFC
ENCODING 64508
SWIDTH 750 0
DWIDTH 24 0
BBX 20 19 2 -7
BITMAP
000070
0001F0
0003F0
000790
000C00
100800
201000
201000
401000
403800
801FC0
801FF0
C00070
C00030
E000E0
F003C0
7FFF80
7FFE00
1FF800
ENDCHAR
STARTCHAR FBFD
ENCODING 64509
SWIDTH 593 0
DWIDTH 19 0
BBX 19 14 2 -11
BITMAP
2000C0
400380
400F80
400C00
801FC0
800FE0
800060
C00060
C000E0
E003C0
781F80
7FFF00
3FFC00
0FE000
ENDCHAR
STARTCHAR FBFE
ENCODING 64510
SWIDTH 187 0
DWIDTH 6 0
BBX 8 17 -1 -8
BITMAP
08
18
18
18
08
18
F8
F0
60
00
00
00
02
37
7F
76
10
ENDCHAR
STARTCHAR FBFF
ENCODING 64511
SWIDTH 250 0
DWIDTH 8 0
BBX 9 12 -1 -7
BITMAP
0600
0F00
FF80
FB80
6180
0000
0000
0200
1B80
3F00
7B00
1000
ENDCHAR
STARTCHAR FC00
ENCODING 64512
SWIDTH 656 0
DWIDTH 21 0
BBX 22 45 2 -16
BITMAP
001000
003800
007800
004800
00E000
00FE00
007C00
00E000
000000
000000
000000
001800
001C00
003C00
002C00
004400
00C400
018400
030000
060000
1C0000
7001C0
7FFF80
FFFF80
01F800
03C000
070000
0C0000
180000
100000
200000
200000
400000
418000
41C000
43C000
408000
400000
600000
700000
380000
3E0000
1FFFFC
0FFFF0
01FF80
ENDCHAR
STARTCHAR FC01
ENCODING 64513
SWIDTH 656 0
DWIDTH 21 0
BBX 22 45 2 -16
BITMAP
001000
003800
007800
004800
00E000
00FE00
007C00
00E000
000000
000000
000000
001800
001C00
003C00
002C00
004400
00C400
018400
030000
060000
1C0000
7001C0
7FFF80
FFFF80
01F800
03C000
070000
0C0000
180000
100000
200000
200000
400000
400000
400000
400000
400000
400000
600000
700000
380000
3E0000
1FFFFC
0FFFF0
01FF80
ENDCHAR
STARTCHAR FC02
ENCODING 64514
SWIDTH 593 0
DWIDTH 19 0
BBX 16 41 1 -16
BITMAP
0008
001C
003C
0048
0060
007F
003E
0070
0000
0000
0000
0000
0000
0000
001F
00FF
01FF
0782
0E00
1F00
1F80
1FE0
1FE0
3FC0
7C40
4000
8000
8000
8000
C000
C000
C000
C000
4000
4000
4000
6000
6000
6000
6000
4000
ENDCHAR
STARTCHAR FC03
ENCODING 64515
SWIDTH 718 0
DWIDTH 23 0
BBX 20 34 2 -7
BITMAP
000100
000700
000F00
000900
000C00
000FE0
0007C0
000C00
000000
000000
000000
000000
000100
000180
0003C0
0001C0
0000C0
000040
000040
000040
200040
400080
400380
400FE0
801FF0
800070
800020
8000E0
C001E0
E007C0
F83F00
7FFE00
3FF800
0FC000
ENDCHAR
STARTCHAR FC04
ENCODING 64516
SWIDTH 718 0
DWIDTH 23 0
BBX 20 41 2 -14
BITMAP
000100
000700
000F00
000900
000C00
000FE0
0007C0
000C00
000000
000000
000000
000000
000100
000180
0003C0
0001C0
0000C0
000040
000040
000040
200040
400080
400380
400FE0
801FF0
800070
800020
8000E0
C001E0
E007C0
F83F00
7FFE00
3FF800
0FC000
000000
000000
003000
01B800
03F800
03B000
010000
ENDCHAR
STARTCHAR FC05
ENCODING 64517
SWIDTH 656 0
DWIDTH 21 0
BBX 22 34 2 -16
BITMAP
001800
001C00
003C00
002C00
004400
00C400
018400
030000
060000
1C0000
7001C0
7FFF80
FFFF80
01F800
03C000
070000
0C0180
1801C0
1003C0
200080
200000
400000
418000
41C000
43C000
408000
400000
600000
700000
380000
3E0000
1FFFFC
0FFFF0
01FF80
ENDCHAR
STARTCHAR FC06
ENCODING 64518
SWIDTH 656 0
DWIDTH 21 0
BBX 22 34 2 -16
BITMAP
001800
001C00
003C00
002C00
004400
00C400
018400
030000
060000
1C0000
7001C0
7FFF80
FFFF80
01F800
03C000
070000
0C0180
1801C0
1003C0
200080
200000
400000
400000
400000
400000
400000
400000
600000
700000
380000
3E0000
1FFFFC
0FFFF0
01FF80
ENDCHAR
STARTCHAR FC07
ENCODING 64519
SWIDTH 656 0
DWIDTH 21 0
BBX 22 35 2 -16
BITMAP
300000
381800
781C00
103C00
002C00
004400
00C400
018400
030000
060000
1C0000
7001C0
7FFF80
FFFF80
01F800
03C000
070000
0C0180
1801C0
1003C0
200080
200000
400000
400000
400000
400000
400000
400000
600000
700000
380000
3E0000
1FFFFC
0FFFF0
01FF80
ENDCHAR
STARTCHAR FC08
ENCODING 64520
SWIDTH 593 0
DWIDTH 19 0
BBX 17 27 1 -16
BITMAP
001F00
00FF00
01FF00
078200
0E0000
1F0000
1F8000
1FE000
1FE000
3FC000
7C4000
400000
800000
800000
800000
C00300
C00780
C00700
C00100
400000
400000
400000
600000
600000
600000
600000
400000
ENDCHAR
STARTCHAR FC09
ENCODING 64521
SWIDTH 718 0
DWIDTH 23 0
BBX 21 26 2 -10
BITMAP
000100
000180
0003C0
0001C0
0000C0
000040
000040
000040
200040
400080
400380
400FE0
801FF0
800070
800020
8000E0
C001E0
E007C0
F83F00
7FFE00
3FF800
0FC000
000030
000078
0000F0
000020
ENDCHAR
STARTCHAR FC0A
ENCODING 64522
SWIDTH 718 0
DWIDTH 23 0
BBX 21 29 2 -13
BITMAP
000100
000180
0003C0
0001C0
0000C0
000040
000040
000040
200040
400080
400380
400FE0
801FF0
800070
800020
8000E0
C001E0
E007C0
F83F00
7FFE00
3FF800
0FC000
000030
000078
0030F0
01B820
03F800
03B000
010000
ENDCHAR
STARTCHAR FC0B
ENCODING 64523
SWIDTH 656 0
DWIDTH 21 0
BBX 22 41 2 -16
BITMAP
000400
006E00
00FE00
00E400
002000
000000
000000
001800
001C00
003C00
002C00
004400
00C400
018400
030000
060000
1C0000
7001C0
7FFF80
FFFF80
01F800
03C000
070000
0C0000
180000
100000
200000
200000
400000
418000
41C000
43C000
408000
400000
600000
700000
380000
3E0000
1FFFFC
0FFFF0
01FF80
ENDCHAR
ENDFONT
